<svg xmlns="http://www.w3.org/2000/svg" version="1.1" width="1024" height="1024">
<rect x="0" y="0" width="1024" height="1024" fill="#ddd7d6" />
<g transform="scale(4.000000) translate(0.5 0.5)">
<polygon fill="#0b090c" fill-opacity="0.501961" points="135,85 195,202 80,211" />
<polygon fill="#fffaf6" fill-opacity="0.501961" points="271,128 -15,111 247,-16" />
<polygon fill="#2c2e3a" fill-opacity="0.501961" points="89,169 148,226 114,109" />
<polygon fill="#1f1f29" fill-opacity="0.501961" points="169,124 180,168 105,134" />
<polygon fill="#fdf7f4" fill-opacity="0.501961" points="91,271 -16,25 93,-16" />
<polygon fill="#f9f3ef" fill-opacity="0.501961" points="136,161 261,174 271,271" />
<polygon fill="#060000" fill-opacity="0.501961" points="185,187 143,187 178,209" />
<polygon fill="#f9f4ee" fill-opacity="0.501961" points="87,271 186,258 113,194" />
<polygon fill="#000000" fill-opacity="0.501961" points="89,194 128,189 100,209" />
<polygon fill="#f3edeb" fill-opacity="0.501961" points="-16,1 6,271 201,-9" />
<polygon fill="#c7d5fc" fill-opacity="0.501961" points="124,159 125,144 94,158" />
<polygon fill="#faf4ef" fill-opacity="0.501961" points="213,271 158,193 138,224" />
<polygon fill="#2d2113" fill-opacity="0.501961" points="129,160 130,217 146,213" />
<polygon fill="#f1ebe9" fill-opacity="0.501961" points="192,73 175,269 271,249" />
<polygon fill="#625b53" fill-opacity="0.501961" points="132,60 139,83 138,46" />
<polygon fill="#473e41" fill-opacity="0.501961" points="149,138 135,97 123,203" />
<polygon fill="#f6f1ed" fill-opacity="0.501961" points="-16,247 124,271 83,186" />
<polygon fill="#d1cecd" fill-opacity="0.501961" points="161,186 146,141 141,180" />
<polygon fill="#5f5d65" fill-opacity="0.501961" points="171,126 182,179 120,117" />
<polygon fill="#0c0c10" fill-opacity="0.501961" points="134,168 93,182 141,180" />
<polygon fill="#eee8e6" fill-opacity="0.501961" points="99,189 33,-16 -16,227" />
<polygon fill="#000000" fill-opacity="0.501961" points="178,204 168,207 160,176" />
<polygon fill="#eae4e1" fill-opacity="0.501961" points="130,118 39,124 142,72" />
<polygon fill="#000000" fill-opacity="0.501961" points="129,153 106,168 141,158" />
<polygon fill="#2e2b30" fill-opacity="0.501961" points="135,119 106,124 112,149" />
<polygon fill="#e1dbd7" fill-opacity="0.501961" points="171,121 137,129 144,79" />
<polygon fill="#ebe5e2" fill-opacity="0.501961" points="271,126 262,218 159,119" />
<polygon fill="#eee8e6" fill-opacity="0.501961" points="126,202 147,271 39,236" />
<polygon fill="#efe9e6" fill-opacity="0.501961" points="-16,-5 104,132 168,-13" />
<polygon fill="#fffff5" fill-opacity="0.501961" points="162,198 142,204 164,208" />
<polygon fill="#040100" fill-opacity="0.501961" points="169,186 149,187 140,197" />
<polygon fill="#8992aa" fill-opacity="0.501961" points="130,155 86,167 100,138" />
<polygon fill="#fffff8" fill-opacity="0.501961" points="110,200 108,213 126,203" />
<polygon fill="#8b8684" fill-opacity="0.501961" points="179,186 155,158 164,188" />
<polygon fill="#000000" fill-opacity="0.501961" points="114,191 104,210 100,193" />
<polygon fill="#b9b6ac" fill-opacity="0.501961" points="135,-8 144,14 136,45" />
<polygon fill="#020000" fill-opacity="0.501961" points="150,203 115,194 125,187" />
<polygon fill="#3e3940" fill-opacity="0.501961" points="176,140 160,124 127,153" />
<polygon fill="#b6b2a7" fill-opacity="0.501961" points="174,138 175,156 183,153" />
<polygon fill="#f6f0ee" fill-opacity="0.501961" points="139,13 271,94 254,-16" />
<polygon fill="#eee8e5" fill-opacity="0.501961" points="213,198 254,271 131,219" />
<polygon fill="#756f67" fill-opacity="0.501961" points="172,180 181,159 182,177" />
<polygon fill="#130f08" fill-opacity="0.501961" points="137,102 140,111 135,118" />
<polygon fill="#918079" fill-opacity="0.501961" points="132,177 149,190 126,187" />
<polygon fill="#ede4de" fill-opacity="0.501961" points="211,203 227,186 173,193" />
<polygon fill="#261618" fill-opacity="0.501961" points="108,180 98,174 90,181" />
<polygon fill="#807666" fill-opacity="0.501961" points="139,208 124,196 111,197" />
<polygon fill="#000000" fill-opacity="0.501961" points="141,216 129,208 131,214" />
<polygon fill="#c6c2c0" fill-opacity="0.501961" points="143,164 182,167 152,185" />
<polygon fill="#131315" fill-opacity="0.501961" points="92,166 102,171 115,162" />
<polygon fill="#745f47" fill-opacity="0.501961" points="147,203 143,216 130,202" />
<polygon fill="#ece6e2" fill-opacity="0.501961" points="76,164 38,214 100,170" />
<polygon fill="#292122" fill-opacity="0.501961" points="116,124 110,139 144,152" />
<polygon fill="#5a5a60" fill-opacity="0.501961" points="115,120 159,166 152,120" />
<polygon fill="#332d29" fill-opacity="0.501961" points="137,77 139,63 135,67" />
<polygon fill="#efe9e6" fill-opacity="0.501961" points="142,-13 189,147 138,98" />
<polygon fill="#ece6e4" fill-opacity="0.501961" points="-16,101 104,59 98,152" />
<polygon fill="#8b8891" fill-opacity="0.501961" points="97,171 106,175 124,167" />
<polygon fill="#e7e1df" fill-opacity="0.501961" points="-8,192 100,243 166,222" />
<polygon fill="#efeae7" fill-opacity="0.501961" points="136,-16 93,134 134,103" />
<polygon fill="#5a657d" fill-opacity="0.501961" points="93,161 104,151 91,153" />
<polygon fill="#dee1e4" fill-opacity="0.501961" points="140,178 148,161 140,161" />
<polygon fill="#7f828e" fill-opacity="0.501961" points="112,168 124,171 142,160" />
<polygon fill="#605c5b" fill-opacity="0.501961" points="163,184 162,160 168,179" />
<polygon fill="#eae4e2" fill-opacity="0.501961" points="149,202 237,230 124,271" />
<polygon fill="#bfbaad" fill-opacity="0.501961" points="124,110 134,104 135,117" />
<polygon fill="#e8e3e0" fill-opacity="0.501961" points="219,200 170,181 200,171" />
<polygon fill="#7b7b87" fill-opacity="0.501961" points="125,186 104,183 91,195" />
<polygon fill="#06070d" fill-opacity="0.501961" points="133,161 102,168 113,159" />
<polygon fill="#eca194" fill-opacity="0.501961" points="136,156 136,149 140,156" />
<polygon fill="#020000" fill-opacity="0.501961" points="121,198 114,199 120,200" />
<polygon fill="#352e31" fill-opacity="0.501961" points="175,178 182,175 177,169" />
<polygon fill="#ebe5e3" fill-opacity="0.501961" points="181,55 142,118 214,135" />
<polygon fill="#d9d8d9" fill-opacity="0.501961" points="163,185 148,179 159,173" />
<polygon fill="#999aa4" fill-opacity="0.501961" points="149,122 145,130 127,129" />
<polygon fill="#2a272d" fill-opacity="0.501961" points="132,171 139,167 136,186" />
<polygon fill="#0a0706" fill-opacity="0.501961" points="142,141 143,148 127,146" />
<polygon fill="#040304" fill-opacity="0.501961" points="151,194 162,190 146,184" />
<polygon fill="#626166" fill-opacity="0.501961" points="174,137 139,159 172,157" />
<polygon fill="#6d6964" fill-opacity="0.501961" points="146,111 127,109 141,106" />
<polygon fill="#ece6e4" fill-opacity="0.501961" points="196,170 172,225 271,271" />
<polygon fill="#4f5059" fill-opacity="0.501961" points="139,174 115,181 146,184" />
<polygon fill="#676259" fill-opacity="0.501961" points="136,88 137,81 138,89" />
<polygon fill="#120e0a" fill-opacity="0.501961" points="165,205 162,189 180,207" />
<polygon fill="#ece6e4" fill-opacity="0.501961" points="87,88 13,265 92,189" />
<polygon fill="#9ba3b9" fill-opacity="0.501961" points="124,142 124,157 92,163" />
<polygon fill="#cdc8c5" fill-opacity="0.501961" points="116,199 122,197 113,196" />
<polygon fill="#eae5de" fill-opacity="0.501961" points="163,197 135,223 169,218" />
<polygon fill="#57545a" fill-opacity="0.501961" points="136,131 111,134 131,118" />
<polygon fill="#e7e1df" fill-opacity="0.501961" points="271,176 216,85 181,175" />
<polygon fill="#e9e3e1" fill-opacity="0.501961" points="158,216 209,193 186,271" />
<polygon fill="#211918" fill-opacity="0.501961" points="135,65 139,61 135,63" />
<polygon fill="#25211e" fill-opacity="0.501961" points="157,160 178,165 170,159" />
<polygon fill="#898480" fill-opacity="0.501961" points="165,167 172,178 148,167" />
<polygon fill="#90765e" fill-opacity="0.501961" points="136,198 138,182 146,197" />
<polygon fill="#b1aaa4" fill-opacity="0.501961" points="136,27 137,59 142,38" />
<polygon fill="#20212a" fill-opacity="0.501961" points="124,144 121,134 108,149" />
<polygon fill="#eae9e8" fill-opacity="0.501961" points="169,170 178,166 160,167" />
<polygon fill="#565b69" fill-opacity="0.501961" points="112,132 107,128 96,147" />
<polygon fill="#847663" fill-opacity="0.501961" points="143,202 158,191 163,197" />
<polygon fill="#f2ebe9" fill-opacity="0.501961" points="140,-11 271,18 139,99" />
<polygon fill="#ece6df" fill-opacity="0.501961" points="127,203 110,202 134,238" />
<polygon fill="#dcd8d7" fill-opacity="0.501961" points="159,175 160,170 168,180" />
<polygon fill="#f1ece9" fill-opacity="0.501961" points="-9,271 -3,213 188,258" />
<polygon fill="#1f1509" fill-opacity="0.501961" points="90,203 108,207 99,209" />
<polygon fill="#fff1c5" fill-opacity="0.501961" points="139,186 139,188 146,188" />
<polygon fill="#e9e3e0" fill-opacity="0.501961" points="99,181 47,245 3,202" />
<polygon fill="#aaa69d" fill-opacity="0.501961" points="182,153 180,170 175,138" />
<polygon fill="#e9e3e1" fill-opacity="0.501961" points="140,75 104,129 94,88" />
<polygon fill="#ece6e4" fill-opacity="0.501961" points="52,128 134,115 80,87" />
<polygon fill="#4a3422" fill-opacity="0.501961" points="178,199 181,199 181,189" />
<polygon fill="#6d635f" fill-opacity="0.501961" points="88,204 96,187 98,204" />
<polygon fill="#232225" fill-opacity="0.501961" points="155,184 157,194 166,188" />
<polygon fill="#f1ebe8" fill-opacity="0.501961" points="-16,163 2,-16 84,189" />
<polygon fill="#340000" fill-opacity="0.501961" points="131,144 129,158 134,150" />
<polygon fill="#1d1510" fill-opacity="0.501961" points="124,201 131,203 130,198" />
<polygon fill="#bfbaaf" fill-opacity="0.501961" points="134,107 128,111 135,119" />
<polygon fill="#080708" fill-opacity="0.501961" points="128,177 139,170 111,176" />
<polygon fill="#e9e3e0" fill-opacity="0.501961" points="-1,207 103,235 91,198" />
<polygon fill="#ded9d2" fill-opacity="0.501961" points="184,161 174,143 176,155" />
<polygon fill="#aeb3ca" fill-opacity="0.501961" points="125,146 111,157 130,150" />
<polygon fill="#ebe8e7" fill-opacity="0.501961" points="168,185 170,184 166,179" />
<polygon fill="#7b86a0" fill-opacity="0.501961" points="109,144 110,164 93,162" />
<polygon fill="#f1ebe9" fill-opacity="0.501961" points="131,-5 32,55 135,106" />
<polygon fill="#7e7c7f" fill-opacity="0.501961" points="137,146 134,140 140,135" />
<polygon fill="#4a4a52" fill-opacity="0.501961" points="173,162 163,126 173,136" />
<polygon fill="#7d7c85" fill-opacity="0.501961" points="126,169 135,168 144,157" />
<polygon fill="#655e61" fill-opacity="0.501961" points="146,179 148,173 152,173" />
<polygon fill="#c4c0c0" fill-opacity="0.501961" points="164,185 152,176 141,180" />
<polygon fill="#171516" fill-opacity="0.501961" points="126,186 134,199 111,191" />
<polygon fill="#100c0f" fill-opacity="0.501961" points="108,204 101,208 100,183" />
<polygon fill="#030000" fill-opacity="0.501961" points="133,160 128,154 128,161" />
<polygon fill="#16161a" fill-opacity="0.501961" points="105,184 105,170 110,186" />
<polygon fill="#928d8b" fill-opacity="0.501961" points="146,158 157,162 145,144" />
<polygon fill="#efe9e7" fill-opacity="0.501961" points="140,107 140,-16 271,94" />
<polygon fill="#756a5e" fill-opacity="0.501961" points="129,201 142,206 128,208" />
<polygon fill="#090709" fill-opacity="0.501961" points="135,185 128,201 137,199" />
<polygon fill="#160f03" fill-opacity="0.501961" points="114,200 110,198 118,199" />
<polygon fill="#333033" fill-opacity="0.501961" points="131,162 131,171 143,175" />
<polygon fill="#daaf7c" fill-opacity="0.501961" points="181,195 172,191 183,191" />
<polygon fill="#eae4df" fill-opacity="0.501961" points="197,159 205,170 174,167" />
<polygon fill="#bbb5b0" fill-opacity="0.501961" points="173,182 164,185 187,188" />
<polygon fill="#534741" fill-opacity="0.501961" points="168,161 177,157 175,168" />
<polygon fill="#0e0d0f" fill-opacity="0.501961" points="166,178 161,179 163,183" />
<polygon fill="#100e10" fill-opacity="0.501961" points="140,138 141,151 138,146" />
<polygon fill="#404048" fill-opacity="0.501961" points="157,142 139,126 157,159" />
<polygon fill="#e4dedb" fill-opacity="0.501961" points="245,113 183,178 182,132" />
<polygon fill="#727484" fill-opacity="0.501961" points="112,192 123,178 112,185" />
<polygon fill="#5e5d66" fill-opacity="0.501961" points="172,159 164,123 158,156" />
<polygon fill="#494242" fill-opacity="0.501961" points="179,149 181,151 179,152" />
<polygon fill="#898484" fill-opacity="0.501961" points="165,179 162,166 178,188" />
<polygon fill="#e9e3e1" fill-opacity="0.501961" points="195,147 202,85 139,101" />
<polygon fill="#1a181a" fill-opacity="0.501961" points="134,173 122,171 127,184" />
<polygon fill="#70778c" fill-opacity="0.501961" points="107,147 91,155 93,169" />
<polygon fill="#fef6dd" fill-opacity="0.501961" points="97,187 97,182 99,186" />
<polygon fill="#403935" fill-opacity="0.501961" points="95,209 101,205 93,198" />
<polygon fill="#a5a6b7" fill-opacity="0.501961" points="124,140 125,147 121,153" />
<polygon fill="#eaeae8" fill-opacity="0.501961" points="139,160 154,164 142,165" />
<polygon fill="#1f1a0b" fill-opacity="0.501961" points="130,214 142,213 134,216" />
<polygon fill="#837f80" fill-opacity="0.501961" points="155,159 144,141 144,161" />
<polygon fill="#e8e3df" fill-opacity="0.501961" points="107,209 158,224 61,222" />
<polygon fill="#656c86" fill-opacity="0.501961" points="116,160 121,158 118,149" />
<polygon fill="#838da5" fill-opacity="0.501961" points="114,127 102,138 102,152" />
<polygon fill="#ede9e0" fill-opacity="0.501961" points="148,202 157,200 142,228" />
<polygon fill="#e7e0da" fill-opacity="0.501961" points="112,199 123,204 102,222" />
<polygon fill="#757783" fill-opacity="0.501961" points="101,185 127,184 103,192" />
<polygon fill="#8d5757" fill-opacity="0.501961" points="132,152 142,153 146,148" />
<polygon fill="#151415" fill-opacity="0.501961" points="166,204 163,194 180,202" />
<polygon fill="#09080b" fill-opacity="0.501961" points="113,198 105,194 102,201" />
<polygon fill="#e9e3e1" fill-opacity="0.501961" points="176,207 108,225 215,264" />
<polygon fill="#1a191d" fill-opacity="0.501961" points="108,139 137,134 125,131" />
<polygon fill="#160d07" fill-opacity="0.501961" points="150,189 148,184 144,199" />
<polygon fill="#65554c" fill-opacity="0.501961" points="173,160 181,163 174,165" />
<polygon fill="#f8f1ef" fill-opacity="0.501961" points="229,10 257,-14 271,83" />
<polygon fill="#e9e4e0" fill-opacity="0.501961" points="174,102 155,117 132,120" />
<polygon fill="#968b80" fill-opacity="0.501961" points="135,91 139,87 136,99" />
<polygon fill="#cbcdd0" fill-opacity="0.501961" points="140,176 144,163 140,163" />
<polygon fill="#a09a98" fill-opacity="0.501961" points="160,173 165,159 157,168" />
<polygon fill="#5b5048" fill-opacity="0.501961" points="178,192 186,188 171,188" />
<polygon fill="#b0b6ce" fill-opacity="0.501961" points="117,157 125,157 125,145" />
<polygon fill="#8a888e" fill-opacity="0.501961" points="127,190 129,184 133,183" />
<polygon fill="#8c8581" fill-opacity="0.501961" points="130,107 135,111 128,112" />
<polygon fill="#eee8e6" fill-opacity="0.501961" points="62,55 36,128 135,71" />
<polygon fill="#352c1f" fill-opacity="0.501961" points="136,97 138,100 135,108" />
<polygon fill="#f6f3ea" fill-opacity="0.501961" points="125,198 124,199 121,197" />
<polygon fill="#3c363c" fill-opacity="0.501961" points="113,130 134,121 115,120" />
<polygon fill="#4b4f5e" fill-opacity="0.501961" points="109,149 118,147 111,139" />
<polygon fill="#eae4e2" fill-opacity="0.501961" points="184,192 213,187 165,264" />
<polygon fill="#e2dcda" fill-opacity="0.501961" points="213,138 187,154 166,123" />
<polygon fill="#e6e0da" fill-opacity="0.501961" points="97,170 87,186 72,192" />
<polygon fill="#27222a" fill-opacity="0.501961" points="123,165 118,176 122,177" />
<polygon fill="#b4b1a9" fill-opacity="0.501961" points="138,18 132,-16 140,-4" />
<polygon fill="#c2b6ad" fill-opacity="0.501961" points="149,198 149,200 143,200" />
<polygon fill="#947860" fill-opacity="0.501961" points="146,205 141,209 138,203" />
<polygon fill="#7b7d87" fill-opacity="0.501961" points="130,164 135,168 119,171" />
<polygon fill="#afa89b" fill-opacity="0.501961" points="137,118 146,130 140,111" />
<polygon fill="#171514" fill-opacity="0.501961" points="164,195 179,196 173,208" />
<polygon fill="#2b242f" fill-opacity="0.501961" points="114,172 118,175 114,166" />
<polygon fill="#130f06" fill-opacity="0.501961" points="136,214 136,205 138,210" />
<polygon fill="#4a3c3e" fill-opacity="0.501961" points="103,165 101,180 95,181" />
</g>
</svg>