<svg xmlns="http://www.w3.org/2000/svg" version="1.1" width="1024" height="1024">
<rect x="0" y="0" width="1024" height="1024" fill="#617d86" />
<g transform="scale(4.000000) translate(0.5 0.5)">
<polygon fill="#eaffff" fill-opacity="0.501961" points="130,261 264,271 271,-5" />
<polygon fill="#000719" fill-opacity="0.501961" points="71,44 217,131 39,230" />
<polygon fill="#e7f9f2" fill-opacity="0.501961" points="110,21 232,42 271,175" />
<polygon fill="#000211" fill-opacity="0.501961" points="4,-16 -16,52 244,0" />
<polygon fill="#044c62" fill-opacity="0.501961" points="222,193 -16,211 169,44" />
<polygon fill="#d7e2df" fill-opacity="0.501961" points="63,140 54,59 -16,142" />
<polygon fill="#000007" fill-opacity="0.501961" points="-16,190 11,151 110,241" />
<polygon fill="#d1d8d5" fill-opacity="0.501961" points="10,271 187,252 25,223" />
<polygon fill="#72e7f5" fill-opacity="0.501961" points="223,169 142,192 214,122" />
<polygon fill="#05040b" fill-opacity="0.501961" points="55,105 132,181 90,31" />
<polygon fill="#f9fffb" fill-opacity="0.501961" points="172,262 261,205 261,134" />
<polygon fill="#25373d" fill-opacity="0.501961" points="175,208 169,235 97,237" />
<polygon fill="#9abbc1" fill-opacity="0.501961" points="83,24 271,42 123,77" />
<polygon fill="#20313f" fill-opacity="0.501961" points="250,-6 143,22 271,24" />
<polygon fill="#ffffff" fill-opacity="0.501961" points="157,210 182,232 120,204" />
<polygon fill="#f3ebcf" fill-opacity="0.501961" points="230,96 181,38 184,107" />
<polygon fill="#f3ffff" fill-opacity="0.501961" points="139,20 185,40 100,31" />
<polygon fill="#25b2d8" fill-opacity="0.501961" points="206,173 90,170 169,194" />
<polygon fill="#1a3340" fill-opacity="0.501961" points="102,240 38,132 -16,179" />
<polygon fill="#516666" fill-opacity="0.501961" points="237,156 134,155 123,108" />
<polygon fill="#89a7ae" fill-opacity="0.501961" points="63,210 128,224 39,178" />
<polygon fill="#00537a" fill-opacity="0.501961" points="251,220 211,240 224,246" />
<polygon fill="#768d95" fill-opacity="0.501961" points="180,34 260,26 237,94" />
<polygon fill="#00223a" fill-opacity="0.501961" points="150,181 47,194 117,209" />
<polygon fill="#32c2e8" fill-opacity="0.501961" points="103,171 74,162 60,133" />
<polygon fill="#e2e9ea" fill-opacity="0.501961" points="256,160 271,64 197,136" />
<polygon fill="#b6ffff" fill-opacity="0.501961" points="200,141 162,179 201,160" />
<polygon fill="#214146" fill-opacity="0.501961" points="187,208 136,201 174,219" />
<polygon fill="#d1e2de" fill-opacity="0.501961" points="188,214 245,198 145,195" />
<polygon fill="#93a2a6" fill-opacity="0.501961" points="93,31 4,91 38,99" />
<polygon fill="#425963" fill-opacity="0.501961" points="-14,31 143,14 6,69" />
<polygon fill="#946d40" fill-opacity="0.501961" points="107,52 89,80 104,109" />
<polygon fill="#000b1d" fill-opacity="0.501961" points="118,173 62,72 69,140" />
<polygon fill="#1d8997" fill-opacity="0.501961" points="195,162 197,134 234,165" />
<polygon fill="#7e9395" fill-opacity="0.501961" points="44,212 -16,237 97,239" />
<polygon fill="#00303f" fill-opacity="0.501961" points="230,141 215,132 230,133" />
<polygon fill="#bcd3d3" fill-opacity="0.501961" points="139,226 93,206 99,226" />
<polygon fill="#378598" fill-opacity="0.501961" points="170,94 135,62 195,59" />
<polygon fill="#c3cfcf" fill-opacity="0.501961" points="180,236 57,240 84,271" />
<polygon fill="#0b3e58" fill-opacity="0.501961" points="204,132 142,170 209,98" />
<polygon fill="#1a5055" fill-opacity="0.501961" points="203,171 228,188 202,197" />
<polygon fill="#081d2a" fill-opacity="0.501961" points="-16,26 10,-16 153,-1" />
<polygon fill="#90a29f" fill-opacity="0.501961" points="142,114 125,123 175,131" />
<polygon fill="#000226" fill-opacity="0.501961" points="57,249 75,271 30,263" />
<polygon fill="#0d6d8c" fill-opacity="0.501961" points="122,31 107,46 144,40" />
<polygon fill="#d3e0e0" fill-opacity="0.501961" points="178,271 242,206 185,192" />
<polygon fill="#004c67" fill-opacity="0.501961" points="-12,84 27,100 19,108" />
<polygon fill="#ffffff" fill-opacity="0.501961" points="136,44 150,45 146,60" />
<polygon fill="#0f1b26" fill-opacity="0.501961" points="47,209 15,151 -16,218" />
<polygon fill="#aec0c1" fill-opacity="0.501961" points="59,89 -16,120 56,150" />
<polygon fill="#98a9a8" fill-opacity="0.501961" points="230,173 184,224 249,187" />
<polygon fill="#faf2db" fill-opacity="0.501961" points="186,69 181,96 242,56" />
<polygon fill="#035d8b" fill-opacity="0.501961" points="176,194 111,197 59,156" />
<polygon fill="#0c1f29" fill-opacity="0.501961" points="50,214 138,234 90,237" />
<polygon fill="#eaf5ed" fill-opacity="0.501961" points="157,218 136,201 120,206" />
<polygon fill="#0c2531" fill-opacity="0.501961" points="164,236 131,233 169,226" />
<polygon fill="#c5d8d6" fill-opacity="0.501961" points="140,44 112,64 106,46" />
<polygon fill="#003134" fill-opacity="0.501961" points="182,195 168,196 181,200" />
<polygon fill="#596d76" fill-opacity="0.501961" points="140,16 271,21 199,46" />
<polygon fill="#0c1c28" fill-opacity="0.501961" points="59,84 144,103 89,162" />
<polygon fill="#001627" fill-opacity="0.501961" points="153,207 142,210 143,187" />
<polygon fill="#12839a" fill-opacity="0.501961" points="208,79 252,68 236,63" />
<polygon fill="#55d3e2" fill-opacity="0.501961" points="214,188 144,176 176,165" />
<polygon fill="#fafffd" fill-opacity="0.501961" points="202,163 207,172 233,169" />
<polygon fill="#c9d5d2" fill-opacity="0.501961" points="244,258 171,218 164,271" />
<polygon fill="#f4fffd" fill-opacity="0.501961" points="271,204 259,229 224,246" />
<polygon fill="#f8fcf5" fill-opacity="0.501961" points="179,53 147,23 187,42" />
<polygon fill="#183239" fill-opacity="0.501961" points="119,202 136,219 126,223" />
<polygon fill="#a0b7b8" fill-opacity="0.501961" points="130,33 75,45 97,31" />
<polygon fill="#f9fdf4" fill-opacity="0.501961" points="229,254 236,271 271,229" />
<polygon fill="#415b67" fill-opacity="0.501961" points="111,20 208,30 181,8" />
<polygon fill="#333937" fill-opacity="0.501961" points="130,165 110,110 164,136" />
<polygon fill="#2f92a0" fill-opacity="0.501961" points="78,154 62,122 58,143" />
<polygon fill="#eaf6f6" fill-opacity="0.501961" points="271,173 238,135 242,223" />
<polygon fill="#66aec3" fill-opacity="0.501961" points="155,33 176,75 133,33" />
<polygon fill="#001935" fill-opacity="0.501961" points="128,59 120,62 126,69" />
<polygon fill="#0a95ae" fill-opacity="0.501961" points="230,250 238,240 253,238" />
<polygon fill="#50727d" fill-opacity="0.501961" points="26,148 69,201 32,180" />
<polygon fill="#0a3a52" fill-opacity="0.501961" points="115,112 209,122 151,81" />
<polygon fill="#4e6369" fill-opacity="0.501961" points="65,221 -16,219 8,197" />
<polygon fill="#031927" fill-opacity="0.501961" points="62,73 67,134 101,46" />
<polygon fill="#737b5f" fill-opacity="0.501961" points="131,82 120,95 97,80" />
<polygon fill="#003642" fill-opacity="0.501961" points="204,187 211,196 184,190" />
<polygon fill="#bfc5bc" fill-opacity="0.501961" points="-16,251 -16,235 37,262" />
<polygon fill="#ffe2c3" fill-opacity="0.501961" points="161,190 154,201 168,204" />
<polygon fill="#b0c0c3" fill-opacity="0.501961" points="160,47 213,71 271,54" />
<polygon fill="#c0feff" fill-opacity="0.501961" points="165,171 189,156 204,163" />
<polygon fill="#f7f5eb" fill-opacity="0.501961" points="129,61 141,70 129,73" />
<polygon fill="#123e59" fill-opacity="0.501961" points="133,175 182,160 202,117" />
<polygon fill="#013042" fill-opacity="0.501961" points="134,187 108,210 63,183" />
<polygon fill="#e5f1f1" fill-opacity="0.501961" points="165,237 271,175 238,224" />
<polygon fill="#5b6f6b" fill-opacity="0.501961" points="136,148 129,175 170,143" />
<polygon fill="#a2b0b2" fill-opacity="0.501961" points="50,126 9,101 -6,154" />
<polygon fill="#119dad" fill-opacity="0.501961" points="195,176 193,165 211,161" />
<polygon fill="#94a08f" fill-opacity="0.501961" points="212,101 193,111 188,95" />
<polygon fill="#c8d5d9" fill-opacity="0.501961" points="219,81 271,56 201,140" />
<polygon fill="#005975" fill-opacity="0.501961" points="235,78 244,78 226,87" />
<polygon fill="#74858b" fill-opacity="0.501961" points="-16,71 94,36 43,82" />
<polygon fill="#ebf7f7" fill-opacity="0.501961" points="190,212 187,200 229,190" />
<polygon fill="#9eadb1" fill-opacity="0.501961" points="67,63 47,112 7,88" />
<polygon fill="#123742" fill-opacity="0.501961" points="65,145 64,160 10,151" />
<polygon fill="#35bbdf" fill-opacity="0.501961" points="231,229 255,219 268,199" />
<polygon fill="#c1cfcc" fill-opacity="0.501961" points="117,24 103,30 101,63" />
<polygon fill="#003652" fill-opacity="0.501961" points="-3,72 10,82 2,85" />
<polygon fill="#5c757c" fill-opacity="0.501961" points="243,48 271,-8 264,57" />
<polygon fill="#002333" fill-opacity="0.501961" points="17,248 -10,229 -4,242" />
<polygon fill="#49606a" fill-opacity="0.501961" points="1,43 52,59 118,21" />
<polygon fill="#a2b4b4" fill-opacity="0.501961" points="178,230 155,224 198,212" />
<polygon fill="#0b1f2a" fill-opacity="0.501961" points="75,227 62,214 95,215" />
<polygon fill="#011c35" fill-opacity="0.501961" points="131,146 89,159 127,175" />
<polygon fill="#3a899b" fill-opacity="0.501961" points="187,52 195,62 192,70" />
<polygon fill="#8d9ea1" fill-opacity="0.501961" points="12,242 46,216 108,243" />
<polygon fill="#1e6480" fill-opacity="0.501961" points="172,98 152,98 133,46" />
<polygon fill="#007f8c" fill-opacity="0.501961" points="234,150 218,165 211,161" />
<polygon fill="#1e3442" fill-opacity="0.501961" points="271,14 242,-16 141,2" />
<polygon fill="#d2c3b8" fill-opacity="0.501961" points="106,213 96,204 78,211" />
<polygon fill="#00334e" fill-opacity="0.501961" points="213,241 228,235 220,244" />
<polygon fill="#f0f7f3" fill-opacity="0.501961" points="186,49 163,28 129,23" />
<polygon fill="#259bb2" fill-opacity="0.501961" points="204,179 143,199 145,178" />
<polygon fill="#95a073" fill-opacity="0.501961" points="183,62 183,82 170,45" />
<polygon fill="#fff6d7" fill-opacity="0.501961" points="215,86 198,60 183,96" />
<polygon fill="#00374b" fill-opacity="0.501961" points="156,207 130,199 147,190" />
<polygon fill="#0b1d25" fill-opacity="0.501961" points="98,38 68,63 58,96" />
<polygon fill="#87bac5" fill-opacity="0.501961" points="112,224 114,206 128,203" />
<polygon fill="#32a6c9" fill-opacity="0.501961" points="107,171 76,151 66,158" />
<polygon fill="#88938f" fill-opacity="0.501961" points="98,36 98,60 121,73" />
<polygon fill="#6b7e7e" fill-opacity="0.501961" points="130,114 147,118 123,140" />
<polygon fill="#859d9a" fill-opacity="0.501961" points="174,129 165,148 164,126" />
<polygon fill="#e2f1ee" fill-opacity="0.501961" points="167,224 156,225 158,210" />
<polygon fill="#dfeceb" fill-opacity="0.501961" points="219,151 271,105 259,152" />
<polygon fill="#003143" fill-opacity="0.501961" points="79,166 76,201 36,160" />
<polygon fill="#d9d8ce" fill-opacity="0.501961" points="58,112 64,127 44,117" />
<polygon fill="#a9dfe4" fill-opacity="0.501961" points="222,182 210,180 239,164" />
<polygon fill="#00426b" fill-opacity="0.501961" points="223,73 210,77 214,79" />
<polygon fill="#0f3041" fill-opacity="0.501961" points="133,90 193,135 105,101" />
<polygon fill="#7199a3" fill-opacity="0.501961" points="50,183 63,187 64,195" />
<polygon fill="#ffffff" fill-opacity="0.501961" points="147,44 133,41 148,61" />
<polygon fill="#315a6a" fill-opacity="0.501961" points="205,147 199,141 219,145" />
<polygon fill="#95a9aa" fill-opacity="0.501961" points="252,186 230,194 250,179" />
<polygon fill="#005271" fill-opacity="0.501961" points="0,104 -16,124 8,108" />
<polygon fill="#3d6973" fill-opacity="0.501961" points="211,138 216,128 211,128" />
<polygon fill="#e6ffff" fill-opacity="0.501961" points="255,166 224,160 235,155" />
<polygon fill="#4b91ab" fill-opacity="0.501961" points="183,85 141,75 151,51" />
<polygon fill="#a7b9a9" fill-opacity="0.501961" points="210,80 209,118 203,101" />
<polygon fill="#ebfafb" fill-opacity="0.501961" points="194,207 180,194 194,194" />
<polygon fill="#487382" fill-opacity="0.501961" points="88,202 79,215 43,198" />
<polygon fill="#dfe8ea" fill-opacity="0.501961" points="238,97 215,98 203,141" />
<polygon fill="#20717c" fill-opacity="0.501961" points="212,173 203,169 187,191" />
<polygon fill="#061623" fill-opacity="0.501961" points="15,160 1,189 72,222" />
<polygon fill="#152e37" fill-opacity="0.501961" points="222,191 221,185 209,190" />
<polygon fill="#89d0cc" fill-opacity="0.501961" points="192,175 180,190 172,188" />
<polygon fill="#00354e" fill-opacity="0.501961" points="4,91 17,104 -15,89" />
<polygon fill="#acc4c1" fill-opacity="0.501961" points="154,121 165,131 143,120" />
<polygon fill="#bccbcc" fill-opacity="0.501961" points="235,271 93,248 186,232" />
<polygon fill="#0a5e73" fill-opacity="0.501961" points="59,172 78,169 61,131" />
<polygon fill="#2c403c" fill-opacity="0.501961" points="168,135 137,130 140,163" />
<polygon fill="#0a1d2e" fill-opacity="0.501961" points="84,157 134,150 59,111" />
<polygon fill="#f1f9f7" fill-opacity="0.501961" points="187,44 199,55 181,50" />
<polygon fill="#565237" fill-opacity="0.501961" points="96,107 96,60 118,80" />
<polygon fill="#1e414e" fill-opacity="0.501961" points="34,138 41,136 36,130" />
<polygon fill="#dee8dd" fill-opacity="0.501961" points="154,38 163,36 168,48" />
<polygon fill="#317e96" fill-opacity="0.501961" points="109,46 137,42 133,33" />
<polygon fill="#aababc" fill-opacity="0.501961" points="24,118 57,118 -7,97" />
<polygon fill="#819298" fill-opacity="0.501961" points="263,31 181,38 202,54" />
<polygon fill="#adc7c5" fill-opacity="0.501961" points="212,81 264,78 238,67" />
<polygon fill="#769298" fill-opacity="0.501961" points="132,211 142,209 136,227" />
<polygon fill="#006991" fill-opacity="0.501961" points="250,255 256,258 271,243" />
<polygon fill="#004058" fill-opacity="0.501961" points="64,248 18,266 47,271" />
<polygon fill="#d4dfdc" fill-opacity="0.501961" points="208,262 242,239 196,254" />
<polygon fill="#2f93ac" fill-opacity="0.501961" points="223,245 252,222 228,228" />
<polygon fill="#e9ebe6" fill-opacity="0.501961" points="127,202 150,219 137,202" />
<polygon fill="#37c0ca" fill-opacity="0.501961" points="198,189 180,178 213,186" />
<polygon fill="#6bd7e2" fill-opacity="0.501961" points="200,148 196,156 213,147" />
<polygon fill="#fe7936" fill-opacity="0.501961" points="156,200 169,201 162,198" />
<polygon fill="#d6e5e5" fill-opacity="0.501961" points="271,76 216,133 271,131" />
<polygon fill="#739799" fill-opacity="0.501961" points="236,181 241,176 220,174" />
<polygon fill="#253a2e" fill-opacity="0.501961" points="99,65 117,84 135,80" />
<polygon fill="#d9d7cf" fill-opacity="0.501961" points="124,70 114,60 112,65" />
<polygon fill="#21566b" fill-opacity="0.501961" points="203,104 199,137 168,166" />
<polygon fill="#394f56" fill-opacity="0.501961" points="150,203 165,218 182,215" />
<polygon fill="#e4f3f0" fill-opacity="0.501961" points="128,48 137,58 132,58" />
<polygon fill="#082e39" fill-opacity="0.501961" points="197,194 217,189 205,196" />
<polygon fill="#e9fffd" fill-opacity="0.501961" points="153,209 160,213 144,213" />
<polygon fill="#73cee6" fill-opacity="0.501961" points="204,239 239,222 225,235" />
<polygon fill="#206980" fill-opacity="0.501961" points="116,49 119,38 110,40" />
<polygon fill="#a8b7b9" fill-opacity="0.501961" points="65,234 33,252 118,244" />
<polygon fill="#061b23" fill-opacity="0.501961" points="62,201 78,196 70,182" />
<polygon fill="#5e727a" fill-opacity="0.501961" points="38,155 24,170 37,173" />
<polygon fill="#6d7f7d" fill-opacity="0.501961" points="241,165 235,164 242,169" />
<polygon fill="#49626d" fill-opacity="0.501961" points="14,148 -16,175 -13,201" />
<polygon fill="#1cadcd" fill-opacity="0.501961" points="242,240 271,231 267,223" />
<polygon fill="#73dff1" fill-opacity="0.501961" points="159,172 170,169 160,186" />
<polygon fill="#5e9498" fill-opacity="0.501961" points="176,54 172,42 166,42" />
<polygon fill="#253c49" fill-opacity="0.501961" points="17,16 91,30 163,-5" />
<polygon fill="#39828c" fill-opacity="0.501961" points="233,165 221,154 221,167" />
<polygon fill="#2e89b8" fill-opacity="0.501961" points="104,172 135,175 106,181" />
<polygon fill="#79bac1" fill-opacity="0.501961" points="189,205 182,215 176,200" />
<polygon fill="#8c9ea3" fill-opacity="0.501961" points="1,74 56,98 62,67" />
<polygon fill="#75e6f6" fill-opacity="0.501961" points="187,175 180,162 205,176" />
<polygon fill="#dce5e4" fill-opacity="0.501961" points="114,25 140,24 108,37" />
</g>
</svg>