<svg xmlns="http://www.w3.org/2000/svg" version="1.1" width="1024" height="768">
<rect x="0" y="0" width="1024" height="768" fill="#f9f2e8" />
<g transform="scale(4.000000) translate(0.5 0.5)">
<polygon fill="#f39605" fill-opacity="0.501961" points="207,113 180,166 109,138" />
<polygon fill="#f49b10" fill-opacity="0.501961" points="66,58 133,79 214,55" />
<polygon fill="#ffffff" fill-opacity="0.501961" points="6,207 109,-16 -16,1" />
<polygon fill="#f2c988" fill-opacity="0.501961" points="89,141 149,170 205,95" />
<polygon fill="#ffffff" fill-opacity="0.501961" points="184,-15 243,207 271,3" />
<polygon fill="#f6af3f" fill-opacity="0.501961" points="203,41 200,63 136,73" />
<polygon fill="#f6faff" fill-opacity="0.501961" points="165,70 38,207 -16,83" />
<polygon fill="#f4a72d" fill-opacity="0.501961" points="89,79 96,50 73,58" />
<polygon fill="#ffffff" fill-opacity="0.501961" points="128,207 271,71 271,195" />
<polygon fill="#faa21b" fill-opacity="0.501961" points="162,123 200,141 156,156" />
<polygon fill="#f0e2cc" fill-opacity="0.501961" points="104,166 57,122 204,95" />
<polygon fill="#f8feff" fill-opacity="0.501961" points="132,60 271,-1 -16,0" />
<polygon fill="#ffffff" fill-opacity="0.501961" points="1,196 198,196 -13,127" />
<polygon fill="#edf0f3" fill-opacity="0.501961" points="203,72 211,121 112,72" />
<polygon fill="#ffffff" fill-opacity="0.501961" points="228,207 193,-9 271,6" />
<polygon fill="#f7b44a" fill-opacity="0.501961" points="163,71 127,57 82,70" />
<polygon fill="#f8a422" fill-opacity="0.501961" points="173,141 192,151 201,116" />
<polygon fill="#ffffff" fill-opacity="0.501961" points="-16,7 17,207 65,-16" />
<polygon fill="#f6c67c" fill-opacity="0.501961" points="163,149 180,111 208,100" />
<polygon fill="#ffffff" fill-opacity="0.501961" points="248,108 271,190 131,194" />
<polygon fill="#eceef4" fill-opacity="0.501961" points="131,-2 153,57 102,58" />
<polygon fill="#f1f2f4" fill-opacity="0.501961" points="191,63 216,52 209,154" />
<polygon fill="#f6aa33" fill-opacity="0.501961" points="174,55 204,54 198,45" />
<polygon fill="#ebecef" fill-opacity="0.501961" points="42,129 102,2 42,69" />
<polygon fill="#f6d39d" fill-opacity="0.501961" points="123,167 122,127 172,105" />
<polygon fill="#ffffff" fill-opacity="0.501961" points="258,87 271,1 126,-13" />
<polygon fill="#f2d5ab" fill-opacity="0.501961" points="192,136 177,162 145,174" />
<polygon fill="#eef0f1" fill-opacity="0.501961" points="196,73 51,144 45,72" />
<polygon fill="#fb9500" fill-opacity="0.501961" points="184,131 188,151 172,142" />
<polygon fill="#f8b858" fill-opacity="0.501961" points="184,148 144,135 135,149" />
<polygon fill="#f7ba5b" fill-opacity="0.501961" points="98,64 143,72 177,54" />
<polygon fill="#ffffff" fill-opacity="0.501961" points="111,198 -9,77 -13,203" />
<polygon fill="#ece8e3" fill-opacity="0.501961" points="125,183 58,155 176,165" />
<polygon fill="#f8b958" fill-opacity="0.501961" points="92,52 88,77 74,60" />
<polygon fill="#ffffff" fill-opacity="0.501961" points="260,42 176,174 256,207" />
<polygon fill="#f4ddba" fill-opacity="0.501961" points="206,102 185,132 194,91" />
<polygon fill="#f2e7d8" fill-opacity="0.501961" points="158,141 155,146 168,142" />
<polygon fill="#f4d7aa" fill-opacity="0.501961" points="169,164 126,141 138,167" />
<polygon fill="#eeeff2" fill-opacity="0.501961" points="95,12 76,57 181,14" />
<polygon fill="#f6c06d" fill-opacity="0.501961" points="196,144 176,118 189,110" />
<polygon fill="#f6be65" fill-opacity="0.501961" points="172,69 198,61 195,42" />
<polygon fill="#f7bb5e" fill-opacity="0.501961" points="92,56 137,61 84,72" />
<polygon fill="#ffffff" fill-opacity="0.501961" points="116,-3 -16,97 0,-2" />
<polygon fill="#f2f4f7" fill-opacity="0.501961" points="215,53 208,101 169,75" />
<polygon fill="#f5c780" fill-opacity="0.501961" points="166,164 189,151 186,142" />
<polygon fill="#fb9400" fill-opacity="0.501961" points="183,145 178,133 172,149" />
<polygon fill="#eeeff2" fill-opacity="0.501961" points="123,58 199,39 158,12" />
<polygon fill="#f3e8d7" fill-opacity="0.501961" points="99,133 104,114 125,145" />
<polygon fill="#f1efec" fill-opacity="0.501961" points="91,69 165,111 76,120" />
<polygon fill="#efe9e2" fill-opacity="0.501961" points="190,137 211,129 205,137" />
<polygon fill="#f3d8b0" fill-opacity="0.501961" points="171,142 171,164 179,167" />
<polygon fill="#f2e9d9" fill-opacity="0.501961" points="131,102 95,124 141,125" />
<polygon fill="#ffffff" fill-opacity="0.501961" points="157,-16 271,-5 234,91" />
<polygon fill="#f5e7d5" fill-opacity="0.501961" points="160,123 156,135 149,135" />
<polygon fill="#ffffff" fill-opacity="0.501961" points="165,189 -15,159 8,207" />
<polygon fill="#f1f3f5" fill-opacity="0.501961" points="158,57 186,35 108,57" />
<polygon fill="#f1f1f0" fill-opacity="0.501961" points="91,176 68,21 53,143" />
<polygon fill="#f9aa32" fill-opacity="0.501961" points="194,118 201,126 191,136" />
<polygon fill="#faae3b" fill-opacity="0.501961" points="177,122 161,126 157,137" />
<polygon fill="#f3e4cd" fill-opacity="0.501961" points="178,127 152,103 166,107" />
<polygon fill="#ffffff" fill-opacity="0.501961" points="228,23 172,-16 83,2" />
<polygon fill="#f9b44b" fill-opacity="0.501961" points="156,146 138,143 144,153" />
<polygon fill="#f4e9d8" fill-opacity="0.501961" points="176,93 207,112 195,117" />
<polygon fill="#f2e9dc" fill-opacity="0.501961" points="167,175 165,158 149,163" />
<polygon fill="#faad39" fill-opacity="0.501961" points="165,156 156,159 155,150" />
<polygon fill="#f0e9dd" fill-opacity="0.501961" points="170,175 181,162 184,145" />
<polygon fill="#f3e6d5" fill-opacity="0.501961" points="159,163 146,154 152,152" />
<polygon fill="#f5d199" fill-opacity="0.501961" points="145,113 158,123 132,130" />
<polygon fill="#efebe6" fill-opacity="0.501961" points="211,82 214,116 196,148" />
<polygon fill="#f8bf67" fill-opacity="0.501961" points="179,154 170,155 170,163" />
<polygon fill="#f7b959" fill-opacity="0.501961" points="191,50 200,49 196,40" />
<polygon fill="#f7bf67" fill-opacity="0.501961" points="171,69 124,73 179,52" />
<polygon fill="#ffffff" fill-opacity="0.501961" points="67,-16 6,202 -16,-2" />
<polygon fill="#f5d09a" fill-opacity="0.501961" points="172,139 183,125 178,122" />
<polygon fill="#f7bd62" fill-opacity="0.501961" points="89,53 76,65 109,72" />
<polygon fill="#f4e5ce" fill-opacity="0.501961" points="173,122 155,118 185,87" />
<polygon fill="#f0f1f1" fill-opacity="0.501961" points="49,54 80,19 135,46" />
<polygon fill="#f7ab34" fill-opacity="0.501961" points="189,150 180,147 186,153" />
<polygon fill="#eff2f7" fill-opacity="0.501961" points="169,27 183,50 191,46" />
<polygon fill="#f1efec" fill-opacity="0.501961" points="135,143 142,154 137,150" />
<polygon fill="#f5d6a7" fill-opacity="0.501961" points="140,166 148,167 158,145" />
<polygon fill="#f2e0c5" fill-opacity="0.501961" points="190,124 188,131 181,131" />
<polygon fill="#ebe4dc" fill-opacity="0.501961" points="193,156 177,162 204,137" />
<polygon fill="#f3e9da" fill-opacity="0.501961" points="135,105 142,136 121,103" />
<polygon fill="#f9ad38" fill-opacity="0.501961" points="177,129 171,124 167,141" />
<polygon fill="#fa9600" fill-opacity="0.501961" points="187,130 185,143 176,136" />
<polygon fill="#f6be66" fill-opacity="0.501961" points="179,112 190,109 177,127" />
<polygon fill="#ffffff" fill-opacity="0.501961" points="271,206 128,207 252,104" />
<polygon fill="#f2ebe0" fill-opacity="0.501961" points="71,130 152,173 78,157" />
<polygon fill="#ffffff" fill-opacity="0.501961" points="34,81 -16,109 67,198" />
<polygon fill="#f2f2f2" fill-opacity="0.501961" points="126,73 154,112 185,71" />
<polygon fill="#f7b040" fill-opacity="0.501961" points="190,139 196,136 193,146" />
<polygon fill="#f6cf95" fill-opacity="0.501961" points="141,135 117,134 135,126" />
<polygon fill="#f5bc61" fill-opacity="0.501961" points="202,57 202,49 196,43" />
<polygon fill="#f7bc61" fill-opacity="0.501961" points="93,60 130,71 158,58" />
<polygon fill="#f1f2f2" fill-opacity="0.501961" points="188,71 207,52 217,105" />
<polygon fill="#f3ddbb" fill-opacity="0.501961" points="187,129 175,126 177,131" />
<polygon fill="#f5d4a3" fill-opacity="0.501961" points="119,154 130,135 146,164" />
<polygon fill="#f2efea" fill-opacity="0.501961" points="180,110 163,89 204,87" />
<polygon fill="#f4ddba" fill-opacity="0.501961" points="190,107 202,115 200,93" />
<polygon fill="#ffffff" fill-opacity="0.501961" points="271,30 175,-7 213,68" />
<polygon fill="#f2ece3" fill-opacity="0.501961" points="125,143 127,146 136,144" />
<polygon fill="#f4dfbe" fill-opacity="0.501961" points="162,101 156,131 176,106" />
<polygon fill="#f9ac38" fill-opacity="0.501961" points="191,123 202,126 198,117" />
<polygon fill="#f8b754" fill-opacity="0.501961" points="140,151 141,138 155,137" />
<polygon fill="#f2f2f3" fill-opacity="0.501961" points="113,103 58,47 37,94" />
<polygon fill="#ffffff" fill-opacity="0.501961" points="1,30 175,-3 2,-16" />
<polygon fill="#f6bf69" fill-opacity="0.501961" points="181,129 175,125 188,126" />
<polygon fill="#f9b145" fill-opacity="0.501961" points="157,159 162,144 167,154" />
<polygon fill="#f2e9d9" fill-opacity="0.501961" points="146,98 117,134 76,135" />
<polygon fill="#f3dec1" fill-opacity="0.501961" points="167,142 173,148 171,140" />
<polygon fill="#f2f2f2" fill-opacity="0.501961" points="115,58 180,51 137,4" />
<polygon fill="#f2f2f3" fill-opacity="0.501961" points="173,101 114,78 180,68" />
<polygon fill="#f0f1f3" fill-opacity="0.501961" points="129,184 81,172 44,123" />
<polygon fill="#ffffff" fill-opacity="0.501961" points="271,141 196,178 233,40" />
<polygon fill="#f3eadb" fill-opacity="0.501961" points="103,161 135,160 135,175" />
<polygon fill="#f3ece0" fill-opacity="0.501961" points="178,97 192,112 186,80" />
<polygon fill="#f6c26f" fill-opacity="0.501961" points="185,110 191,117 178,130" />
<polygon fill="#f8b248" fill-opacity="0.501961" points="155,158 172,142 161,144" />
<polygon fill="#f2e7d5" fill-opacity="0.501961" points="160,123 153,109 174,122" />
<polygon fill="#fa9700" fill-opacity="0.501961" points="175,148 174,138 180,148" />
<polygon fill="#f7bc61" fill-opacity="0.501961" points="79,65 93,53 95,70" />
<polygon fill="#f5d7a8" fill-opacity="0.501961" points="141,123 145,115 160,141" />
<polygon fill="#f9af3d" fill-opacity="0.501961" points="191,148 183,151 191,141" />
<polygon fill="#f1ebe3" fill-opacity="0.501961" points="196,139 196,147 204,132" />
<polygon fill="#f5d299" fill-opacity="0.501961" points="154,132 159,122 152,112" />
<polygon fill="#f8af3d" fill-opacity="0.501961" points="162,124 158,133 162,138" />
<polygon fill="#f1f2f3" fill-opacity="0.501961" points="94,56 124,5 116,55" />
<polygon fill="#f1f3f5" fill-opacity="0.501961" points="148,167 102,181 154,181" />
<polygon fill="#f5d097" fill-opacity="0.501961" points="174,159 168,155 184,146" />
<polygon fill="#f2ede6" fill-opacity="0.501961" points="164,97 138,88 153,114" />
<polygon fill="#ffffff" fill-opacity="0.501961" points="36,155 142,193 -16,194" />
<polygon fill="#f7bd62" fill-opacity="0.501961" points="87,69 96,51 74,59" />
<polygon fill="#f7bd61" fill-opacity="0.501961" points="147,59 194,61 171,69" />
<polygon fill="#eeeae3" fill-opacity="0.501961" points="157,177 160,166 185,162" />
<polygon fill="#f2f1f1" fill-opacity="0.501961" points="192,64 207,57 209,117" />
<polygon fill="#f2f3f4" fill-opacity="0.501961" points="91,72 74,104 151,75" />
<polygon fill="#f5e2c7" fill-opacity="0.501961" points="149,164 168,157 155,171" />
<polygon fill="#f1f2f2" fill-opacity="0.501961" points="147,9 193,44 140,57" />
<polygon fill="#f3ece1" fill-opacity="0.501961" points="93,120 108,166 66,140" />
<polygon fill="#ffffff" fill-opacity="0.501961" points="165,9 271,44 196,40" />
<polygon fill="#f3ece3" fill-opacity="0.501961" points="133,167 140,156 125,169" />
<polygon fill="#f5dcb3" fill-opacity="0.501961" points="118,152 105,151 104,134" />
<polygon fill="#f5cf96" fill-opacity="0.501961" points="189,135 188,143 191,142" />
<polygon fill="#f7c272" fill-opacity="0.501961" points="166,164 179,155 174,151" />
<polygon fill="#f2efea" fill-opacity="0.501961" points="147,133 154,135 144,135" />
<polygon fill="#f8b041" fill-opacity="0.501961" points="200,116 199,130 191,125" />
<polygon fill="#f8b34a" fill-opacity="0.501961" points="153,155 160,144 170,143" />
<polygon fill="#f3e0c6" fill-opacity="0.501961" points="174,150 171,144 170,153" />
<polygon fill="#f1f2f3" fill-opacity="0.501961" points="46,69 53,51 100,46" />
<polygon fill="#f5ce93" fill-opacity="0.501961" points="119,134 133,127 123,126" />
<polygon fill="#f3e5d2" fill-opacity="0.501961" points="102,115 117,114 117,139" />
<polygon fill="#fa9c05" fill-opacity="0.501961" points="186,140 181,147 176,136" />
<polygon fill="#f7ba5b" fill-opacity="0.501961" points="139,141 154,144 151,152" />
<polygon fill="#f8b348" fill-opacity="0.501961" points="167,124 173,134 153,136" />
<polygon fill="#f7bc60" fill-opacity="0.501961" points="91,56 84,74 106,58" />
<polygon fill="#f3e4cb" fill-opacity="0.501961" points="198,106 191,119 199,114" />
<polygon fill="#f2ece1" fill-opacity="0.501961" points="110,119 140,117 136,126" />
<polygon fill="#ffffff" fill-opacity="0.501961" points="0,-16 -16,135 90,1" />
<polygon fill="#fa9b05" fill-opacity="0.501961" points="173,148 174,141 182,148" />
<polygon fill="#f1f2f3" fill-opacity="0.501961" points="146,57 175,21 184,50" />
<polygon fill="#f4d199" fill-opacity="0.501961" points="120,154 125,161 139,150" />
<polygon fill="#f8b249" fill-opacity="0.501961" points="172,144 162,156 171,150" />
<polygon fill="#f2e2ca" fill-opacity="0.501961" points="185,128 188,128 190,133" />
<polygon fill="#ffffff" fill-opacity="0.501961" points="80,191 233,207 174,176" />
<polygon fill="#f2e2c8" fill-opacity="0.501961" points="182,154 178,161 186,157" />
<polygon fill="#f1f2f2" fill-opacity="0.501961" points="176,69 205,60 158,104" />
<polygon fill="#f4eee5" fill-opacity="0.501961" points="202,109 204,131 211,101" />
<polygon fill="#ffffff" fill-opacity="0.501961" points="42,129 -16,194 88,184" />
<polygon fill="#f3e7d5" fill-opacity="0.501961" points="105,165 118,168 119,151" />
<polygon fill="#ffffff" fill-opacity="0.501961" points="226,132 194,-16 271,58" />
<polygon fill="#f6bc60" fill-opacity="0.501961" points="78,63 89,63 88,77" />
<polygon fill="#f3f1ee" fill-opacity="0.501961" points="97,124 73,118 91,71" />
<polygon fill="#f4d4a3" fill-opacity="0.501961" points="176,153 181,155 187,142" />
<polygon fill="#f6d49f" fill-opacity="0.501961" points="145,134 138,125 158,121" />
<polygon fill="#f2f0ee" fill-opacity="0.501961" points="131,100 157,112 144,114" />
<polygon fill="#f6c476" fill-opacity="0.501961" points="181,155 180,150 172,162" />
<polygon fill="#ffffff" fill-opacity="0.501961" points="271,-5 209,31 109,-5" />
<polygon fill="#f7b958" fill-opacity="0.501961" points="158,143 151,150 154,137" />
<polygon fill="#f8ab35" fill-opacity="0.501961" points="189,132 191,125 194,135" />
<polygon fill="#f3ede3" fill-opacity="0.501961" points="178,89 185,108 176,109" />
<polygon fill="#f7bd63" fill-opacity="0.501961" points="159,59 80,58 123,72" />
<polygon fill="#f7bd63" fill-opacity="0.501961" points="144,59 182,67 193,51" />
<polygon fill="#f7bd63" fill-opacity="0.501961" points="121,60 75,59 83,72" />
<polygon fill="#f7b95a" fill-opacity="0.501961" points="145,152 144,137 153,136" />
<polygon fill="#f3e0c4" fill-opacity="0.501961" points="156,147 149,156 153,156" />
<polygon fill="#f5d19a" fill-opacity="0.501961" points="143,115 138,126 152,114" />
<polygon fill="#f2f1f1" fill-opacity="0.501961" points="142,8 162,56 173,20" />
<polygon fill="#f4e0bf" fill-opacity="0.501961" points="171,121 171,100 158,112" />
<polygon fill="#f1f1f1" fill-opacity="0.501961" points="167,24 111,9 70,27" />
<polygon fill="#fa9d0b" fill-opacity="0.501961" points="186,130 177,133 182,135" />
<polygon fill="#f2f2f3" fill-opacity="0.501961" points="65,78 116,115 137,73" />
<polygon fill="#f2f2f2" fill-opacity="0.501961" points="51,53 74,164 44,121" />
<polygon fill="#f3eadb" fill-opacity="0.501961" points="107,128 84,122 93,158" />
<polygon fill="#f7bb5e" fill-opacity="0.501961" points="143,138 137,145 153,151" />
<polygon fill="#f5d5a4" fill-opacity="0.501961" points="139,168 151,163 147,154" />
<polygon fill="#f3ddbb" fill-opacity="0.501961" points="147,129 153,131 158,138" />
<polygon fill="#f1e8db" fill-opacity="0.501961" points="205,130 208,118 196,135" />
<polygon fill="#f6c57b" fill-opacity="0.501961" points="187,130 183,114 177,114" />
<polygon fill="#f9b143" fill-opacity="0.501961" points="161,141 175,133 158,137" />
<polygon fill="#ffffff" fill-opacity="0.501961" points="139,196 254,207 261,104" />
<polygon fill="#f2f2f2" fill-opacity="0.501961" points="122,58 149,56 91,17" />
<polygon fill="#f8af41" fill-opacity="0.501961" points="196,132 201,119 196,121" />
<polygon fill="#f7bd63" fill-opacity="0.501961" points="119,60 153,63 124,73" />
<polygon fill="#f1e6d5" fill-opacity="0.501961" points="176,127 178,130 173,138" />
<polygon fill="#f4dfc0" fill-opacity="0.501961" points="144,133 136,137 132,149" />
<polygon fill="#f8b144" fill-opacity="0.501961" points="168,132 174,134 176,127" />
<polygon fill="#f2f2f1" fill-opacity="0.501961" points="98,158 98,178 131,182" />
<polygon fill="#f1f2f7" fill-opacity="0.501961" points="181,148 177,150 178,148" />
<polygon fill="#f4e0c0" fill-opacity="0.501961" points="202,117 190,105 201,95" />
<polygon fill="#f7bb60" fill-opacity="0.501961" points="145,147 146,153 141,153" />
<polygon fill="#f8b349" fill-opacity="0.501961" points="156,133 166,141 174,122" />
<polygon fill="#f5d4a1" fill-opacity="0.501961" points="153,134 156,117 145,134" />
<polygon fill="#f6bf6b" fill-opacity="0.501961" points="190,115 187,124 191,118" />
<polygon fill="#f2efe9" fill-opacity="0.501961" points="155,161 139,182 134,177" />
<polygon fill="#f2f2f1" fill-opacity="0.501961" points="42,112 154,80 41,75" />
<polygon fill="#f2e8d9" fill-opacity="0.501961" points="176,165 168,169 181,155" />
<polygon fill="#f4e1c6" fill-opacity="0.501961" points="164,113 178,128 166,104" />
<polygon fill="#f8b245" fill-opacity="0.501961" points="161,125 173,124 177,132" />
<polygon fill="#f8b54f" fill-opacity="0.501961" points="159,146 153,154 165,154" />
<polygon fill="#f6d199" fill-opacity="0.501961" points="134,143 130,135 140,134" />
<polygon fill="#f7be64" fill-opacity="0.501961" points="194,45 203,51 200,59" />
<polygon fill="#f7b042" fill-opacity="0.501961" points="194,142 190,143 187,153" />
<polygon fill="#ffffff" fill-opacity="0.501961" points="237,99 200,-16 201,46" />
<polygon fill="#f8b247" fill-opacity="0.501961" points="164,123 171,123 163,137" />
<polygon fill="#f2f3f3" fill-opacity="0.501961" points="190,97 206,50 216,88" />
<polygon fill="#f3ebdf" fill-opacity="0.501961" points="193,96 176,112 177,86" />
<polygon fill="#f6c273" fill-opacity="0.501961" points="188,110 175,121 179,111" />
<polygon fill="#ffffff" fill-opacity="0.501961" points="38,13 -16,182 41,154" />
<polygon fill="#f2f2f2" fill-opacity="0.501961" points="88,53 57,41 87,18" />
<polygon fill="#f9af3d" fill-opacity="0.501961" points="191,142 185,151 183,149" />
<polygon fill="#f8b141" fill-opacity="0.501961" points="192,139 186,144 193,146" />
<polygon fill="#f8b245" fill-opacity="0.501961" points="168,133 176,131 169,137" />
<polygon fill="#f3f0eb" fill-opacity="0.501961" points="79,105 64,116 90,174" />
<polygon fill="#ffffff" fill-opacity="0.501961" points="-7,-2 66,26 154,-13" />
<polygon fill="#f3e1c6" fill-opacity="0.501961" points="181,155 174,166 189,155" />
<polygon fill="#f3e9d9" fill-opacity="0.501961" points="82,129 117,136 120,121" />
<polygon fill="#f3ece1" fill-opacity="0.501961" points="186,96 175,118 180,92" />
<polygon fill="#f5d29c" fill-opacity="0.501961" points="121,153 137,153 128,145" />
<polygon fill="#f7b95c" fill-opacity="0.501961" points="158,142 152,142 152,151" />
<polygon fill="#f2f0ec" fill-opacity="0.501961" points="201,114 208,125 210,88" />
<polygon fill="#fa9c0b" fill-opacity="0.501961" points="176,136 183,141 173,147" />
<polygon fill="#f2f2f2" fill-opacity="0.501961" points="76,65 58,41 43,68" />
<polygon fill="#f7bc61" fill-opacity="0.501961" points="109,59 105,71 86,68" />
<polygon fill="#f4e1c2" fill-opacity="0.501961" points="159,109 162,124 175,109" />
<polygon fill="#f2d9b6" fill-opacity="0.501961" points="190,123 189,122 192,121" />
<polygon fill="#f0ece5" fill-opacity="0.501961" points="195,149 185,159 183,155" />
<polygon fill="#f8b248" fill-opacity="0.501961" points="172,149 164,158 170,146" />
<polygon fill="#f3e7d5" fill-opacity="0.501961" points="124,145 100,123 105,114" />
<polygon fill="#f5d6a7" fill-opacity="0.501961" points="148,167 133,159 152,161" />
<polygon fill="#f6c476" fill-opacity="0.501961" points="189,116 175,123 185,129" />
<polygon fill="#f3ddbc" fill-opacity="0.501961" points="188,136 193,138 189,135" />
<polygon fill="#f2e9db" fill-opacity="0.501961" points="196,142 201,126 207,127" />
<polygon fill="#ffffff" fill-opacity="0.501961" points="163,-16 75,8 168,8" />
<polygon fill="#f3ede5" fill-opacity="0.501961" points="137,123 141,93 157,89" />
<polygon fill="#f2f2f2" fill-opacity="0.501961" points="166,71 215,103 204,64" />
<polygon fill="#f1f2f2" fill-opacity="0.501961" points="65,111 58,148 74,163" />
<polygon fill="#f5ddb6" fill-opacity="0.501961" points="116,151 108,136 118,139" />
<polygon fill="#f5d39f" fill-opacity="0.501961" points="134,161 133,145 124,145" />
<polygon fill="#fa9b07" fill-opacity="0.501961" points="188,137 181,135 174,149" />
<polygon fill="#f2f2f2" fill-opacity="0.501961" points="121,7 159,12 78,56" />
<polygon fill="#f3f0eb" fill-opacity="0.501961" points="133,161 150,181 138,176" />
<polygon fill="#f4e1c6" fill-opacity="0.501961" points="158,159 149,169 161,170" />
<polygon fill="#f8af40" fill-opacity="0.501961" points="189,129 201,123 192,121" />
<polygon fill="#fcfbf9" fill-opacity="0.501961" points="213,135 215,141 195,135" />
<polygon fill="#f1e8db" fill-opacity="0.501961" points="202,130 197,139 202,140" />
<polygon fill="#f1ebe3" fill-opacity="0.501961" points="199,115 194,117 191,115" />
<polygon fill="#ffffff" fill-opacity="0.501961" points="-16,157 66,173 32,95" />
<polygon fill="#ffffff" fill-opacity="0.501961" points="224,109 199,142 251,134" />
<polygon fill="#f1f0ef" fill-opacity="0.501961" points="163,175 174,163 142,178" />
<polygon fill="#f2f2f2" fill-opacity="0.501961" points="126,73 136,104 50,98" />
<polygon fill="#ffffff" fill-opacity="0.501961" points="56,207 43,150 112,186" />
<polygon fill="#f2f0ee" fill-opacity="0.501961" points="121,125 132,125 119,121" />
<polygon fill="#f0f1f2" fill-opacity="0.501961" points="194,40 188,48 176,22" />
<polygon fill="#f2f2f2" fill-opacity="0.501961" points="123,74 103,113 90,71" />
<polygon fill="#f2e9d9" fill-opacity="0.501961" points="96,157 118,168 118,152" />
<polygon fill="#ffffff" fill-opacity="0.501961" points="271,1 197,30 223,95" />
<polygon fill="#f2e6d6" fill-opacity="0.501961" points="154,161 153,155 159,164" />
<polygon fill="#f2eade" fill-opacity="0.501961" points="120,147 122,143 128,144" />
<polygon fill="#f6d39e" fill-opacity="0.501961" points="131,144 123,143 122,126" />
<polygon fill="#f8b348" fill-opacity="0.501961" points="161,142 159,130 174,131" />
<polygon fill="#f3e9dc" fill-opacity="0.501961" points="165,168 165,158 159,158" />
<polygon fill="#f1f2f4" fill-opacity="0.501961" points="160,84 171,100 157,102" />
<polygon fill="#f4e3ca" fill-opacity="0.501961" points="160,170 158,164 171,153" />
<polygon fill="#f7bc61" fill-opacity="0.501961" points="191,47 195,60 189,64" />
<polygon fill="#f2f0ec" fill-opacity="0.501961" points="100,96 63,118 98,124" />
<polygon fill="#f2ebe1" fill-opacity="0.501961" points="139,135 148,135 141,133" />
<polygon fill="#f5d6a7" fill-opacity="0.501961" points="137,160 151,156 155,160" />
<polygon fill="#fb9500" fill-opacity="0.501961" points="187,136 186,133 187,134" />
<polygon fill="#f2e3cc" fill-opacity="0.501961" points="152,155 149,152 139,154" />
<polygon fill="#f7bd62" fill-opacity="0.501961" points="166,69 127,72 196,47" />
<polygon fill="#ffffff" fill-opacity="0.501961" points="-5,38 30,66 99,3" />
<polygon fill="#f2f1ef" fill-opacity="0.501961" points="102,159 114,180 72,163" />
<polygon fill="#f5d39f" fill-opacity="0.501961" points="139,135 120,136 122,127" />
<polygon fill="#f7bb5e" fill-opacity="0.501961" points="137,144 149,152 152,139" />
<polygon fill="#f4e1c2" fill-opacity="0.501961" points="178,111 162,105 155,113" />
<polygon fill="#f6c57a" fill-opacity="0.501961" points="170,155 177,155 165,159" />
<polygon fill="#f2eae0" fill-opacity="0.501961" points="188,127 187,129 189,132" />
<polygon fill="#f4e0c0" fill-opacity="0.501961" points="203,99 189,111 195,96" />
<polygon fill="#f3e6d4" fill-opacity="0.501961" points="105,134 129,122 101,117" />
</g>
</svg>