<svg xmlns="http://www.w3.org/2000/svg" version="1.1" width="1024" height="1024">
<rect x="0" y="0" width="1024" height="1024" fill="#5e737f" />
<g transform="scale(4.000000) translate(0.5 0.5)">
<polygon fill="#93c0e5" fill-opacity="0.501961" points="253,-16 -16,113 107,191" />
<polygon fill="#281b06" fill-opacity="0.501961" points="-15,187 208,253 -6,271" />
<polygon fill="#c37300" fill-opacity="0.501961" points="42,54 184,-16 -16,-12" />
<polygon fill="#0a0200" fill-opacity="0.501961" points="266,42 257,111 192,-16" />
<polygon fill="#293f5c" fill-opacity="0.501961" points="261,77 72,270 271,201" />
<polygon fill="#e5d899" fill-opacity="0.501961" points="-16,89 4,-16 70,52" />
<polygon fill="#091c31" fill-opacity="0.501961" points="57,-16 83,57 177,14" />
<polygon fill="#ffffff" fill-opacity="0.501961" points="205,12 212,48 152,-16" />
<polygon fill="#3c6ca5" fill-opacity="0.501961" points="159,-3 271,108 94,271" />
<polygon fill="#000018" fill-opacity="0.501961" points="6,110 75,53 -9,91" />
<polygon fill="#ddcaa2" fill-opacity="0.501961" points="208,209 200,271 250,216" />
<polygon fill="#170b07" fill-opacity="0.501961" points="45,54 -14,65 27,37" />
<polygon fill="#3f2c03" fill-opacity="0.501961" points="209,190 148,229 199,271" />
<polygon fill="#a0c3d5" fill-opacity="0.501961" points="128,41 5,101 97,152" />
<polygon fill="#ffffea" fill-opacity="0.501961" points="259,20 249,30 215,-7" />
<polygon fill="#583a0b" fill-opacity="0.501961" points="196,205 271,137 263,219" />
<polygon fill="#000000" fill-opacity="0.501961" points="53,191 66,158 25,211" />
<polygon fill="#fffff7" fill-opacity="0.501961" points="226,36 162,-16 203,41" />
<polygon fill="#844a00" fill-opacity="0.501961" points="81,40 118,-16 15,17" />
<polygon fill="#a8b1ad" fill-opacity="0.501961" points="49,157 -16,111 25,189" />
<polygon fill="#ebe8d1" fill-opacity="0.501961" points="44,226 72,222 79,234" />
<polygon fill="#517ca4" fill-opacity="0.501961" points="242,62 100,237 51,184" />
<polygon fill="#000000" fill-opacity="0.501961" points="255,18 229,-9 266,0" />
<polygon fill="#4699df" fill-opacity="0.501961" points="100,43 52,49 139,12" />
<polygon fill="#ffe626" fill-opacity="0.501961" points="52,46 6,5 27,-16" />
<polygon fill="#47310c" fill-opacity="0.501961" points="27,160 -13,214 -12,157" />
<polygon fill="#f9f2e1" fill-opacity="0.501961" points="0,52 21,42 16,-16" />
<polygon fill="#000000" fill-opacity="0.501961" points="21,227 8,266 61,208" />
<polygon fill="#000825" fill-opacity="0.501961" points="88,59 45,69 121,27" />
<polygon fill="#c8d4d8" fill-opacity="0.501961" points="34,37 26,72 -16,92" />
<polygon fill="#8aaabe" fill-opacity="0.501961" points="140,158 178,68 85,55" />
<polygon fill="#ffffc9" fill-opacity="0.501961" points="144,231 159,245 143,239" />
<polygon fill="#234472" fill-opacity="0.501961" points="197,79 223,31 271,175" />
<polygon fill="#0c4081" fill-opacity="0.501961" points="157,-14 97,61 178,20" />
<polygon fill="#88ccff" fill-opacity="0.501961" points="50,46 16,76 93,39" />
<polygon fill="#edbf7d" fill-opacity="0.501961" points="45,196 27,218 49,208" />
<polygon fill="#422800" fill-opacity="0.501961" points="208,18 225,6 177,-16" />
<polygon fill="#9c957c" fill-opacity="0.501961" points="228,267 191,204 270,221" />
<polygon fill="#e9b200" fill-opacity="0.501961" points="87,33 53,46 43,28" />
<polygon fill="#000906" fill-opacity="0.501961" points="205,224 178,226 192,270" />
<polygon fill="#1d1604" fill-opacity="0.501961" points="45,59 -16,58 18,49" />
<polygon fill="#39709e" fill-opacity="0.501961" points="114,152 84,112 138,130" />
<polygon fill="#000103" fill-opacity="0.501961" points="59,129 43,135 44,124" />
<polygon fill="#131814" fill-opacity="0.501961" points="271,21 209,49 234,62" />
<polygon fill="#bebaa1" fill-opacity="0.501961" points="38,232 32,250 51,224" />
<polygon fill="#231b04" fill-opacity="0.501961" points="33,185 13,223 -5,204" />
<polygon fill="#ffffff" fill-opacity="0.501961" points="31,182 20,187 39,168" />
<polygon fill="#8da4b1" fill-opacity="0.501961" points="214,85 154,100 207,111" />
<polygon fill="#27568c" fill-opacity="0.501961" points="221,122 124,245 230,172" />
<polygon fill="#00091a" fill-opacity="0.501961" points="87,231 124,265 76,270" />
<polygon fill="#406d9c" fill-opacity="0.501961" points="169,86 244,90 175,9" />
<polygon fill="#06080f" fill-opacity="0.501961" points="161,21 162,7 123,31" />
<polygon fill="#000e0f" fill-opacity="0.501961" points="50,71 -16,94 6,102" />
<polygon fill="#fcf9ef" fill-opacity="0.501961" points="210,44 150,-16 188,-6" />
<polygon fill="#a8c3d1" fill-opacity="0.501961" points="17,139 155,63 44,86" />
<polygon fill="#010c07" fill-opacity="0.501961" points="67,208 29,220 88,218" />
<polygon fill="#c3d4d4" fill-opacity="0.501961" points="175,44 151,45 164,32" />
<polygon fill="#45769f" fill-opacity="0.501961" points="66,153 49,210 134,182" />
<polygon fill="#000000" fill-opacity="0.501961" points="4,37 -16,44 -15,-2" />
<polygon fill="#c59554" fill-opacity="0.501961" points="-6,205 24,167 22,185" />
<polygon fill="#4e88b9" fill-opacity="0.501961" points="152,28 64,68 161,58" />
<polygon fill="#011f35" fill-opacity="0.501961" points="91,52 42,80 66,52" />
<polygon fill="#387dbb" fill-opacity="0.501961" points="106,36 130,10 164,1" />
<polygon fill="#5e3b04" fill-opacity="0.501961" points="30,17 84,-16 99,31" />
<polygon fill="#6e95b1" fill-opacity="0.501961" points="24,168 -16,87 78,161" />
<polygon fill="#c39b5f" fill-opacity="0.501961" points="39,190 25,199 19,219" />
<polygon fill="#132b3d" fill-opacity="0.501961" points="29,166 39,145 21,164" />
<polygon fill="#c4c8c4" fill-opacity="0.501961" points="103,152 72,156 85,124" />
<polygon fill="#d18e00" fill-opacity="0.501961" points="83,-16 31,-16 25,22" />
<polygon fill="#dcba86" fill-opacity="0.501961" points="39,34 26,61 5,70" />
<polygon fill="#a4a291" fill-opacity="0.501961" points="80,246 56,220 77,223" />
<polygon fill="#d6aa67" fill-opacity="0.501961" points="11,146 7,167 -3,127" />
<polygon fill="#000000" fill-opacity="0.501961" points="65,229 48,232 42,247" />
<polygon fill="#ebd6a6" fill-opacity="0.501961" points="126,245 124,254 134,243" />
<polygon fill="#492a10" fill-opacity="0.501961" points="35,32 14,57 27,26" />
<polygon fill="#1e487f" fill-opacity="0.501961" points="109,263 125,235 72,202" />
<polygon fill="#21395b" fill-opacity="0.501961" points="253,58 271,155 237,165" />
<polygon fill="#0a1c2f" fill-opacity="0.501961" points="78,60 113,27 158,17" />
<polygon fill="#16150c" fill-opacity="0.501961" points="42,47 21,54 41,56" />
<polygon fill="#bfc2b8" fill-opacity="0.501961" points="208,207 228,214 209,243" />
<polygon fill="#65634f" fill-opacity="0.501961" points="266,209 236,223 253,271" />
<polygon fill="#76a0bc" fill-opacity="0.501961" points="36,192 93,61 101,112" />
<polygon fill="#a89e85" fill-opacity="0.501961" points="215,19 221,14 235,28" />
<polygon fill="#dbcbb3" fill-opacity="0.501961" points="-8,-5 12,1 11,50" />
<polygon fill="#63878e" fill-opacity="0.501961" points="165,221 172,207 179,241" />
<polygon fill="#c0c1b9" fill-opacity="0.501961" points="148,132 124,139 141,149" />
<polygon fill="#3b2f18" fill-opacity="0.501961" points="254,217 271,188 209,207" />
<polygon fill="#4f3e23" fill-opacity="0.501961" points="250,30 199,-16 207,13" />
<polygon fill="#efdecb" fill-opacity="0.501961" points="250,24 221,4 220,-16" />
<polygon fill="#4479a6" fill-opacity="0.501961" points="70,170 94,221 44,196" />
<polygon fill="#f6d837" fill-opacity="0.501961" points="14,20 58,-13 7,-16" />
<polygon fill="#160c00" fill-opacity="0.501961" points="230,-5 261,20 271,-6" />
<polygon fill="#e5dccb" fill-opacity="0.501961" points="223,33 182,-6 210,43" />
<polygon fill="#ffffff" fill-opacity="0.501961" points="30,43 28,49 23,48" />
<polygon fill="#7d5f3c" fill-opacity="0.501961" points="11,241 34,212 -9,234" />
<polygon fill="#fdd4a1" fill-opacity="0.501961" points="155,245 149,232 141,235" />
<polygon fill="#48320f" fill-opacity="0.501961" points="119,271 179,264 139,236" />
<polygon fill="#645b45" fill-opacity="0.501961" points="122,15 179,-11 94,-7" />
<polygon fill="#3c6896" fill-opacity="0.501961" points="219,105 123,130 172,135" />
<polygon fill="#8e663d" fill-opacity="0.501961" points="16,13 0,13 22,20" />
<polygon fill="#000700" fill-opacity="0.501961" points="45,198 34,200 56,175" />
<polygon fill="#95cbf1" fill-opacity="0.501961" points="17,65 -11,87 51,61" />
<polygon fill="#95917c" fill-opacity="0.501961" points="241,185 236,190 229,165" />
<polygon fill="#222921" fill-opacity="0.501961" points="208,15 249,69 262,55" />
<polygon fill="#42709f" fill-opacity="0.501961" points="196,33 234,76 146,58" />
<polygon fill="#afc0c9" fill-opacity="0.501961" points="134,65 167,98 156,73" />
<polygon fill="#675132" fill-opacity="0.501961" points="187,270 149,231 168,219" />
<polygon fill="#5e7f9f" fill-opacity="0.501961" points="196,124 196,181 150,128" />
<polygon fill="#4d85b3" fill-opacity="0.501961" points="121,108 117,84 141,75" />
<polygon fill="#76725e" fill-opacity="0.501961" points="35,271 69,267 31,236" />
<polygon fill="#557b96" fill-opacity="0.501961" points="0,103 43,81 4,117" />
<polygon fill="#306eab" fill-opacity="0.501961" points="65,61 85,44 35,65" />
<polygon fill="#040f09" fill-opacity="0.501961" points="15,242 21,271 39,216" />
<polygon fill="#fffcee" fill-opacity="0.501961" points="25,191 40,168 24,182" />
<polygon fill="#ffda7e" fill-opacity="0.501961" points="215,147 204,147 212,150" />
<polygon fill="#396c9c" fill-opacity="0.501961" points="154,86 130,104 148,105" />
<polygon fill="#316293" fill-opacity="0.501961" points="182,124 182,74 165,120" />
<polygon fill="#8a9daa" fill-opacity="0.501961" points="111,223 94,205 108,194" />
<polygon fill="#416e98" fill-opacity="0.501961" points="167,161 109,138 101,157" />
<polygon fill="#867253" fill-opacity="0.501961" points="205,231 206,196 190,205" />
<polygon fill="#788fa0" fill-opacity="0.501961" points="166,156 154,181 131,165" />
<polygon fill="#0e150f" fill-opacity="0.501961" points="67,213 67,222 87,223" />
<polygon fill="#c7b78f" fill-opacity="0.501961" points="10,168 17,169 7,178" />
<polygon fill="#110700" fill-opacity="0.501961" points="-10,205 4,149 -11,169" />
<polygon fill="#373f3f" fill-opacity="0.501961" points="259,159 244,170 197,148" />
<polygon fill="#edf1f3" fill-opacity="0.501961" points="21,32 -9,47 15,45" />
<polygon fill="#000703" fill-opacity="0.501961" points="0,190 8,176 5,171" />
<polygon fill="#2b5483" fill-opacity="0.501961" points="154,182 123,178 158,223" />
<polygon fill="#94907a" fill-opacity="0.501961" points="217,201 225,203 209,188" />
<polygon fill="#0b1512" fill-opacity="0.501961" points="63,173 65,161 48,179" />
<polygon fill="#dcb38f" fill-opacity="0.501961" points="61,44 41,43 45,52" />
<polygon fill="#668da9" fill-opacity="0.501961" points="57,124 96,180 70,190" />
<polygon fill="#302c1b" fill-opacity="0.501961" points="22,188 5,201 34,197" />
<polygon fill="#051e30" fill-opacity="0.501961" points="41,176 33,182 43,166" />
<polygon fill="#bc9a69" fill-opacity="0.501961" points="40,188 23,210 33,185" />
<polygon fill="#90a7b3" fill-opacity="0.501961" points="165,114 123,116 174,87" />
<polygon fill="#ffffcd" fill-opacity="0.501961" points="34,30 25,22 43,31" />
<polygon fill="#b6b4a3" fill-opacity="0.501961" points="47,228 58,220 79,230" />
<polygon fill="#a7dbf6" fill-opacity="0.501961" points="51,61 67,47 28,64" />
<polygon fill="#262415" fill-opacity="0.501961" points="159,242 147,249 173,255" />
<polygon fill="#2a2817" fill-opacity="0.501961" points="48,241 77,255 32,247" />
<polygon fill="#a36c0b" fill-opacity="0.501961" points="26,20 48,30 52,-6" />
<polygon fill="#34577e" fill-opacity="0.501961" points="94,180 129,237 149,229" />
<polygon fill="#6e96b7" fill-opacity="0.501961" points="172,16 164,24 199,41" />
<polygon fill="#859baf" fill-opacity="0.501961" points="208,109 224,118 213,127" />
<polygon fill="#f0c107" fill-opacity="0.501961" points="74,39 32,30 49,42" />
<polygon fill="#b8c9d0" fill-opacity="0.501961" points="112,112 124,111 94,84" />
<polygon fill="#000000" fill-opacity="0.501961" points="77,231 75,229 84,223" />
<polygon fill="#6796b9" fill-opacity="0.501961" points="32,173 24,163 62,137" />
<polygon fill="#dbc497" fill-opacity="0.501961" points="152,247 149,243 155,237" />
<polygon fill="#aec2cb" fill-opacity="0.501961" points="15,120 80,107 53,78" />
<polygon fill="#041112" fill-opacity="0.501961" points="24,41 -6,63 19,54" />
<polygon fill="#ad7843" fill-opacity="0.501961" points="41,38 30,41 17,17" />
<polygon fill="#3e361f" fill-opacity="0.501961" points="199,231 172,200 172,215" />
<polygon fill="#5c84a9" fill-opacity="0.501961" points="235,64 205,61 231,76" />
<polygon fill="#634e32" fill-opacity="0.501961" points="150,269 177,271 123,228" />
<polygon fill="#3e3a27" fill-opacity="0.501961" points="51,220 89,271 71,271" />
<polygon fill="#30362e" fill-opacity="0.501961" points="102,23 116,16 90,-16" />
<polygon fill="#e0edf3" fill-opacity="0.501961" points="42,168 32,174 43,160" />
<polygon fill="#000000" fill-opacity="0.501961" points="29,216 34,205 24,214" />
<polygon fill="#8dabbe" fill-opacity="0.501961" points="20,160 43,142 22,100" />
<polygon fill="#726b56" fill-opacity="0.501961" points="85,227 47,248 69,247" />
<polygon fill="#754903" fill-opacity="0.501961" points="84,35 103,18 42,27" />
<polygon fill="#a2b3be" fill-opacity="0.501961" points="187,90 196,105 206,96" />
<polygon fill="#cec4b7" fill-opacity="0.501961" points="230,-2 251,15 252,32" />
<polygon fill="#2e5e99" fill-opacity="0.501961" points="168,16 115,42 174,31" />
<polygon fill="#526b85" fill-opacity="0.501961" points="271,81 223,104 237,115" />
<polygon fill="#adc0c6" fill-opacity="0.501961" points="131,40 146,44 137,50" />
<polygon fill="#355e8d" fill-opacity="0.501961" points="178,144 210,190 206,144" />
<polygon fill="#e8eae5" fill-opacity="0.501961" points="22,27 -2,24 17,33" />
<polygon fill="#13150f" fill-opacity="0.501961" points="201,8 170,-16 190,-16" />
<polygon fill="#4083b9" fill-opacity="0.501961" points="84,38 129,15 114,32" />
<polygon fill="#585c54" fill-opacity="0.501961" points="246,220 219,220 263,233" />
<polygon fill="#b29870" fill-opacity="0.501961" points="21,169 9,198 31,175" />
<polygon fill="#3d729f" fill-opacity="0.501961" points="127,51 172,72 192,52" />
<polygon fill="#2d261d" fill-opacity="0.501961" points="12,176 9,180 23,178" />
<polygon fill="#1e437c" fill-opacity="0.501961" points="212,146 254,159 262,138" />
<polygon fill="#888e83" fill-opacity="0.501961" points="230,225 192,269 255,231" />
<polygon fill="#d9af77" fill-opacity="0.501961" points="1,74 26,57 -16,67" />
<polygon fill="#d3d8d1" fill-opacity="0.501961" points="225,23 214,17 223,26" />
<polygon fill="#30342a" fill-opacity="0.501961" points="270,62 236,49 222,19" />
<polygon fill="#8c7d61" fill-opacity="0.501961" points="120,8 89,-16 151,-15" />
<polygon fill="#091a23" fill-opacity="0.501961" points="256,88 244,62 246,88" />
<polygon fill="#fcffa8" fill-opacity="0.501961" points="11,0 15,10 26,15" />
<polygon fill="#827e67" fill-opacity="0.501961" points="235,201 225,186 211,180" />
<polygon fill="#061115" fill-opacity="0.501961" points="235,41 213,53 241,55" />
<polygon fill="#160d02" fill-opacity="0.501961" points="122,11 142,-15 138,-1" />
<polygon fill="#5e748a" fill-opacity="0.501961" points="212,135 247,145 236,125" />
<polygon fill="#7f7053" fill-opacity="0.501961" points="-16,232 -16,215 12,202" />
<polygon fill="#768d9f" fill-opacity="0.501961" points="141,206 108,194 123,185" />
<polygon fill="#2277a1" fill-opacity="0.501961" points="186,248 178,244 173,227" />
<polygon fill="#000006" fill-opacity="0.501961" points="2,59 6,54 2,51" />
<polygon fill="#1a180f" fill-opacity="0.501961" points="9,161 6,170 16,162" />
<polygon fill="#c9b68d" fill-opacity="0.501961" points="18,156 7,161 8,144" />
<polygon fill="#354449" fill-opacity="0.501961" points="32,62 39,58 14,42" />
<polygon fill="#17150c" fill-opacity="0.501961" points="14,41 14,39 12,41" />
<polygon fill="#000000" fill-opacity="0.501961" points="-8,28 5,34 -16,51" />
<polygon fill="#121d1e" fill-opacity="0.501961" points="57,60 41,78 81,56" />
<polygon fill="#82816e" fill-opacity="0.501961" points="-16,213 10,161 -16,171" />
<polygon fill="#386490" fill-opacity="0.501961" points="120,236 83,219 69,184" />
<polygon fill="#6e5227" fill-opacity="0.501961" points="130,244 108,271 110,256" />
<polygon fill="#658fb1" fill-opacity="0.501961" points="143,120 101,112 85,133" />
<polygon fill="#a2bbc7" fill-opacity="0.501961" points="169,49 161,30 152,44" />
<polygon fill="#0d160d" fill-opacity="0.501961" points="90,262 84,222 94,239" />
<polygon fill="#aab9bc" fill-opacity="0.501961" points="105,134 75,156 97,159" />
<polygon fill="#fac526" fill-opacity="0.501961" points="28,20 34,26 47,23" />
<polygon fill="#514f3c" fill-opacity="0.501961" points="258,267 224,247 254,255" />
<polygon fill="#5082af" fill-opacity="0.501961" points="2,86 32,72 13,75" />
<polygon fill="#f5f5f1" fill-opacity="0.501961" points="183,5 210,46 216,34" />
<polygon fill="#000000" fill-opacity="0.501961" points="133,248 127,254 146,271" />
<polygon fill="#3e331b" fill-opacity="0.501961" points="30,196 24,194 38,174" />
<polygon fill="#1e4377" fill-opacity="0.501961" points="251,60 222,65 214,54" />
<polygon fill="#20251d" fill-opacity="0.501961" points="200,10 209,11 220,28" />
<polygon fill="#999e90" fill-opacity="0.501961" points="270,84 265,96 252,63" />
<polygon fill="#c3d2d9" fill-opacity="0.501961" points="102,86 132,72 120,67" />
<polygon fill="#383321" fill-opacity="0.501961" points="265,46 246,48 223,7" />
<polygon fill="#354a6c" fill-opacity="0.501961" points="210,56 227,31 212,43" />
<polygon fill="#315e8e" fill-opacity="0.501961" points="220,180 246,135 159,208" />
<polygon fill="#0a130d" fill-opacity="0.501961" points="56,222 53,209 36,218" />
<polygon fill="#d4e0dd" fill-opacity="0.501961" points="22,55 27,44 34,46" />
<polygon fill="#787665" fill-opacity="0.501961" points="77,257 74,246 85,235" />
<polygon fill="#8bb0ca" fill-opacity="0.501961" points="121,127 52,76 86,60" />
<polygon fill="#28558c" fill-opacity="0.501961" points="174,122 221,104 197,123" />
<polygon fill="#7d98ab" fill-opacity="0.501961" points="20,104 -16,110 27,156" />
<polygon fill="#2c5e9f" fill-opacity="0.501961" points="152,-16 193,30 167,15" />
<polygon fill="#4a4b3c" fill-opacity="0.501961" points="244,155 241,187 227,158" />
<polygon fill="#57442c" fill-opacity="0.501961" points="19,271 3,210 -14,271" />
<polygon fill="#ffffff" fill-opacity="0.501961" points="-16,11 12,20 -9,19" />
<polygon fill="#86a7be" fill-opacity="0.501961" points="156,62 124,60 176,88" />
<polygon fill="#8d989a" fill-opacity="0.501961" points="226,25 222,15 233,28" />
<polygon fill="#9da194" fill-opacity="0.501961" points="81,228 69,239 83,232" />
<polygon fill="#426990" fill-opacity="0.501961" points="96,201 92,167 120,186" />
<polygon fill="#a09d8b" fill-opacity="0.501961" points="48,223 34,238 55,227" />
<polygon fill="#7e96a2" fill-opacity="0.501961" points="103,179 110,154 126,171" />
<polygon fill="#d1dae6" fill-opacity="0.501961" points="17,41 6,45 4,53" />
<polygon fill="#0d171c" fill-opacity="0.501961" points="107,43 120,30 145,26" />
<polygon fill="#1d241f" fill-opacity="0.501961" points="77,247 69,253 73,233" />
<polygon fill="#4882b2" fill-opacity="0.501961" points="60,71 51,84 26,88" />
<polygon fill="#8a8879" fill-opacity="0.501961" points="40,257 29,271 40,241" />
<polygon fill="#0d181b" fill-opacity="0.501961" points="32,157 38,148 20,162" />
<polygon fill="#5c8cb2" fill-opacity="0.501961" points="62,158 53,145 35,185" />
<polygon fill="#433d2d" fill-opacity="0.501961" points="202,207 223,206 203,185" />
<polygon fill="#1c1d0b" fill-opacity="0.501961" points="23,213 39,193 41,201" />
<polygon fill="#a2a297" fill-opacity="0.501961" points="215,218 236,214 251,224" />
<polygon fill="#b0b2a4" fill-opacity="0.501961" points="243,237 211,211 206,228" />
<polygon fill="#262319" fill-opacity="0.501961" points="214,14 224,22 219,11" />
<polygon fill="#7196af" fill-opacity="0.501961" points="60,165 30,159 65,120" />
<polygon fill="#4d7aa0" fill-opacity="0.501961" points="82,197 75,155 42,201" />
<polygon fill="#497da8" fill-opacity="0.501961" points="152,88 152,79 125,79" />
<polygon fill="#6484a2" fill-opacity="0.501961" points="178,77 211,72 196,57" />
<polygon fill="#322816" fill-opacity="0.501961" points="30,60 45,50 38,45" />
<polygon fill="#708ba4" fill-opacity="0.501961" points="199,131 167,156 181,125" />
<polygon fill="#464232" fill-opacity="0.501961" points="153,238 171,226 185,259" />
<polygon fill="#3d6996" fill-opacity="0.501961" points="168,140 146,127 174,189" />
<polygon fill="#141c18" fill-opacity="0.501961" points="199,217 184,226 185,271" />
<polygon fill="#8aa7ba" fill-opacity="0.501961" points="159,138 158,126 166,133" />
<polygon fill="#899492" fill-opacity="0.501961" points="204,8 192,-6 193,-16" />
<polygon fill="#413926" fill-opacity="0.501961" points="-10,134 -9,140 8,140" />
<polygon fill="#2a322e" fill-opacity="0.501961" points="17,38 25,39 22,41" />
<polygon fill="#ac7d09" fill-opacity="0.501961" points="57,30 69,42 89,29" />
<polygon fill="#dbdbce" fill-opacity="0.501961" points="11,32 3,38 27,39" />
<polygon fill="#213a48" fill-opacity="0.501961" points="52,127 41,132 58,133" />
<polygon fill="#375d8b" fill-opacity="0.501961" points="221,109 190,65 245,77" />
<polygon fill="#ccb181" fill-opacity="0.501961" points="38,208 48,204 52,209" />
<polygon fill="#6a6d5c" fill-opacity="0.501961" points="27,190 18,196 17,204" />
<polygon fill="#26281c" fill-opacity="0.501961" points="111,12 138,-10 131,-16" />
<polygon fill="#1e2322" fill-opacity="0.501961" points="-16,187 -11,198 12,198" />
<polygon fill="#f6f7ef" fill-opacity="0.501961" points="20,32 15,18 14,44" />
<polygon fill="#4b371f" fill-opacity="0.501961" points="250,195 269,223 213,180" />
<polygon fill="#85704b" fill-opacity="0.501961" points="19,59 29,49 5,62" />
<polygon fill="#1e221c" fill-opacity="0.501961" points="256,69 248,38 267,6" />
<polygon fill="#7c7e6c" fill-opacity="0.501961" points="12,27 10,22 6,23" />
<polygon fill="#928f7a" fill-opacity="0.501961" points="205,181 214,194 203,185" />
<polygon fill="#73a4c4" fill-opacity="0.501961" points="87,88 91,58 126,53" />
<polygon fill="#275c95" fill-opacity="0.501961" points="92,58 104,47 84,57" />
<polygon fill="#5a4332" fill-opacity="0.501961" points="28,31 25,41 22,25" />
<polygon fill="#585b55" fill-opacity="0.501961" points="243,190 271,191 243,161" />
<polygon fill="#a2b7c2" fill-opacity="0.501961" points="128,86 129,96 142,88" />
<polygon fill="#c5b99e" fill-opacity="0.501961" points="15,180 29,185 21,188" />
<polygon fill="#191a12" fill-opacity="0.501961" points="7,188 12,177 -3,195" />
<polygon fill="#6d5a3e" fill-opacity="0.501961" points="167,229 171,213 146,240" />
<polygon fill="#dfe2e0" fill-opacity="0.501961" points="15,46 -11,38 -2,50" />
<polygon fill="#070b08" fill-opacity="0.501961" points="12,201 20,196 20,190" />
<polygon fill="#988f73" fill-opacity="0.501961" points="17,165 4,186 9,168" />
<polygon fill="#818376" fill-opacity="0.501961" points="245,255 229,270 204,242" />
<polygon fill="#1f3c59" fill-opacity="0.501961" points="7,104 -2,101 26,89" />
<polygon fill="#5d4016" fill-opacity="0.501961" points="47,1 89,21 58,28" />
<polygon fill="#72a4bb" fill-opacity="0.501961" points="95,35 78,47 62,45" />
<polygon fill="#5280aa" fill-opacity="0.501961" points="156,98 116,98 136,111" />
<polygon fill="#bbc8cb" fill-opacity="0.501961" points="81,133 73,148 83,156" />
<polygon fill="#9e8e6d" fill-opacity="0.501961" points="97,261 53,266 47,252" />
<polygon fill="#4d7ca3" fill-opacity="0.501961" points="111,130 136,132 93,172" />
<polygon fill="#1a1e19" fill-opacity="0.501961" points="0,167 8,171 6,179" />
<polygon fill="#605a42" fill-opacity="0.501961" points="193,208 187,216 179,199" />
<polygon fill="#285485" fill-opacity="0.501961" points="139,238 187,183 127,223" />
<polygon fill="#13150f" fill-opacity="0.501961" points="7,50 4,62 11,53" />
<polygon fill="#010e09" fill-opacity="0.501961" points="70,234 48,232 57,229" />
<polygon fill="#7399b2" fill-opacity="0.501961" points="41,164 47,131 77,135" />
<polygon fill="#23354f" fill-opacity="0.501961" points="96,24 80,38 109,24" />
<polygon fill="#869fac" fill-opacity="0.501961" points="93,184 85,170 76,181" />
<polygon fill="#888e82" fill-opacity="0.501961" points="247,37 247,42 250,44" />
<polygon fill="#b6cfdc" fill-opacity="0.501961" points="86,95 80,75 69,74" />
<polygon fill="#7f6d4e" fill-opacity="0.501961" points="20,215 31,217 13,235" />
<polygon fill="#b1aea2" fill-opacity="0.501961" points="209,27 211,21 197,9" />
<polygon fill="#213e67" fill-opacity="0.501961" points="105,260 90,232 130,241" />
<polygon fill="#806e4e" fill-opacity="0.501961" points="14,214 5,219 19,205" />
<polygon fill="#b69c73" fill-opacity="0.501961" points="37,185 30,196 33,183" />
<polygon fill="#3f6b94" fill-opacity="0.501961" points="143,148 117,161 131,173" />
<polygon fill="#2d3d43" fill-opacity="0.501961" points="220,27 241,37 226,23" />
<polygon fill="#819aa9" fill-opacity="0.501961" points="234,111 244,104 234,107" />
<polygon fill="#1b3c6e" fill-opacity="0.501961" points="111,36 88,40 70,56" />
<polygon fill="#8a8979" fill-opacity="0.501961" points="105,13 100,14 105,9" />
<polygon fill="#8a9897" fill-opacity="0.501961" points="144,4 126,-10 146,-9" />
<polygon fill="#5f5a5d" fill-opacity="0.501961" points="4,29 -16,36 -16,18" />
<polygon fill="#729ebf" fill-opacity="0.501961" points="63,77 102,114 88,120" />
<polygon fill="#295084" fill-opacity="0.501961" points="196,122 225,151 223,127" />
<polygon fill="#718b9d" fill-opacity="0.501961" points="134,174 150,194 139,164" />
<polygon fill="#6c6f66" fill-opacity="0.501961" points="34,238 29,241 34,251" />
<polygon fill="#132643" fill-opacity="0.501961" points="208,152 229,159 218,150" />
<polygon fill="#101712" fill-opacity="0.501961" points="159,248 155,252 148,244" />
<polygon fill="#d3d1c8" fill-opacity="0.501961" points="221,-16 243,21 200,-16" />
<polygon fill="#010a0b" fill-opacity="0.501961" points="19,208 28,192 21,198" />
<polygon fill="#367eb7" fill-opacity="0.501961" points="120,26 153,7 132,12" />
<polygon fill="#4f8bba" fill-opacity="0.501961" points="41,69 53,58 26,72" />
<polygon fill="#6d91af" fill-opacity="0.501961" points="172,52 162,29 185,46" />
<polygon fill="#ffffff" fill-opacity="0.501961" points="9,49 9,44 12,50" />
<polygon fill="#dfddce" fill-opacity="0.501961" points="23,32 10,36 9,28" />
<polygon fill="#becdd1" fill-opacity="0.501961" points="112,86 91,96 111,94" />
<polygon fill="#aeb1ad" fill-opacity="0.501961" points="219,20 213,18 211,13" />
<polygon fill="#a6b3b6" fill-opacity="0.501961" points="130,148 147,146 138,131" />
<polygon fill="#faf8e7" fill-opacity="0.501961" points="7,16 14,25 4,18" />
<polygon fill="#1a1e14" fill-opacity="0.501961" points="41,245 44,237 60,253" />
<polygon fill="#5f686d" fill-opacity="0.501961" points="252,96 224,84 242,85" />
<polygon fill="#6aa1b6" fill-opacity="0.501961" points="174,220 169,218 175,230" />
<polygon fill="#090e06" fill-opacity="0.501961" points="252,198 264,192 244,194" />
<polygon fill="#1d5593" fill-opacity="0.501961" points="206,191 188,202 196,180" />
<polygon fill="#a3bbc6" fill-opacity="0.501961" points="54,126 90,102 23,118" />
<polygon fill="#d5ba8e" fill-opacity="0.501961" points="-16,140 6,141 -16,175" />
<polygon fill="#3b699e" fill-opacity="0.501961" points="173,55 197,34 214,56" />
<polygon fill="#24416d" fill-opacity="0.501961" points="221,121 257,99 243,128" />
<polygon fill="#ccb08c" fill-opacity="0.501961" points="48,52 28,34 53,44" />
<polygon fill="#502d07" fill-opacity="0.501961" points="91,20 62,28 90,3" />
<polygon fill="#191e16" fill-opacity="0.501961" points="176,228 182,240 205,237" />
<polygon fill="#a8d0e3" fill-opacity="0.501961" points="38,64 10,78 29,60" />
<polygon fill="#161a13" fill-opacity="0.501961" points="20,49 16,43 21,44" />
<polygon fill="#e0c08b" fill-opacity="0.501961" points="29,60 3,72 23,55" />
<polygon fill="#716449" fill-opacity="0.501961" points="239,215 241,210 225,202" />
<polygon fill="#19160c" fill-opacity="0.501961" points="10,226 7,218 19,214" />
<polygon fill="#757267" fill-opacity="0.501961" points="247,13 267,30 271,24" />
<polygon fill="#0f1b19" fill-opacity="0.501961" points="67,237 72,252 66,268" />
<polygon fill="#628ab1" fill-opacity="0.501961" points="211,49 196,42 218,62" />
<polygon fill="#161914" fill-opacity="0.501961" points="15,177 20,165 7,181" />
<polygon fill="#a58c63" fill-opacity="0.501961" points="45,207 28,220 42,198" />
<polygon fill="#afc1cb" fill-opacity="0.501961" points="158,78 150,69 128,71" />
<polygon fill="#556673" fill-opacity="0.501961" points="247,118 255,128 271,99" />
<polygon fill="#777b70" fill-opacity="0.501961" points="66,232 72,243 72,230" />
<polygon fill="#656559" fill-opacity="0.501961" points="242,269 205,249 271,264" />
<polygon fill="#597791" fill-opacity="0.501961" points="192,180 189,170 211,167" />
<polygon fill="#4e412c" fill-opacity="0.501961" points="196,-16 214,15 228,11" />
<polygon fill="#0c150f" fill-opacity="0.501961" points="72,212 47,212 23,233" />
<polygon fill="#d4a308" fill-opacity="0.501961" points="45,3 22,10 53,-16" />
<polygon fill="#04100c" fill-opacity="0.501961" points="228,202 221,203 227,208" />
<polygon fill="#5c8bb1" fill-opacity="0.501961" points="150,68 137,66 159,29" />
<polygon fill="#171d14" fill-opacity="0.501961" points="43,128 45,125 55,131" />
<polygon fill="#312915" fill-opacity="0.501961" points="220,197 213,184 233,202" />
<polygon fill="#cfcdbe" fill-opacity="0.501961" points="209,216 208,209 225,213" />
<polygon fill="#1a3f7c" fill-opacity="0.501961" points="133,18 95,39 117,35" />
<polygon fill="#273539" fill-opacity="0.501961" points="33,178 41,174 45,164" />
<polygon fill="#ecf0f2" fill-opacity="0.501961" points="22,187 27,188 34,174" />
<polygon fill="#fdffff" fill-opacity="0.501961" points="25,45 26,51 28,44" />
<polygon fill="#252113" fill-opacity="0.501961" points="216,26 225,27 211,16" />
<polygon fill="#333c38" fill-opacity="0.501961" points="186,246 183,229 172,217" />
<polygon fill="#85a5bc" fill-opacity="0.501961" points="176,32 186,29 172,22" />
<polygon fill="#747365" fill-opacity="0.501961" points="222,220 210,217 219,222" />
<polygon fill="#605e50" fill-opacity="0.501961" points="32,185 26,186 23,183" />
<polygon fill="#c2a47a" fill-opacity="0.501961" points="-10,4 9,4 22,23" />
<polygon fill="#363a31" fill-opacity="0.501961" points="252,230 241,225 263,227" />
<polygon fill="#0f1a22" fill-opacity="0.501961" points="164,12 164,18 152,17" />
<polygon fill="#aaaca2" fill-opacity="0.501961" points="201,271 219,254 202,250" />
<polygon fill="#ffe360" fill-opacity="0.501961" points="17,16 28,23 21,14" />
<polygon fill="#81a0ba" fill-opacity="0.501961" points="156,-2 155,-13 164,7" />
<polygon fill="#86846a" fill-opacity="0.501961" points="216,186 209,178 216,181" />
<polygon fill="#0e130f" fill-opacity="0.501961" points="3,268 24,244 32,249" />
<polygon fill="#3c424d" fill-opacity="0.501961" points="218,50 216,39 230,31" />
<polygon fill="#97a8aa" fill-opacity="0.501961" points="230,161 229,164 230,167" />
<polygon fill="#7a7e72" fill-opacity="0.501961" points="242,246 242,235 206,237" />
<polygon fill="#0d1512" fill-opacity="0.501961" points="0,101 29,84 -8,93" />
<polygon fill="#a2a69a" fill-opacity="0.501961" points="236,242 214,236 219,218" />
<polygon fill="#715623" fill-opacity="0.501961" points="36,11 68,16 59,28" />
<polygon fill="#091514" fill-opacity="0.501961" points="178,245 193,248 200,271" />
<polygon fill="#346ba2" fill-opacity="0.501961" points="116,43 141,33 125,52" />
<polygon fill="#687d8c" fill-opacity="0.501961" points="106,225 128,219 106,212" />
<polygon fill="#4f4530" fill-opacity="0.501961" points="198,271 202,249 194,238" />
<polygon fill="#6f90aa" fill-opacity="0.501961" points="22,158 33,145 -10,114" />
<polygon fill="#2a588d" fill-opacity="0.501961" points="169,133 174,119 175,142" />
<polygon fill="#899ba2" fill-opacity="0.501961" points="130,203 126,200 118,210" />
<polygon fill="#8baabb" fill-opacity="0.501961" points="43,141 38,122 19,162" />
<polygon fill="#7793ab" fill-opacity="0.501961" points="196,86 211,100 185,88" />
<polygon fill="#ffffff" fill-opacity="0.501961" points="0,53 -16,58 -12,17" />
<polygon fill="#4a779e" fill-opacity="0.501961" points="90,172 80,163 122,148" />
</g>
</svg>