<svg xmlns="http://www.w3.org/2000/svg" version="1.1" width="1024" height="1024">
<rect x="0" y="0" width="1024" height="1024" fill="#5a86b2" />
<g transform="scale(4.491228) translate(0.5 0.5)">
<polygon fill="#b9dbde" fill-opacity="0.501961" points="-7,119 1,195 243,187" />
<polygon fill="#363d39" fill-opacity="0.501961" points="-16,226 243,227 153,177" />
<polygon fill="#ffebe7" fill-opacity="0.501961" points="41,52 168,57 145,18" />
<polygon fill="#0035b3" fill-opacity="0.501961" points="243,0 227,68 89,-12" />
<polygon fill="#6eb7e4" fill-opacity="0.501961" points="241,188 243,92 91,201" />
<polygon fill="#006fcb" fill-opacity="0.501961" points="151,95 243,113 146,158" />
<polygon fill="#0c53b6" fill-opacity="0.501961" points="-16,69 151,-16 -11,-11" />
<polygon fill="#004b9c" fill-opacity="0.501961" points="94,48 153,79 76,109" />
<polygon fill="#d1c2c1" fill-opacity="0.501961" points="132,186 108,109 141,92" />
<polygon fill="#38404a" fill-opacity="0.501961" points="158,208 -16,243 2,198" />
<polygon fill="#ffeee5" fill-opacity="0.501961" points="-8,78 10,52 48,53" />
<polygon fill="#2461a4" fill-opacity="0.501961" points="-16,94 113,116 110,48" />
<polygon fill="#0051ae" fill-opacity="0.501961" points="138,15 223,61 243,-14" />
<polygon fill="#cae7e4" fill-opacity="0.501961" points="239,140 170,190 229,189" />
<polygon fill="#97b3dc" fill-opacity="0.501961" points="243,117 111,50 239,77" />
<polygon fill="#bbe7ea" fill-opacity="0.501961" points="22,151 107,191 -13,189" />
<polygon fill="#4a88af" fill-opacity="0.501961" points="198,204 164,131 120,201" />
<polygon fill="#efe6e5" fill-opacity="0.501961" points="87,30 71,51 139,27" />
<polygon fill="#244456" fill-opacity="0.501961" points="194,191 243,205 188,243" />
<polygon fill="#7597bc" fill-opacity="0.501961" points="213,170 -1,98 61,165" />
<polygon fill="#d2d0d9" fill-opacity="0.501961" points="164,42 137,62 204,50" />
<polygon fill="#0057a4" fill-opacity="0.501961" points="192,95 158,136 151,98" />
<polygon fill="#004ea9" fill-opacity="0.501961" points="243,23 148,47 186,-16" />
<polygon fill="#3571be" fill-opacity="0.501961" points="77,45 -16,59 97,-13" />
<polygon fill="#816f64" fill-opacity="0.501961" points="138,243 205,214 79,217" />
<polygon fill="#4679bc" fill-opacity="0.501961" points="23,-16 111,29 180,6" />
<polygon fill="#539ce4" fill-opacity="0.501961" points="241,85 154,139 243,168" />
<polygon fill="#fffff1" fill-opacity="0.501961" points="6,86 10,78 -16,82" />
<polygon fill="#2260ad" fill-opacity="0.501961" points="180,49 217,63 165,67" />
<polygon fill="#d4cac9" fill-opacity="0.501961" points="135,120 143,91 105,122" />
<polygon fill="#5f82b3" fill-opacity="0.501961" points="86,65 118,34 117,68" />
<polygon fill="#0e59a2" fill-opacity="0.501961" points="26,104 48,103 17,63" />
<polygon fill="#5685b4" fill-opacity="0.501961" points="92,163 67,76 135,149" />
<polygon fill="#8ec2e3" fill-opacity="0.501961" points="217,149 160,166 239,176" />
<polygon fill="#f4e8e1" fill-opacity="0.501961" points="68,45 45,51 45,60" />
<polygon fill="#7bc2f3" fill-opacity="0.501961" points="-16,177 -2,138 49,170" />
<polygon fill="#c8dacf" fill-opacity="0.501961" points="167,191 243,188 198,175" />
<polygon fill="#6c91c3" fill-opacity="0.501961" points="135,96 167,50 192,96" />
<polygon fill="#34779e" fill-opacity="0.501961" points="118,208 182,176 55,201" />
<polygon fill="#7e98bc" fill-opacity="0.501961" points="55,109 131,187 -10,126" />
<polygon fill="#cfcad1" fill-opacity="0.501961" points="110,52 146,38 155,68" />
<polygon fill="#b7c0b9" fill-opacity="0.501961" points="147,181 51,198 86,172" />
<polygon fill="#e1dcdd" fill-opacity="0.501961" points="80,33 117,28 82,58" />
<polygon fill="#185ba1" fill-opacity="0.501961" points="166,72 127,63 81,87" />
<polygon fill="#0055b2" fill-opacity="0.501961" points="148,19 243,26 183,48" />
<polygon fill="#436ca4" fill-opacity="0.501961" points="12,61 86,56 35,87" />
<polygon fill="#2264b3" fill-opacity="0.501961" points="1,-7 77,43 -16,57" />
<polygon fill="#306280" fill-opacity="0.501961" points="80,196 60,217 -16,198" />
<polygon fill="#2b3e4e" fill-opacity="0.501961" points="137,207 98,230 180,208" />
<polygon fill="#2f79a5" fill-opacity="0.501961" points="202,207 154,190 243,195" />
<polygon fill="#e4d9da" fill-opacity="0.501961" points="6,57 17,72 -6,75" />
<polygon fill="#005fa8" fill-opacity="0.501961" points="134,122 195,118 167,104" />
<polygon fill="#216cb7" fill-opacity="0.501961" points="25,120 -16,97 -11,128" />
<polygon fill="#cecad0" fill-opacity="0.501961" points="10,62 51,62 23,51" />
<polygon fill="#3c86b6" fill-opacity="0.501961" points="143,170 153,201 189,171" />
<polygon fill="#304459" fill-opacity="0.501961" points="-13,225 -11,203 51,204" />
<polygon fill="#4a7bbd" fill-opacity="0.501961" points="105,29 155,-16 7,35" />
<polygon fill="#0071c8" fill-opacity="0.501961" points="197,45 243,20 223,68" />
<polygon fill="#496ea5" fill-opacity="0.501961" points="117,48 119,31 112,32" />
<polygon fill="#e8e4e5" fill-opacity="0.501961" points="157,42 174,42 151,57" />
<polygon fill="#b1b1b5" fill-opacity="0.501961" points="144,177 131,147 114,187" />
<polygon fill="#363e49" fill-opacity="0.501961" points="171,232 220,206 243,217" />
<polygon fill="#4a91af" fill-opacity="0.501961" points="72,199 12,195 42,188" />
<polygon fill="#dad8e0" fill-opacity="0.501961" points="126,36 128,22 157,25" />
<polygon fill="#2663a7" fill-opacity="0.501961" points="178,48 210,74 178,65" />
<polygon fill="#9dbde5" fill-opacity="0.501961" points="243,64 229,101 211,75" />
<polygon fill="#86a0c4" fill-opacity="0.501961" points="135,103 166,87 122,89" />
<polygon fill="#1555a2" fill-opacity="0.501961" points="2,-16 92,-7 -16,22" />
<polygon fill="#cfc9cf" fill-opacity="0.501961" points="109,107 121,99 114,111" />
<polygon fill="#b39a79" fill-opacity="0.501961" points="243,220 215,223 242,240" />
<polygon fill="#5f8bb3" fill-opacity="0.501961" points="142,113 129,136 148,174" />
<polygon fill="#c0ddd1" fill-opacity="0.501961" points="13,179 -16,197 58,184" />
<polygon fill="#d7d9e6" fill-opacity="0.501961" points="182,49 194,47 204,57" />
<polygon fill="#4685cf" fill-opacity="0.501961" points="184,72 242,48 241,70" />
<polygon fill="#09599e" fill-opacity="0.501961" points="103,106 119,96 86,69" />
<polygon fill="#2761a1" fill-opacity="0.501961" points="45,59 29,78 69,67" />
<polygon fill="#d2c5cd" fill-opacity="0.501961" points="153,110 144,108 137,95" />
<polygon fill="#7484a8" fill-opacity="0.501961" points="150,49 130,54 136,60" />
<polygon fill="#7e96bc" fill-opacity="0.501961" points="51,84 31,76 50,94" />
<polygon fill="#487bbc" fill-opacity="0.501961" points="75,28 181,-16 154,19" />
<polygon fill="#ccccd1" fill-opacity="0.501961" points="79,35 86,58 115,40" />
<polygon fill="#9aa4be" fill-opacity="0.501961" points="151,52 175,56 166,68" />
<polygon fill="#4d78ae" fill-opacity="0.501961" points="133,96 122,106 112,62" />
<polygon fill="#327bb5" fill-opacity="0.501961" points="138,125 152,151 195,161" />
<polygon fill="#00539b" fill-opacity="0.501961" points="27,100 57,94 30,87" />
<polygon fill="#94a4c0" fill-opacity="0.501961" points="65,131 9,103 49,139" />
<polygon fill="#6285ba" fill-opacity="0.501961" points="154,32 149,43 170,42" />
<polygon fill="#595d62" fill-opacity="0.501961" points="225,208 184,211 176,229" />
<polygon fill="#004fa9" fill-opacity="0.501961" points="170,43 243,-7 150,20" />
<polygon fill="#5a5c65" fill-opacity="0.501961" points="25,208 103,209 -16,243" />
<polygon fill="#5b82b3" fill-opacity="0.501961" points="12,104 47,53 -15,102" />
<polygon fill="#5685bb" fill-opacity="0.501961" points="145,64 170,67 199,108" />
<polygon fill="#0050aa" fill-opacity="0.501961" points="185,49 163,8 205,3" />
<polygon fill="#f0e4e5" fill-opacity="0.501961" points="178,44 171,43 168,49" />
<polygon fill="#b9d8d3" fill-opacity="0.501961" points="26,186 86,194 77,170" />
<polygon fill="#5281b1" fill-opacity="0.501961" points="116,143 68,149 77,73" />
<polygon fill="#4c87a6" fill-opacity="0.501961" points="103,190 137,199 69,200" />
<polygon fill="#4890be" fill-opacity="0.501961" points="192,181 181,165 140,182" />
<polygon fill="#81797a" fill-opacity="0.501961" points="109,243 68,225 100,220" />
<polygon fill="#1b283a" fill-opacity="0.501961" points="97,240 101,227 135,223" />
<polygon fill="#7386ab" fill-opacity="0.501961" points="135,28 140,27 141,44" />
<polygon fill="#26435a" fill-opacity="0.501961" points="202,209 184,201 163,214" />
<polygon fill="#0c1c38" fill-opacity="0.501961" points="61,220 79,220 45,233" />
<polygon fill="#9fb4c4" fill-opacity="0.501961" points="174,154 176,167 144,170" />
<polygon fill="#3f6faa" fill-opacity="0.501961" points="116,53 87,53 54,95" />
<polygon fill="#dedfe1" fill-opacity="0.501961" points="59,50 57,45 76,49" />
<polygon fill="#548dcb" fill-opacity="0.501961" points="243,106 200,91 173,104" />
<polygon fill="#99b0cb" fill-opacity="0.501961" points="41,168 -10,128 105,177" />
<polygon fill="#adaba5" fill-opacity="0.501961" points="143,224 96,230 166,243" />
<polygon fill="#8c9dbd" fill-opacity="0.501961" points="104,51 98,20 118,56" />
<polygon fill="#7594b8" fill-opacity="0.501961" points="76,164 72,118 45,99" />
<polygon fill="#0056b2" fill-opacity="0.501961" points="201,59 213,-16 243,28" />
<polygon fill="#4778bb" fill-opacity="0.501961" points="46,42 161,9 25,5" />
<polygon fill="#fbffff" fill-opacity="0.501961" points="88,32 77,40 82,33" />
<polygon fill="#ebe8ed" fill-opacity="0.501961" points="146,42 137,54 131,43" />
<polygon fill="#7c7877" fill-opacity="0.501961" points="182,213 166,243 139,217" />
<polygon fill="#8facce" fill-opacity="0.501961" points="174,87 152,81 156,95" />
<polygon fill="#39566e" fill-opacity="0.501961" points="86,220 46,201 143,202" />
<polygon fill="#112645" fill-opacity="0.501961" points="173,227 227,243 207,223" />
<polygon fill="#4a93d5" fill-opacity="0.501961" points="237,126 173,149 150,131" />
<polygon fill="#e6e7e5" fill-opacity="0.501961" points="18,59 41,55 18,51" />
<polygon fill="#296ab6" fill-opacity="0.501961" points="10,15 25,54 66,43" />
<polygon fill="#0063ae" fill-opacity="0.501961" points="170,125 143,97 190,109" />
<polygon fill="#2e6bb6" fill-opacity="0.501961" points="17,55 45,-2 -16,59" />
<polygon fill="#b0bbd5" fill-opacity="0.501961" points="155,41 139,20 155,26" />
<polygon fill="#317fb2" fill-opacity="0.501961" points="153,164 151,127 141,165" />
<polygon fill="#6a86af" fill-opacity="0.501961" points="88,58 65,51 36,65" />
<polygon fill="#a0d1e4" fill-opacity="0.501961" points="243,180 190,183 193,164" />
<polygon fill="#3f444e" fill-opacity="0.501961" points="0,213 -16,235 67,217" />
<polygon fill="#d9d6dd" fill-opacity="0.501961" points="72,46 55,56 33,54" />
<polygon fill="#065698" fill-opacity="0.501961" points="124,75 86,91 85,74" />
<polygon fill="#004ea9" fill-opacity="0.501961" points="149,32 234,22 223,-16" />
<polygon fill="#7bb7e3" fill-opacity="0.501961" points="243,163 210,168 167,141" />
<polygon fill="#2465a8" fill-opacity="0.501961" points="13,87 24,106 48,109" />
<polygon fill="#bbb6bd" fill-opacity="0.501961" points="116,108 113,130 137,119" />
<polygon fill="#cfd5d1" fill-opacity="0.501961" points="168,189 182,182 176,192" />
<polygon fill="#e1e0e7" fill-opacity="0.501961" points="142,21 117,31 153,27" />
<polygon fill="#cfc5ce" fill-opacity="0.501961" points="2,75 14,80 -3,84" />
<polygon fill="#f0edeb" fill-opacity="0.501961" points="98,51 99,32 90,30" />
<polygon fill="#7d93b4" fill-opacity="0.501961" points="138,123 148,147 116,138" />
<polygon fill="#8592b2" fill-opacity="0.501961" points="136,46 119,32 122,40" />
<polygon fill="#6dadc0" fill-opacity="0.501961" points="-16,197 -16,187 19,199" />
<polygon fill="#2772b8" fill-opacity="0.501961" points="149,96 218,122 182,93" />
<polygon fill="#3f6193" fill-opacity="0.501961" points="168,46 168,59 171,51" />
<polygon fill="#7fa3be" fill-opacity="0.501961" points="101,153 25,145 135,190" />
<polygon fill="#638dbd" fill-opacity="0.501961" points="-14,123 28,131 31,116" />
<polygon fill="#4576b8" fill-opacity="0.501961" points="99,13 122,-16 114,33" />
<polygon fill="#467a98" fill-opacity="0.501961" points="179,207 161,190 203,191" />
<polygon fill="#3c6fac" fill-opacity="0.501961" points="100,55 112,79 135,67" />
<polygon fill="#88847b" fill-opacity="0.501961" points="129,223 117,220 131,219" />
<polygon fill="#0d2d52" fill-opacity="0.501961" points="210,219 198,218 218,240" />
<polygon fill="#3a659e" fill-opacity="0.501961" points="138,112 141,100 142,110" />
<polygon fill="#abaec4" fill-opacity="0.501961" points="42,54 40,63 29,71" />
<polygon fill="#356ba7" fill-opacity="0.501961" points="36,109 68,59 92,59" />
<polygon fill="#6690bc" fill-opacity="0.501961" points="130,86 154,96 115,93" />
<polygon fill="#4f80be" fill-opacity="0.501961" points="137,21 62,32 61,9" />
<polygon fill="#3672ba" fill-opacity="0.501961" points="76,45 82,23 4,41" />
<polygon fill="#3d6da8" fill-opacity="0.501961" points="-1,77 51,67 66,82" />
<polygon fill="#d6d9df" fill-opacity="0.501961" points="128,55 108,52 128,47" />
<polygon fill="#608fb4" fill-opacity="0.501961" points="160,191 139,168 134,186" />
<polygon fill="#0163a9" fill-opacity="0.501961" points="175,119 158,132 143,114" />
<polygon fill="#e6e5e4" fill-opacity="0.501961" points="158,54 141,64 144,56" />
<polygon fill="#ebe1e0" fill-opacity="0.501961" points="134,27 131,42 126,35" />
<polygon fill="#97b5d6" fill-opacity="0.501961" points="213,85 197,91 185,81" />
<polygon fill="#f3efef" fill-opacity="0.501961" points="128,24 117,32 123,24" />
<polygon fill="#607dac" fill-opacity="0.501961" points="147,54 158,40 150,39" />
<polygon fill="#d6cac8" fill-opacity="0.501961" points="135,174 129,169 138,159" />
<polygon fill="#8899c0" fill-opacity="0.501961" points="109,51 121,61 139,63" />
<polygon fill="#d7d9e6" fill-opacity="0.501961" points="163,60 158,64 168,64" />
<polygon fill="#9a8e85" fill-opacity="0.501961" points="22,228 47,224 10,243" />
<polygon fill="#0655ac" fill-opacity="0.501961" points="182,10 177,51 167,1" />
<polygon fill="#6e7d97" fill-opacity="0.501961" points="145,25 152,30 146,29" />
<polygon fill="#d0dae2" fill-opacity="0.501961" points="182,54 182,50 190,48" />
<polygon fill="#4d6fa7" fill-opacity="0.501961" points="120,43 123,47 109,46" />
<polygon fill="#5b6771" fill-opacity="0.501961" points="28,208 3,223 54,212" />
<polygon fill="#06569f" fill-opacity="0.501961" points="154,70 133,72 126,84" />
<polygon fill="#5693b2" fill-opacity="0.501961" points="30,188 59,194 -1,201" />
<polygon fill="#749fc1" fill-opacity="0.501961" points="182,167 164,154 204,160" />
<polygon fill="#9ed1e4" fill-opacity="0.501961" points="-5,168 9,187 67,166" />
<polygon fill="#7c8bac" fill-opacity="0.501961" points="156,53 154,64 164,59" />
<polygon fill="#e8e8ec" fill-opacity="0.501961" points="162,45 175,42 176,46" />
<polygon fill="#3068a8" fill-opacity="0.501961" points="179,48 173,63 196,69" />
<polygon fill="#2d6dba" fill-opacity="0.501961" points="58,36 49,51 42,37" />
<polygon fill="#7e7d7d" fill-opacity="0.501961" points="99,215 83,227 112,217" />
<polygon fill="#d4d2d7" fill-opacity="0.501961" points="167,45 164,56 149,50" />
<polygon fill="#3c88cf" fill-opacity="0.501961" points="207,102 243,129 183,125" />
<polygon fill="#2f65ac" fill-opacity="0.501961" points="129,2 75,-10 23,7" />
<polygon fill="#4c72a4" fill-opacity="0.501961" points="96,52 90,51 87,62" />
<polygon fill="#929fb6" fill-opacity="0.501961" points="120,119 118,145 147,122" />
<polygon fill="#4a83a3" fill-opacity="0.501961" points="125,201 75,197 98,191" />
<polygon fill="#ccd6ec" fill-opacity="0.501961" points="183,69 184,65 175,69" />
<polygon fill="#c4d9d0" fill-opacity="0.501961" points="193,179 217,188 178,189" />
<polygon fill="#a9b3c8" fill-opacity="0.501961" points="193,50 197,56 204,50" />
<polygon fill="#0058b2" fill-opacity="0.501961" points="145,17 226,39 179,44" />
<polygon fill="#0a62b0" fill-opacity="0.501961" points="-16,88 -16,118 8,116" />
<polygon fill="#dbd5dc" fill-opacity="0.501961" points="-16,66 -10,82 12,88" />
<polygon fill="#95a1b8" fill-opacity="0.501961" points="47,56 80,47 80,56" />
<polygon fill="#1463a1" fill-opacity="0.501961" points="153,144 142,135 148,130" />
<polygon fill="#0151ab" fill-opacity="0.501961" points="199,-2 167,43 164,15" />
<polygon fill="#9baeca" fill-opacity="0.501961" points="25,132 41,159 -16,135" />
</g>
</svg>