<svg xmlns="http://www.w3.org/2000/svg" version="1.1" width="1024" height="960">
<rect x="0" y="0" width="1024" height="960" fill="#c0c3c0" />
<g transform="scale(4.000000) translate(0.5 0.5)">
<polygon fill="#227ee9" fill-opacity="0.501961" points="-16,104 141,255 142,38" />
<polygon fill="#ffb408" fill-opacity="0.501961" points="271,227 142,236 146,49" />
<polygon fill="#ffffff" fill-opacity="0.501961" points="-16,9 248,98 271,-16" />
<polygon fill="#ff9800" fill-opacity="0.501961" points="261,77 271,127 136,80" />
<polygon fill="#458fe3" fill-opacity="0.501961" points="-16,205 116,245 4,42" />
<polygon fill="#ffad20" fill-opacity="0.501961" points="260,121 178,211 259,253" />
<polygon fill="#fffffd" fill-opacity="0.501961" points="232,99 172,133 227,193" />
<polygon fill="#ffffff" fill-opacity="0.501961" points="271,46 -16,55 8,-16" />
<polygon fill="#ffffff" fill-opacity="0.501961" points="166,188 157,240 219,248" />
<polygon fill="#ffffff" fill-opacity="0.501961" points="168,81 -16,-10 271,2" />
<polygon fill="#3381da" fill-opacity="0.501961" points="148,54 -16,53 3,92" />
<polygon fill="#ff9e16" fill-opacity="0.501961" points="145,79 147,232 209,77" />
<polygon fill="#ffffff" fill-opacity="0.501961" points="67,238 30,202 3,255" />
<polygon fill="#ffffff" fill-opacity="0.501961" points="-16,29 271,81 250,-16" />
<polygon fill="#faf7f2" fill-opacity="0.501961" points="117,192 118,222 78,203" />
<polygon fill="#ffa221" fill-opacity="0.501961" points="156,165 265,176 198,226" />
<polygon fill="#6398d1" fill-opacity="0.501961" points="-16,50 89,66 3,255" />
<polygon fill="#ffa60c" fill-opacity="0.501961" points="271,142 271,78 197,80" />
<polygon fill="#fff5de" fill-opacity="0.501961" points="271,145 232,107 181,154" />
<polygon fill="#6196d0" fill-opacity="0.501961" points="20,53 144,233 143,55" />
<polygon fill="#fbf8fd" fill-opacity="0.501961" points="182,122 196,168 221,103" />
<polygon fill="#ffffff" fill-opacity="0.501961" points="142,-16 186,78 145,77" />
<polygon fill="#ffffff" fill-opacity="0.501961" points="-16,53 5,-16 252,51" />
<polygon fill="#f9feff" fill-opacity="0.501961" points="218,255 159,255 164,190" />
<polygon fill="#ffa10a" fill-opacity="0.501961" points="271,181 263,94 238,190" />
<polygon fill="#fea926" fill-opacity="0.501961" points="218,132 249,123 191,123" />
<polygon fill="#ffffff" fill-opacity="0.501961" points="9,242 44,255 41,186" />
<polygon fill="#fffcf4" fill-opacity="0.501961" points="37,195 55,175 83,170" />
<polygon fill="#508ed3" fill-opacity="0.501961" points="86,172 82,255 36,203" />
<polygon fill="#fffff4" fill-opacity="0.501961" points="212,230 155,255 77,239" />
<polygon fill="#ffab35" fill-opacity="0.501961" points="144,78 244,78 147,145" />
<polygon fill="#4889d2" fill-opacity="0.501961" points="115,236 98,175 98,232" />
<polygon fill="#fffff9" fill-opacity="0.501961" points="252,255 257,235 179,233" />
<polygon fill="#ffffff" fill-opacity="0.501961" points="97,218 88,226 92,195" />
<polygon fill="#ffffff" fill-opacity="0.501961" points="241,-16 142,78 271,78" />
<polygon fill="#fcca8c" fill-opacity="0.501961" points="223,180 271,200 214,202" />
<polygon fill="#f6f6ff" fill-opacity="0.501961" points="182,152 236,166 209,172" />
<polygon fill="#ffa72b" fill-opacity="0.501961" points="207,187 144,180 159,103" />
<polygon fill="#5992d3" fill-opacity="0.501961" points="6,239 61,155 -16,169" />
<polygon fill="#ffba4e" fill-opacity="0.501961" points="216,158 226,146 271,171" />
<polygon fill="#fafdff" fill-opacity="0.501961" points="190,116 181,144 216,103" />
<polygon fill="#fffffe" fill-opacity="0.501961" points="74,253 57,229 -16,239" />
<polygon fill="#f7f0f7" fill-opacity="0.501961" points="248,195 233,209 235,200" />
<polygon fill="#f3ffff" fill-opacity="0.501961" points="210,107 235,106 244,117" />
<polygon fill="#f7e8d1" fill-opacity="0.501961" points="188,89 199,90 191,105" />
<polygon fill="#ffffff" fill-opacity="0.501961" points="-10,51 114,52 3,-16" />
<polygon fill="#ffa523" fill-opacity="0.501961" points="245,188 194,179 260,163" />
<polygon fill="#f2f4fc" fill-opacity="0.501961" points="243,129 199,166 191,129" />
<polygon fill="#fbffff" fill-opacity="0.501961" points="252,135 248,155 243,124" />
<polygon fill="#77a2d1" fill-opacity="0.501961" points="13,54 111,206 -16,111" />
<polygon fill="#ffa016" fill-opacity="0.501961" points="172,123 182,143 186,119" />
<polygon fill="#ffa11f" fill-opacity="0.501961" points="271,153 265,239 237,225" />
<polygon fill="#fffffb" fill-opacity="0.501961" points="110,222 109,191 119,209" />
<polygon fill="#ff9c0a" fill-opacity="0.501961" points="258,128 255,148 247,114" />
<polygon fill="#ffa221" fill-opacity="0.501961" points="162,199 158,233 145,238" />
<polygon fill="#ffffff" fill-opacity="0.501961" points="124,235 71,239 153,255" />
<polygon fill="#ffffff" fill-opacity="0.501961" points="-16,-16 6,53 258,8" />
<polygon fill="#ffa82a" fill-opacity="0.501961" points="249,109 190,99 271,73" />
<polygon fill="#699bd3" fill-opacity="0.501961" points="-11,53 143,170 142,53" />
<polygon fill="#ffab35" fill-opacity="0.501961" points="179,210 225,239 161,95" />
<polygon fill="#fffff8" fill-opacity="0.501961" points="103,209 93,195 85,207" />
<polygon fill="#ffffff" fill-opacity="0.501961" points="142,76 264,78 254,-16" />
<polygon fill="#5d95d1" fill-opacity="0.501961" points="141,231 143,199 93,236" />
<polygon fill="#5e95d2" fill-opacity="0.501961" points="136,231 39,214 76,237" />
<polygon fill="#f1f4fc" fill-opacity="0.501961" points="215,196 217,202 224,188" />
<polygon fill="#fdead6" fill-opacity="0.501961" points="225,169 239,166 251,148" />
<polygon fill="#bcd0e5" fill-opacity="0.501961" points="87,174 64,173 102,160" />
<polygon fill="#eff3ff" fill-opacity="0.501961" points="203,245 165,200 159,245" />
<polygon fill="#ffae33" fill-opacity="0.501961" points="227,127 251,113 271,117" />
<polygon fill="#ffa830" fill-opacity="0.501961" points="257,234 219,234 221,194" />
<polygon fill="#ffac2e" fill-opacity="0.501961" points="204,103 184,90 175,134" />
<polygon fill="#cb9346" fill-opacity="0.501961" points="145,140 153,109 144,79" />
<polygon fill="#fc9e12" fill-opacity="0.501961" points="213,189 238,194 237,202" />
<polygon fill="#5d94d0" fill-opacity="0.501961" points="79,176 114,164 107,208" />
<polygon fill="#fdaa30" fill-opacity="0.501961" points="271,183 250,158 207,185" />
<polygon fill="#faf6f2" fill-opacity="0.501961" points="35,195 49,235 14,237" />
<polygon fill="#fffef4" fill-opacity="0.501961" points="120,207 114,223 105,207" />
<polygon fill="#699bd2" fill-opacity="0.501961" points="90,156 -16,219 -7,54" />
<polygon fill="#b8cde3" fill-opacity="0.501961" points="30,146 48,148 26,139" />
<polygon fill="#f1ebe4" fill-opacity="0.501961" points="233,192 238,186 219,187" />
<polygon fill="#fffff4" fill-opacity="0.501961" points="121,235 129,249 152,235" />
<polygon fill="#f7fcff" fill-opacity="0.501961" points="209,123 244,118 227,106" />
<polygon fill="#fffeff" fill-opacity="0.501961" points="177,110 181,114 175,114" />
<polygon fill="#689ad1" fill-opacity="0.501961" points="48,225 54,183 124,173" />
<polygon fill="#fffff7" fill-opacity="0.501961" points="89,220 90,198 98,223" />
<polygon fill="#f7b750" fill-opacity="0.501961" points="206,127 199,130 202,118" />
<polygon fill="#fce8ce" fill-opacity="0.501961" points="254,194 251,186 243,191" />
<polygon fill="#eff3fc" fill-opacity="0.501961" points="205,139 188,158 185,133" />
<polygon fill="#f8f7f8" fill-opacity="0.501961" points="247,125 251,141 196,142" />
<polygon fill="#fdaa32" fill-opacity="0.501961" points="162,157 223,200 213,172" />
<polygon fill="#fcab33" fill-opacity="0.501961" points="254,188 256,151 216,184" />
<polygon fill="#ffffff" fill-opacity="0.501961" points="271,0 -5,-2 149,56" />
<polygon fill="#d89944" fill-opacity="0.501961" points="145,125 156,164 144,206" />
<polygon fill="#ffe8ca" fill-opacity="0.501961" points="237,240 234,255 196,227" />
<polygon fill="#fea82e" fill-opacity="0.501961" points="262,232 242,189 260,205" />
<polygon fill="#fbeded" fill-opacity="0.501961" points="164,184 171,190 167,208" />
<polygon fill="#f5d4a9" fill-opacity="0.501961" points="229,167 205,157 219,148" />
<polygon fill="#feae3a" fill-opacity="0.501961" points="246,150 222,157 239,160" />
<polygon fill="#feab31" fill-opacity="0.501961" points="198,82 265,82 199,109" />
<polygon fill="#fffdf7" fill-opacity="0.501961" points="4,236 -16,247 30,239" />
<polygon fill="#ffffff" fill-opacity="0.501961" points="271,76 144,-16 144,77" />
<polygon fill="#fda932" fill-opacity="0.501961" points="205,227 234,175 228,219" />
<polygon fill="#f7f5f7" fill-opacity="0.501961" points="44,185 56,177 42,196" />
<polygon fill="#d1dde9" fill-opacity="0.501961" points="120,110 117,112 128,116" />
<polygon fill="#6397d1" fill-opacity="0.501961" points="90,199 50,224 37,205" />
<polygon fill="#fcab34" fill-opacity="0.501961" points="271,77 248,115 187,85" />
<polygon fill="#6899d1" fill-opacity="0.501961" points="143,209 143,235 90,225" />
<polygon fill="#5f96d4" fill-opacity="0.501961" points="-16,232 43,181 11,235" />
<polygon fill="#b0c7e4" fill-opacity="0.501961" points="25,152 23,159 3,152" />
<polygon fill="#fdac35" fill-opacity="0.501961" points="154,118 149,195 198,167" />
<polygon fill="#f8f8fa" fill-opacity="0.501961" points="221,104 194,126 201,109" />
<polygon fill="#7ca8d6" fill-opacity="0.501961" points="114,78 71,134 104,126" />
<polygon fill="#f6f6f6" fill-opacity="0.501961" points="62,236 19,255 53,223" />
<polygon fill="#d7e0ea" fill-opacity="0.501961" points="42,139 43,141 47,134" />
<polygon fill="#f1f6fd" fill-opacity="0.501961" points="231,188 236,193 238,187" />
<polygon fill="#91b5dc" fill-opacity="0.501961" points="46,134 73,149 59,128" />
<polygon fill="#fca932" fill-opacity="0.501961" points="267,162 234,203 261,110" />
<polygon fill="#6096d0" fill-opacity="0.501961" points="143,58 140,113 122,53" />
<polygon fill="#f0f5ff" fill-opacity="0.501961" points="213,172 196,163 232,169" />
<polygon fill="#679ad1" fill-opacity="0.501961" points="107,165 50,189 79,216" />
<polygon fill="#f2e8d9" fill-opacity="0.501961" points="216,201 221,189 221,203" />
<polygon fill="#6599d2" fill-opacity="0.501961" points="142,120 93,192 142,191" />
<polygon fill="#f2eae0" fill-opacity="0.501961" points="190,104 192,98 195,106" />
<polygon fill="#eeeff1" fill-opacity="0.501961" points="24,230 101,245 -16,254" />
<polygon fill="#ffa82b" fill-opacity="0.501961" points="155,237 150,198 163,179" />
<polygon fill="#f4ffff" fill-opacity="0.501961" points="235,202 238,206 230,207" />
<polygon fill="#fbaa32" fill-opacity="0.501961" points="220,104 243,80 187,99" />
<polygon fill="#fffaf4" fill-opacity="0.501961" points="108,209 115,193 116,219" />
<polygon fill="#fdaa34" fill-opacity="0.501961" points="225,231 220,195 256,229" />
<polygon fill="#f4f4f6" fill-opacity="0.501961" points="225,124 226,105 196,121" />
<polygon fill="#ffa82f" fill-opacity="0.501961" points="235,212 262,182 253,219" />
<polygon fill="#6297d1" fill-opacity="0.501961" points="-3,79 31,135 14,159" />
<polygon fill="#ffffff" fill-opacity="0.501961" points="-16,50 111,53 0,-1" />
<polygon fill="#ffd09e" fill-opacity="0.501961" points="197,230 182,213 220,234" />
<polygon fill="#f6d9bb" fill-opacity="0.501961" points="175,203 181,217 196,226" />
<polygon fill="#9bbadd" fill-opacity="0.501961" points="46,75 31,68 51,87" />
<polygon fill="#d49241" fill-opacity="0.501961" points="146,236 144,198 152,216" />
<polygon fill="#b9cce3" fill-opacity="0.501961" points="72,179 58,176 92,164" />
<polygon fill="#ffba5a" fill-opacity="0.501961" points="215,235 203,226 240,230" />
<polygon fill="#fdab33" fill-opacity="0.501961" points="271,150 249,89 255,206" />
<polygon fill="#6599d2" fill-opacity="0.501961" points="65,238 99,234 53,191" />
<polygon fill="#f0f1f0" fill-opacity="0.501961" points="240,128 203,132 190,158" />
<polygon fill="#fbab36" fill-opacity="0.501961" points="197,104 173,145 183,106" />
<polygon fill="#fbeadd" fill-opacity="0.501961" points="228,232 211,251 247,244" />
<polygon fill="#fff7f2" fill-opacity="0.501961" points="93,193 99,207 85,208" />
<polygon fill="#f9f6f2" fill-opacity="0.501961" points="45,190 36,207 32,200" />
<polygon fill="#f5dfbf" fill-opacity="0.501961" points="216,160 238,140 208,147" />
<polygon fill="#8cb2da" fill-opacity="0.501961" points="117,153 102,168 83,167" />
<polygon fill="#f0f6ff" fill-opacity="0.501961" points="188,90 197,96 197,90" />
<polygon fill="#fbb957" fill-opacity="0.501961" points="239,145 218,159 243,156" />
<polygon fill="#5f95d0" fill-opacity="0.501961" points="46,135 45,150 68,141" />
<polygon fill="#6297d1" fill-opacity="0.501961" points="106,232 120,235 100,203" />
<polygon fill="#5b92cf" fill-opacity="0.501961" points="125,204 118,207 117,188" />
<polygon fill="#fbac34" fill-opacity="0.501961" points="146,80 188,79 190,114" />
<polygon fill="#fbab35" fill-opacity="0.501961" points="148,171 189,196 183,131" />
<polygon fill="#98b7dc" fill-opacity="0.501961" points="16,69 4,66 26,86" />
<polygon fill="#bf8f52" fill-opacity="0.501961" points="149,154 143,168 143,138" />
<polygon fill="#fbaa32" fill-opacity="0.501961" points="174,163 239,178 176,200" />
<polygon fill="#fbaa32" fill-opacity="0.501961" points="230,94 200,105 188,95" />
<polygon fill="#fbb54e" fill-opacity="0.501961" points="173,104 182,133 171,145" />
<polygon fill="#679ad1" fill-opacity="0.501961" points="134,53 26,59 83,117" />
<polygon fill="#5d93d0" fill-opacity="0.501961" points="109,208 108,194 95,191" />
<polygon fill="#f1f6ff" fill-opacity="0.501961" points="192,116 184,134 209,107" />
<polygon fill="#faab34" fill-opacity="0.501961" points="269,160 241,195 231,170" />
<polygon fill="#689ad2" fill-opacity="0.501961" points="97,232 98,208 128,235" />
<polygon fill="#d2dde9" fill-opacity="0.501961" points="87,141 79,141 80,144" />
<polygon fill="#6297d1" fill-opacity="0.501961" points="122,105 112,120 62,112" />
<polygon fill="#ffb858" fill-opacity="0.501961" points="156,212 160,226 164,194" />
<polygon fill="#f2eeeb" fill-opacity="0.501961" points="242,201 247,195 241,194" />
<polygon fill="#6498d2" fill-opacity="0.501961" points="58,134 61,100 -2,125" />
<polygon fill="#e8ebee" fill-opacity="0.501961" points="71,146 65,147 66,143" />
<polygon fill="#f6b54e" fill-opacity="0.501961" points="216,130 200,124 237,124" />
<polygon fill="#6397d0" fill-opacity="0.501961" points="66,147 21,189 103,157" />
<polygon fill="#f2eeea" fill-opacity="0.501961" points="191,160 231,141 184,136" />
<polygon fill="#adc5e0" fill-opacity="0.501961" points="13,99 23,108 18,98" />
<polygon fill="#6196d2" fill-opacity="0.501961" points="29,66 9,64 39,97" />
<polygon fill="#f0f5ff" fill-opacity="0.501961" points="250,142 246,155 246,145" />
<polygon fill="#689ad2" fill-opacity="0.501961" points="141,54 73,53 144,86" />
<polygon fill="#fcf6f4" fill-opacity="0.501961" points="113,222 117,208 107,209" />
<polygon fill="#ffcc89" fill-opacity="0.501961" points="149,255 160,228 150,237" />
<polygon fill="#fba626" fill-opacity="0.501961" points="246,147 235,156 240,159" />
<polygon fill="#e1e7ee" fill-opacity="0.501961" points="43,185 55,184 33,201" />
<polygon fill="#fbab35" fill-opacity="0.501961" points="240,201 260,203 246,228" />
<polygon fill="#f3e4d7" fill-opacity="0.501961" points="207,233 189,219 194,236" />
<polygon fill="#6498d1" fill-opacity="0.501961" points="38,204 61,183 50,223" />
<polygon fill="#6397d1" fill-opacity="0.501961" points="61,138 91,156 69,130" />
<polygon fill="#c89951" fill-opacity="0.501961" points="143,80 152,83 143,112" />
<polygon fill="#ffd8ad" fill-opacity="0.501961" points="166,182 174,195 163,191" />
<polygon fill="#f0efec" fill-opacity="0.501961" points="225,184 220,185 224,191" />
<polygon fill="#8eb2da" fill-opacity="0.501961" points="22,88 41,102 29,86" />
<polygon fill="#679ad2" fill-opacity="0.501961" points="40,210 85,238 110,229" />
<polygon fill="#fbaa34" fill-opacity="0.501961" points="182,184 227,185 254,163" />
<polygon fill="#6599d2" fill-opacity="0.501961" points="111,226 142,223 143,178" />
<polygon fill="#9cbadd" fill-opacity="0.501961" points="87,127 102,125 85,120" />
<polygon fill="#f6bc62" fill-opacity="0.501961" points="198,121 220,129 198,129" />
<polygon fill="#eff3f8" fill-opacity="0.501961" points="186,131 192,118 208,143" />
<polygon fill="#689bd2" fill-opacity="0.501961" points="102,207 131,140 88,182" />
<polygon fill="#f3f1ef" fill-opacity="0.501961" points="247,146 230,129 207,129" />
<polygon fill="#f2f2f5" fill-opacity="0.501961" points="154,255 168,198 200,249" />
<polygon fill="#f5f4f3" fill-opacity="0.501961" points="70,255 22,220 36,206" />
<polygon fill="#fba930" fill-opacity="0.501961" points="224,192 242,192 212,224" />
<polygon fill="#faac36" fill-opacity="0.501961" points="242,193 255,196 265,215" />
<polygon fill="#6599d1" fill-opacity="0.501961" points="30,93 32,144 60,122" />
<polygon fill="#d1dce9" fill-opacity="0.501961" points="126,86 127,90 123,90" />
<polygon fill="#f2f2f3" fill-opacity="0.501961" points="235,110 209,105 188,126" />
<polygon fill="#c6d5e4" fill-opacity="0.501961" points="56,147 53,149 53,155" />
<polygon fill="#fedcac" fill-opacity="0.501961" points="169,105 178,110 180,116" />
<polygon fill="#6397d1" fill-opacity="0.501961" points="16,100 54,116 4,67" />
<polygon fill="#679ad2" fill-opacity="0.501961" points="-11,176 -16,253 50,175" />
<polygon fill="#fbab34" fill-opacity="0.501961" points="149,103 157,191 176,109" />
<polygon fill="#f3e8d9" fill-opacity="0.501961" points="231,169 242,161 212,166" />
<polygon fill="#d0dbe9" fill-opacity="0.501961" points="113,87 114,83 110,83" />
<polygon fill="#fcab33" fill-opacity="0.501961" points="195,106 223,103 199,79" />
<polygon fill="#6d9dd3" fill-opacity="0.501961" points="18,149 39,145 50,169" />
<polygon fill="#face95" fill-opacity="0.501961" points="185,222 191,218 179,211" />
<polygon fill="#f4f4f8" fill-opacity="0.501961" points="240,131 246,124 252,134" />
<polygon fill="#a3bfdf" fill-opacity="0.501961" points="5,89 8,97 15,100" />
<polygon fill="#689ad2" fill-opacity="0.501961" points="72,177 50,227 48,190" />
<polygon fill="#fbab37" fill-opacity="0.501961" points="176,139 189,218 217,195" />
<polygon fill="#ffffff" fill-opacity="0.501961" points="261,0 -16,-1 256,77" />
<polygon fill="#6699d2" fill-opacity="0.501961" points="69,237 88,220 78,186" />
<polygon fill="#ffffff" fill-opacity="0.501961" points="225,74 144,53 147,77" />
<polygon fill="#cedbea" fill-opacity="0.501961" points="49,180 53,186 68,174" />
<polygon fill="#f2efea" fill-opacity="0.501961" points="224,172 192,160 184,139" />
<polygon fill="#f8ebe0" fill-opacity="0.501961" points="229,245 254,235 204,237" />
<polygon fill="#fdf6f3" fill-opacity="0.501961" points="96,202 91,219 96,223" />
<polygon fill="#f3f4fa" fill-opacity="0.501961" points="235,110 211,124 242,119" />
<polygon fill="#f7f5f2" fill-opacity="0.501961" points="109,193 117,193 113,223" />
<polygon fill="#fbbf62" fill-opacity="0.501961" points="242,120 243,125 224,126" />
<polygon fill="#6699d2" fill-opacity="0.501961" points="101,123 37,132 37,115" />
<polygon fill="#c2d3e5" fill-opacity="0.501961" points="133,117 130,121 124,122" />
<polygon fill="#f5c376" fill-opacity="0.501961" points="241,160 230,163 225,154" />
<polygon fill="#fad299" fill-opacity="0.501961" points="236,148 236,152 246,151" />
<polygon fill="#6699d2" fill-opacity="0.501961" points="90,235 41,199 88,210" />
<polygon fill="#b6cae3" fill-opacity="0.501961" points="73,130 82,125 74,133" />
<polygon fill="#d6dfea" fill-opacity="0.501961" points="96,107 91,108 100,103" />
<polygon fill="#fef7f7" fill-opacity="0.501961" points="85,255 188,246 131,235" />
<polygon fill="#fca931" fill-opacity="0.501961" points="148,213 154,235 163,186" />
<polygon fill="#5f94d0" fill-opacity="0.501961" points="96,95 102,114 95,130" />
<polygon fill="#fcac37" fill-opacity="0.501961" points="243,124 271,104 243,80" />
<polygon fill="#faaa33" fill-opacity="0.501961" points="256,182 227,187 217,175" />
<polygon fill="#dde4ec" fill-opacity="0.501961" points="19,153 16,157 24,155" />
<polygon fill="#6799d1" fill-opacity="0.501961" points="142,60 110,66 144,110" />
<polygon fill="#bfd1e7" fill-opacity="0.501961" points="7,150 4,151 7,156" />
<polygon fill="#5f95d2" fill-opacity="0.501961" points="7,153 -13,172 15,158" />
<polygon fill="#6699d2" fill-opacity="0.501961" points="-16,138 44,110 18,155" />
<polygon fill="#fbab34" fill-opacity="0.501961" points="207,78 202,107 271,79" />
<polygon fill="#6799d1" fill-opacity="0.501961" points="81,132 56,149 58,138" />
<polygon fill="#6599d1" fill-opacity="0.501961" points="73,128 130,141 101,159" />
<polygon fill="#d4ddea" fill-opacity="0.501961" points="107,101 106,106 110,106" />
<polygon fill="#faa930" fill-opacity="0.501961" points="182,106 193,114 174,133" />
<polygon fill="#d89b46" fill-opacity="0.501961" points="153,190 144,172 144,223" />
<polygon fill="#679ad2" fill-opacity="0.501961" points="112,183 143,236 142,200" />
<polygon fill="#fcab34" fill-opacity="0.501961" points="271,124 204,94 253,98" />
<polygon fill="#eff0f1" fill-opacity="0.501961" points="111,221 121,209 113,212" />
<polygon fill="#699bd2" fill-opacity="0.501961" points="108,83 135,108 88,97" />
<polygon fill="#fbaa33" fill-opacity="0.501961" points="152,111 200,97 147,82" />
<polygon fill="#6699d2" fill-opacity="0.501961" points="42,184 79,141 86,155" />
<polygon fill="#f5d19b" fill-opacity="0.501961" points="216,151 227,149 217,164" />
<polygon fill="#f2f2f2" fill-opacity="0.501961" points="-15,241 81,255 53,226" />
<polygon fill="#f1f1f1" fill-opacity="0.501961" points="61,234 53,222 35,255" />
<polygon fill="#6799d2" fill-opacity="0.501961" points="-13,233 22,157 62,168" />
<polygon fill="#ffffff" fill-opacity="0.501961" points="144,56 74,-16 271,21" />
<polygon fill="#699ad2" fill-opacity="0.501961" points="90,171 63,182 82,221" />
<polygon fill="#679ad2" fill-opacity="0.501961" points="83,187 42,212 50,225" />
<polygon fill="#6699d2" fill-opacity="0.501961" points="144,133 79,114 109,106" />
<polygon fill="#abc5e0" fill-opacity="0.501961" points="116,105 116,98 119,102" />
<polygon fill="#d99f48" fill-opacity="0.501961" points="143,126 152,124 147,156" />
<polygon fill="#fef8f5" fill-opacity="0.501961" points="70,239 119,237 99,248" />
<polygon fill="#f9d5a4" fill-opacity="0.501961" points="230,235 241,241 237,236" />
<polygon fill="#f1f1f0" fill-opacity="0.501961" points="214,238 149,239 186,228" />
<polygon fill="#5a92cf" fill-opacity="0.501961" points="37,148 39,141 44,142" />
<polygon fill="#f5f2ef" fill-opacity="0.501961" points="211,105 196,112 235,122" />
<polygon fill="#a6c2df" fill-opacity="0.501961" points="107,132 112,131 113,127" />
<polygon fill="#f2f2f2" fill-opacity="0.501961" points="199,166 192,116 186,149" />
<polygon fill="#fbab35" fill-opacity="0.501961" points="271,217 239,201 234,228" />
<polygon fill="#679ad2" fill-opacity="0.501961" points="56,185 39,201 66,238" />
<polygon fill="#6498d1" fill-opacity="0.501961" points="120,117 134,118 135,110" />
<polygon fill="#f1f1f2" fill-opacity="0.501961" points="102,208 91,198 85,208" />
<polygon fill="#f1f8ff" fill-opacity="0.501961" points="188,100 192,104 192,100" />
<polygon fill="#fbab35" fill-opacity="0.501961" points="149,81 190,104 188,89" />
<polygon fill="#f4d5a6" fill-opacity="0.501961" points="222,148 229,156 228,145" />
<polygon fill="#f2f2f2" fill-opacity="0.501961" points="57,241 33,199 14,236" />
<polygon fill="#6699d2" fill-opacity="0.501961" points="-16,137 27,143 19,155" />
<polygon fill="#fbab34" fill-opacity="0.501961" points="190,110 206,82 271,88" />
<polygon fill="#ccd9e8" fill-opacity="0.501961" points="44,145 43,148 36,150" />
<polygon fill="#f7ba5b" fill-opacity="0.501961" points="205,121 200,129 202,121" />
<polygon fill="#feb24e" fill-opacity="0.501961" points="184,202 176,200 186,215" />
<polygon fill="#98b7dc" fill-opacity="0.501961" points="99,103 105,90 107,96" />
<polygon fill="#6397d1" fill-opacity="0.501961" points="114,102 88,100 83,87" />
<polygon fill="#f6bb63" fill-opacity="0.501961" points="244,151 241,159 240,146" />
<polygon fill="#6799d0" fill-opacity="0.501961" points="142,232 115,168 143,119" />
<polygon fill="#fbab34" fill-opacity="0.501961" points="271,206 232,169 271,150" />
<polygon fill="#f7e1c8" fill-opacity="0.501961" points="183,222 202,232 177,208" />
<polygon fill="#fbab33" fill-opacity="0.501961" points="201,215 150,167 218,193" />
<polygon fill="#6699d2" fill-opacity="0.501961" points="3,89 -3,152 15,104" />
<polygon fill="#6699d1" fill-opacity="0.501961" points="29,67 24,83 -8,50" />
<polygon fill="#679ad2" fill-opacity="0.501961" points="93,229 103,210 115,225" />
<polygon fill="#be945b" fill-opacity="0.501961" points="147,121 143,115 143,126" />
<polygon fill="#fbaa33" fill-opacity="0.501961" points="165,129 183,130 195,107" />
<polygon fill="#fcd19a" fill-opacity="0.501961" points="217,235 232,255 250,255" />
<polygon fill="#6599d1" fill-opacity="0.501961" points="116,101 130,77 102,91" />
<polygon fill="#f1f9ff" fill-opacity="0.501961" points="220,201 213,202 219,197" />
<polygon fill="#fbab33" fill-opacity="0.501961" points="231,189 214,209 229,232" />
<polygon fill="#dc9c46" fill-opacity="0.501961" points="145,224 155,237 144,231" />
<polygon fill="#f5eeea" fill-opacity="0.501961" points="243,195 251,187 252,193" />
<polygon fill="#fde6c4" fill-opacity="0.501961" points="231,146 236,139 235,150" />
<polygon fill="#fbab34" fill-opacity="0.501961" points="221,179 256,189 257,152" />
<polygon fill="#afc7e3" fill-opacity="0.501961" points="15,164 20,156 14,159" />
<polygon fill="#cbd8e8" fill-opacity="0.501961" points="38,143 31,143 28,147" />
<polygon fill="#6699d1" fill-opacity="0.501961" points="33,145 48,178 69,168" />
<polygon fill="#f2f2f2" fill-opacity="0.501961" points="192,120 233,109 241,121" />
<polygon fill="#fcaa31" fill-opacity="0.501961" points="242,164 256,138 267,152" />
<polygon fill="#679ad2" fill-opacity="0.501961" points="31,117 -16,83 35,146" />
<polygon fill="#fcbc62" fill-opacity="0.501961" points="187,159 182,161 182,150" />
<polygon fill="#fba92d" fill-opacity="0.501961" points="250,197 255,189 271,202" />
<polygon fill="#f2ece3" fill-opacity="0.501961" points="208,150 185,147 207,170" />
<polygon fill="#a2bedf" fill-opacity="0.501961" points="80,110 75,108 75,111" />
<polygon fill="#689ad2" fill-opacity="0.501961" points="17,97 35,98 47,139" />
<polygon fill="#679ad2" fill-opacity="0.501961" points="21,126 75,96 78,130" />
<polygon fill="#ffffff" fill-opacity="0.501961" points="184,51 -13,-10 -2,52" />
<polygon fill="#faac39" fill-opacity="0.501961" points="239,191 248,198 244,182" />
<polygon fill="#fbaa31" fill-opacity="0.501961" points="192,94 187,108 174,108" />
<polygon fill="#d6dfea" fill-opacity="0.501961" points="79,128 84,129 78,126" />
<polygon fill="#d1ddea" fill-opacity="0.501961" points="64,173 45,184 37,201" />
<polygon fill="#f2e8d7" fill-opacity="0.501961" points="198,152 212,155 221,140" />
<polygon fill="#6599d1" fill-opacity="0.501961" points="96,126 127,137 70,135" />
<polygon fill="#fbab34" fill-opacity="0.501961" points="148,181 165,172 157,228" />
<polygon fill="#6599d1" fill-opacity="0.501961" points="114,117 101,100 104,138" />
<polygon fill="#f3f3f5" fill-opacity="0.501961" points="248,138 237,135 247,123" />
<polygon fill="#6699d1" fill-opacity="0.501961" points="20,151 -12,204 -13,166" />
<polygon fill="#689bd2" fill-opacity="0.501961" points="54,148 17,159 18,223" />
<polygon fill="#f5cb8b" fill-opacity="0.501961" points="235,159 229,166 236,162" />
<polygon fill="#f2f3f6" fill-opacity="0.501961" points="225,106 237,122 215,105" />
<polygon fill="#679ad2" fill-opacity="0.501961" points="143,211 117,206 117,172" />
<polygon fill="#f0ffff" fill-opacity="0.501961" points="264,227 254,235 271,228" />
<polygon fill="#6699d1" fill-opacity="0.501961" points="86,112 44,122 82,126" />
<polygon fill="#faab34" fill-opacity="0.501961" points="166,151 177,103 145,157" />
<polygon fill="#fcaa34" fill-opacity="0.501961" points="206,226 232,227 202,182" />
<polygon fill="#f9dfbd" fill-opacity="0.501961" points="196,228 202,235 216,235" />
<polygon fill="#ffc274" fill-opacity="0.501961" points="180,200 172,191 173,196" />
<polygon fill="#689bd2" fill-opacity="0.501961" points="130,151 121,114 96,104" />
<polygon fill="#fcbc5e" fill-opacity="0.501961" points="180,122 170,106 173,117" />
<polygon fill="#6c9cd3" fill-opacity="0.501961" points="28,146 40,146 33,184" />
<polygon fill="#db9f47" fill-opacity="0.501961" points="145,119 151,91 144,101" />
<polygon fill="#f3d7ac" fill-opacity="0.501961" points="227,166 228,161 211,158" />
<polygon fill="#bccfe5" fill-opacity="0.501961" points="58,133 56,133 57,140" />
<polygon fill="#679ad1" fill-opacity="0.501961" points="38,76 49,117 75,110" />
<polygon fill="#fdd295" fill-opacity="0.501961" points="175,121 175,117 179,115" />
<polygon fill="#efffff" fill-opacity="0.501961" points="191,93 189,92 191,90" />
<polygon fill="#fbaa34" fill-opacity="0.501961" points="255,154 271,87 245,86" />
<polygon fill="#fbab34" fill-opacity="0.501961" points="220,99 165,78 248,78" />
<polygon fill="#699bd2" fill-opacity="0.501961" points="75,137 37,141 53,148" />
<polygon fill="#6799d2" fill-opacity="0.501961" points="-9,141 31,178 1,234" />
<polygon fill="#fbaa32" fill-opacity="0.501961" points="151,87 157,114 179,117" />
<polygon fill="#f6f4f2" fill-opacity="0.501961" points="121,208 115,215 114,211" />
<polygon fill="#ffcb87" fill-opacity="0.501961" points="235,237 228,233 234,233" />
<polygon fill="#fcaa31" fill-opacity="0.501961" points="192,216 171,188 182,191" />
<polygon fill="#fbc06b" fill-opacity="0.501961" points="165,133 179,133 171,136" />
<polygon fill="#fcab33" fill-opacity="0.501961" points="222,178 196,166 214,196" />
<polygon fill="#bacee4" fill-opacity="0.501961" points="63,173 67,178 80,174" />
<polygon fill="#f1f2f2" fill-opacity="0.501961" points="13,233 42,218 28,210" />
<polygon fill="#6296d0" fill-opacity="0.501961" points="47,131 57,134 64,130" />
<polygon fill="#fbab34" fill-opacity="0.501961" points="232,192 198,222 214,228" />
<polygon fill="#c4d4e6" fill-opacity="0.501961" points="65,136 57,135 61,133" />
<polygon fill="#f1f1f2" fill-opacity="0.501961" points="104,208 118,214 113,209" />
<polygon fill="#8eb2da" fill-opacity="0.501961" points="39,160 31,155 28,159" />
<polygon fill="#f9aa34" fill-opacity="0.501961" points="175,140 148,144 152,116" />
<polygon fill="#6799d2" fill-opacity="0.501961" points="137,54 26,55 69,106" />
<polygon fill="#f2f2f3" fill-opacity="0.501961" points="217,238 171,227 183,255" />
<polygon fill="#5f95d1" fill-opacity="0.501961" points="26,157 30,148 31,162" />
<polygon fill="#f1f0ee" fill-opacity="0.501961" points="204,168 235,166 221,172" />
<polygon fill="#6699d2" fill-opacity="0.501961" points="94,128 121,102 97,114" />
<polygon fill="#699bd2" fill-opacity="0.501961" points="59,136 51,119 59,118" />
<polygon fill="#faab36" fill-opacity="0.501961" points="232,206 218,195 229,195" />
<polygon fill="#6599d2" fill-opacity="0.501961" points="74,147 63,129 64,140" />
<polygon fill="#6799d2" fill-opacity="0.501961" points="88,182 117,158 104,210" />
<polygon fill="#6699d1" fill-opacity="0.501961" points="73,151 54,138 60,162" />
<polygon fill="#f3f2f2" fill-opacity="0.501961" points="105,255 141,238 51,238" />
<polygon fill="#689ad2" fill-opacity="0.501961" points="101,208 93,237 119,233" />
<polygon fill="#ffc471" fill-opacity="0.501961" points="271,225 271,231 249,231" />
<polygon fill="#679ad2" fill-opacity="0.501961" points="75,177 47,192 77,236" />
<polygon fill="#ebedef" fill-opacity="0.501961" points="41,198 29,205 39,191" />
<polygon fill="#f0ffff" fill-opacity="0.501961" points="247,193 251,192 249,191" />
<polygon fill="#f3f3f5" fill-opacity="0.501961" points="206,164 192,161 204,168" />
<polygon fill="#f1eeed" fill-opacity="0.501961" points="244,155 249,149 248,135" />
<polygon fill="#efffff" fill-opacity="0.501961" points="220,189 222,186 220,186" />
<polygon fill="#fbab34" fill-opacity="0.501961" points="222,172 214,199 159,179" />
<polygon fill="#6799d2" fill-opacity="0.501961" points="63,235 82,237 51,205" />
<polygon fill="#699bd2" fill-opacity="0.501961" points="52,138 33,157 71,138" />
<polygon fill="#ffffff" fill-opacity="0.501961" points="145,77 271,76 144,8" />
<polygon fill="#96b7dc" fill-opacity="0.501961" points="112,129 109,131 119,132" />
<polygon fill="#679ad1" fill-opacity="0.501961" points="18,222 -16,185 37,155" />
<polygon fill="#ffd29e" fill-opacity="0.501961" points="160,214 163,210 162,202" />
<polygon fill="#f2f2f3" fill-opacity="0.501961" points="183,145 215,142 198,128" />
<polygon fill="#6699d1" fill-opacity="0.501961" points="15,151 32,141 20,154" />
<polygon fill="#6699d2" fill-opacity="0.501961" points="84,129 71,144 72,161" />
<polygon fill="#da9e46" fill-opacity="0.501961" points="145,176 151,154 144,142" />
<polygon fill="#5e94d0" fill-opacity="0.501961" points="49,137 56,130 53,138" />
<polygon fill="#d2dce9" fill-opacity="0.501961" points="3,150 8,152 6,150" />
</g>
</svg>