<svg xmlns="http://www.w3.org/2000/svg" version="1.1" width="1024" height="1012">
<rect x="0" y="0" width="1024" height="1012" fill="#c9d4db" />
<g transform="scale(4.000000) translate(0.5 0.5)">
<polygon fill="#003d7e" fill-opacity="0.501961" points="-16,228 87,77 133,208" />
<polygon fill="#004689" fill-opacity="0.501961" points="169,246 90,183 266,240" />
<polygon fill="#fffffd" fill-opacity="0.501961" points="251,-16 271,214 81,177" />
<polygon fill="#ffffff" fill-opacity="0.501961" points="271,-12 -16,0 122,116" />
<polygon fill="#005597" fill-opacity="0.501961" points="4,245 109,133 10,162" />
<polygon fill="#001171" fill-opacity="0.501961" points="254,234 254,200 224,227" />
<polygon fill="#ffffff" fill-opacity="0.501961" points="165,-14 2,-13 5,176" />
<polygon fill="#bfbebc" fill-opacity="0.501961" points="-16,254 235,268 80,189" />
<polygon fill="#ffffff" fill-opacity="0.501961" points="162,186 267,189 209,233" />
<polygon fill="#196698" fill-opacity="0.501961" points="89,90 91,184 4,190" />
<polygon fill="#005296" fill-opacity="0.501961" points="201,239 114,208 187,209" />
<polygon fill="#fffbf8" fill-opacity="0.501961" points="78,155 271,107 166,210" />
<polygon fill="#e7d1a7" fill-opacity="0.501961" points="76,142 160,84 271,83" />
<polygon fill="#e0dfd9" fill-opacity="0.501961" points="91,190 29,223 109,212" />
<polygon fill="#ffffff" fill-opacity="0.501961" points="30,162 1,70 81,74" />
<polygon fill="#fff0d9" fill-opacity="0.501961" points="15,154 -6,192 1,225" />
<polygon fill="#015b9c" fill-opacity="0.501961" points="125,182 98,188 157,222" />
<polygon fill="#276b9c" fill-opacity="0.501961" points="90,177 -16,248 92,80" />
<polygon fill="#1865a2" fill-opacity="0.501961" points="14,153 16,216 74,199" />
<polygon fill="#ffffff" fill-opacity="0.501961" points="168,97 164,-16 82,82" />
<polygon fill="#9bc4da" fill-opacity="0.501961" points="165,35 192,67 175,128" />
<polygon fill="#00649e" fill-opacity="0.501961" points="252,235 253,201 207,239" />
<polygon fill="#f4ebe6" fill-opacity="0.501961" points="89,186 204,161 92,148" />
<polygon fill="#ffffff" fill-opacity="0.501961" points="219,230 153,190 265,185" />
<polygon fill="#ad4a2a" fill-opacity="0.501961" points="3,15 -16,78 0,114" />
<polygon fill="#ffffff" fill-opacity="0.501961" points="239,190 179,113 271,113" />
<polygon fill="#ffd776" fill-opacity="0.501961" points="120,130 107,122 76,142" />
<polygon fill="#668ba4" fill-opacity="0.501961" points="140,230 103,204 167,227" />
<polygon fill="#b2593e" fill-opacity="0.501961" points="-16,161 4,215 1,91" />
<polygon fill="#dbd7d5" fill-opacity="0.501961" points="107,43 92,84 20,37" />
<polygon fill="#10619c" fill-opacity="0.501961" points="213,243 179,204 155,215" />
<polygon fill="#da877c" fill-opacity="0.501961" points="177,130 161,152 178,99" />
<polygon fill="#236999" fill-opacity="0.501961" points="78,85 38,152 104,121" />
<polygon fill="#e1a093" fill-opacity="0.501961" points="226,52 220,110 235,106" />
<polygon fill="#ffffff" fill-opacity="0.501961" points="167,112 105,134 160,152" />
<polygon fill="#8d9783" fill-opacity="0.501961" points="85,153 73,186 75,119" />
<polygon fill="#b6bcbf" fill-opacity="0.501961" points="263,241 219,268 114,236" />
<polygon fill="#ffffff" fill-opacity="0.501961" points="84,-14 141,97 102,120" />
<polygon fill="#fffffd" fill-opacity="0.501961" points="45,119 4,169 2,-10" />
<polygon fill="#6489a4" fill-opacity="0.501961" points="0,249 51,203 -16,237" />
<polygon fill="#fffffc" fill-opacity="0.501961" points="258,-4 129,-16 271,56" />
<polygon fill="#0b5a97" fill-opacity="0.501961" points="29,162 9,193 16,153" />
<polygon fill="#77bee1" fill-opacity="0.501961" points="176,37 166,72 167,5" />
<polygon fill="#ffffff" fill-opacity="0.501961" points="227,228 202,227 187,214" />
<polygon fill="#fef3f1" fill-opacity="0.501961" points="168,-16 270,88 172,49" />
<polygon fill="#ffffff" fill-opacity="0.501961" points="160,172 166,211 134,194" />
<polygon fill="#d0d0d0" fill-opacity="0.501961" points="253,21 188,20 184,51" />
<polygon fill="#085da6" fill-opacity="0.501961" points="79,194 90,156 77,142" />
<polygon fill="#b6ada0" fill-opacity="0.501961" points="134,108 147,113 145,61" />
<polygon fill="#0d5d9c" fill-opacity="0.501961" points="110,149 106,133 78,149" />
<polygon fill="#d5e6ea" fill-opacity="0.501961" points="237,93 169,53 196,113" />
<polygon fill="#e5e3dc" fill-opacity="0.501961" points="269,268 271,212 246,238" />
<polygon fill="#1c67a0" fill-opacity="0.501961" points="138,198 230,240 175,234" />
<polygon fill="#cfcccc" fill-opacity="0.501961" points="157,168 230,185 176,187" />
<polygon fill="#9e9e79" fill-opacity="0.501961" points="79,129 77,89 71,107" />
<polygon fill="#9a4025" fill-opacity="0.501961" points="-13,72 3,6 -16,14" />
<polygon fill="#ffffff" fill-opacity="0.501961" points="10,190 3,193 2,210" />
<polygon fill="#055699" fill-opacity="0.501961" points="-16,236 6,234 28,215" />
<polygon fill="#0f62a3" fill-opacity="0.501961" points="102,124 78,138 92,88" />
<polygon fill="#d2b568" fill-opacity="0.501961" points="72,197 79,195 75,171" />
<polygon fill="#b55b3d" fill-opacity="0.501961" points="1,233 -16,168 2,199" />
<polygon fill="#ffffff" fill-opacity="0.501961" points="65,94 149,11 167,38" />
<polygon fill="#d3cfce" fill-opacity="0.501961" points="14,71 99,70 17,49" />
<polygon fill="#fffffe" fill-opacity="0.501961" points="70,94 31,160 8,150" />
<polygon fill="#76b0ca" fill-opacity="0.501961" points="207,95 177,82 194,96" />
<polygon fill="#ffffff" fill-opacity="0.501961" points="158,-1 -16,-3 99,45" />
<polygon fill="#fbf4ef" fill-opacity="0.501961" points="90,152 93,183 127,183" />
<polygon fill="#1e67a0" fill-opacity="0.501961" points="92,183 126,185 147,214" />
<polygon fill="#9bacb7" fill-opacity="0.501961" points="29,212 48,208 12,239" />
<polygon fill="#ffffff" fill-opacity="0.501961" points="2,153 4,200 21,124" />
<polygon fill="#eac888" fill-opacity="0.501961" points="144,97 137,120 86,137" />
<polygon fill="#fffefd" fill-opacity="0.501961" points="271,26 243,97 220,26" />
<polygon fill="#ababad" fill-opacity="0.501961" points="176,132 175,141 188,152" />
<polygon fill="#96a9b1" fill-opacity="0.501961" points="90,180 74,193 119,210" />
<polygon fill="#aeaead" fill-opacity="0.501961" points="214,45 233,39 247,46" />
<polygon fill="#fdfbf9" fill-opacity="0.501961" points="98,-16 142,92 104,123" />
<polygon fill="#1f69a1" fill-opacity="0.501961" points="62,207 77,183 9,194" />
<polygon fill="#ffefe5" fill-opacity="0.501961" points="166,143 178,91 162,62" />
<polygon fill="#fffefd" fill-opacity="0.501961" points="268,194 178,199 196,223" />
<polygon fill="#c7cbce" fill-opacity="0.501961" points="189,243 193,268 122,223" />
<polygon fill="#afafb0" fill-opacity="0.501961" points="100,50 80,57 102,59" />
<polygon fill="#19649f" fill-opacity="0.501961" points="252,216 241,238 199,237" />
<polygon fill="#7090a8" fill-opacity="0.501961" points="227,248 227,237 187,244" />
<polygon fill="#dfe0e1" fill-opacity="0.501961" points="99,180 189,170 90,148" />
<polygon fill="#f4eada" fill-opacity="0.501961" points="271,81 271,140 219,86" />
<polygon fill="#ffffff" fill-opacity="0.501961" points="170,4 189,39 172,45" />
<polygon fill="#005694" fill-opacity="0.501961" points="92,91 72,92 87,85" />
<polygon fill="#ffffff" fill-opacity="0.501961" points="197,179 177,179 190,145" />
<polygon fill="#d1cdcc" fill-opacity="0.501961" points="241,187 194,167 219,166" />
<polygon fill="#b2b0b1" fill-opacity="0.501961" points="147,54 138,54 143,73" />
<polygon fill="#d74437" fill-opacity="0.501961" points="223,79 226,63 228,77" />
<polygon fill="#a1d1eb" fill-opacity="0.501961" points="184,61 203,68 183,84" />
<polygon fill="#979898" fill-opacity="0.501961" points="45,47 45,40 56,40" />
<polygon fill="#eb8c85" fill-opacity="0.501961" points="145,163 154,151 162,152" />
<polygon fill="#d7746d" fill-opacity="0.501961" points="175,110 168,113 173,128" />
<polygon fill="#449fce" fill-opacity="0.501961" points="174,49 167,57 167,31" />
<polygon fill="#c3c0bf" fill-opacity="0.501961" points="161,-16 149,9 158,12" />
<polygon fill="#0054a6" fill-opacity="0.501961" points="68,108 71,97 74,112" />
<polygon fill="#ffffff" fill-opacity="0.501961" points="223,110 223,180 271,155" />
<polygon fill="#439fcd" fill-opacity="0.501961" points="166,26 170,35 169,15" />
<polygon fill="#ffffff" fill-opacity="0.501961" points="176,69 169,52 188,68" />
<polygon fill="#ffffff" fill-opacity="0.501961" points="134,195 131,172 175,148" />
<polygon fill="#fffdfb" fill-opacity="0.501961" points="171,21 217,79 170,45" />
<polygon fill="#ffffff" fill-opacity="0.501961" points="162,52 68,51 166,10" />
<polygon fill="#c5c7c7" fill-opacity="0.501961" points="218,37 214,47 182,45" />
<polygon fill="#ffffff" fill-opacity="0.501961" points="115,153 188,125 106,131" />
<polygon fill="#ffffff" fill-opacity="0.501961" points="142,122 146,159 161,150" />
<polygon fill="#fffffd" fill-opacity="0.501961" points="210,231 185,209 226,226" />
<polygon fill="#ffffff" fill-opacity="0.501961" points="165,67 174,82 140,76" />
<polygon fill="#ffffff" fill-opacity="0.501961" points="191,39 217,41 212,35" />
<polygon fill="#b5b5b5" fill-opacity="0.501961" points="63,52 36,54 59,59" />
<polygon fill="#f4ddb2" fill-opacity="0.501961" points="67,103 58,102 58,73" />
<polygon fill="#b8b9b9" fill-opacity="0.501961" points="85,40 63,46 44,40" />
<polygon fill="#ffffff" fill-opacity="0.501961" points="64,61 8,64 38,54" />
<polygon fill="#a6a1a2" fill-opacity="0.501961" points="234,101 230,107 207,97" />
<polygon fill="#bcc2c7" fill-opacity="0.501961" points="172,244 68,197 32,268" />
<polygon fill="#c7b173" fill-opacity="0.501961" points="75,132 80,147 76,159" />
<polygon fill="#f4ffff" fill-opacity="0.501961" points="254,200 255,260 271,214" />
<polygon fill="#bbb9ba" fill-opacity="0.501961" points="244,19 231,26 264,25" />
<polygon fill="#70b2cd" fill-opacity="0.501961" points="177,106 188,80 179,88" />
<polygon fill="#276da4" fill-opacity="0.501961" points="53,175 18,155 6,203" />
<polygon fill="#fffefe" fill-opacity="0.501961" points="185,46 228,81 213,46" />
<polygon fill="#005caf" fill-opacity="0.501961" points="77,142 77,154 85,142" />
<polygon fill="#c2c3c4" fill-opacity="0.501961" points="139,154 119,160 100,152" />
<polygon fill="#fffefd" fill-opacity="0.501961" points="199,192 165,210 138,195" />
<polygon fill="#e4dfd2" fill-opacity="0.501961" points="157,85 184,88 150,127" />
<polygon fill="#276da3" fill-opacity="0.501961" points="144,219 207,234 179,205" />
<polygon fill="#ccc8c7" fill-opacity="0.501961" points="243,177 241,167 271,166" />
<polygon fill="#b2c3c7" fill-opacity="0.501961" points="195,96 189,128 201,105" />
<polygon fill="#bebdbc" fill-opacity="0.501961" points="36,60 13,52 49,52" />
<polygon fill="#246ca2" fill-opacity="0.501961" points="107,184 195,227 129,216" />
<polygon fill="#2069a5" fill-opacity="0.501961" points="73,98 73,141 18,179" />
<polygon fill="#fffffc" fill-opacity="0.501961" points="62,92 61,69 112,75" />
<polygon fill="#acadad" fill-opacity="0.501961" points="100,65 98,72 86,65" />
<polygon fill="#399ccd" fill-opacity="0.501961" points="176,71 167,52 167,61" />
<polygon fill="#ffffff" fill-opacity="0.501961" points="31,52 68,52 65,42" />
<polygon fill="#afafaf" fill-opacity="0.501961" points="89,39 81,44 90,46" />
<polygon fill="#c3a0a1" fill-opacity="0.501961" points="229,90 216,77 230,81" />
<polygon fill="#fffefb" fill-opacity="0.501961" points="3,34 106,41 3,-8" />
<polygon fill="#b37765" fill-opacity="0.501961" points="1,225 2,102 -16,161" />
<polygon fill="#f8eadb" fill-opacity="0.501961" points="211,75 230,102 190,89" />
<polygon fill="#b4b5b6" fill-opacity="0.501961" points="109,176 130,173 130,179" />
<polygon fill="#256ca4" fill-opacity="0.501961" points="74,188 22,217 73,98" />
<polygon fill="#ffffff" fill-opacity="0.501961" points="130,-11 207,21 271,-2" />
<polygon fill="#c2c1c2" fill-opacity="0.501961" points="151,169 115,168 129,162" />
<polygon fill="#91c9e5" fill-opacity="0.501961" points="200,69 178,71 216,78" />
<polygon fill="#7a97ae" fill-opacity="0.501961" points="144,222 105,200 125,221" />
<polygon fill="#cacacb" fill-opacity="0.501961" points="182,169 153,165 152,176" />
<polygon fill="#8ba2b1" fill-opacity="0.501961" points="152,221 144,233 174,232" />
<polygon fill="#bebcbb" fill-opacity="0.501961" points="238,184 221,176 220,185" />
<polygon fill="#2069a6" fill-opacity="0.501961" points="103,123 77,132 77,117" />
<polygon fill="#feffff" fill-opacity="0.501961" points="179,163 174,128 162,165" />
<polygon fill="#8b957c" fill-opacity="0.501961" points="68,116 76,116 63,103" />
<polygon fill="#ffffff" fill-opacity="0.501961" points="186,78 194,67 198,69" />
<polygon fill="#cccccd" fill-opacity="0.501961" points="185,143 166,169 190,151" />
<polygon fill="#25689f" fill-opacity="0.501961" points="95,184 143,209 126,183" />
<polygon fill="#ffffff" fill-opacity="0.501961" points="106,50 167,55 166,5" />
<polygon fill="#236da2" fill-opacity="0.501961" points="209,240 253,202 254,234" />
<polygon fill="#1d659e" fill-opacity="0.501961" points="89,146 77,167 89,182" />
<polygon fill="#ffffff" fill-opacity="0.501961" points="205,177 235,180 243,170" />
<polygon fill="#ffffff" fill-opacity="0.501961" points="108,164 98,158 128,159" />
<polygon fill="#cbc9c8" fill-opacity="0.501961" points="140,61 160,59 159,68" />
<polygon fill="#ece7da" fill-opacity="0.501961" points="213,91 271,116 245,80" />
<polygon fill="#69b8dd" fill-opacity="0.501961" points="188,62 176,51 175,56" />
<polygon fill="#fffcfb" fill-opacity="0.501961" points="52,57 2,106 2,145" />
<polygon fill="#bebebe" fill-opacity="0.501961" points="83,64 44,64 59,71" />
<polygon fill="#c1c6ca" fill-opacity="0.501961" points="155,242 37,219 89,194" />
<polygon fill="#fdf7f2" fill-opacity="0.501961" points="173,165 180,99 196,106" />
<polygon fill="#f2dbc4" fill-opacity="0.501961" points="206,112 252,111 204,98" />
<polygon fill="#fefdfd" fill-opacity="0.501961" points="143,92 105,121 92,85" />
<polygon fill="#ffffff" fill-opacity="0.501961" points="51,60 74,65 86,58" />
<polygon fill="#adaeae" fill-opacity="0.501961" points="186,29 182,37 188,35" />
<polygon fill="#c2c1c1" fill-opacity="0.501961" points="212,18 225,26 188,24" />
<polygon fill="#ffffff" fill-opacity="0.501961" points="129,125 152,157 169,136" />
<polygon fill="#d69e94" fill-opacity="0.501961" points="220,103 237,96 228,111" />
<polygon fill="#b4bbbf" fill-opacity="0.501961" points="253,232 256,268 178,268" />
<polygon fill="#105e99" fill-opacity="0.501961" points="111,149 110,144 96,141" />
<polygon fill="#ffffff" fill-opacity="0.501961" points="13,47 27,53 43,48" />
<polygon fill="#ffd759" fill-opacity="0.501961" points="75,102 75,88 77,95" />
<polygon fill="#1e68a3" fill-opacity="0.501961" points="77,100 90,84 103,124" />
<polygon fill="#efffff" fill-opacity="0.501961" points="172,113 170,117 175,116" />
<polygon fill="#fffdfd" fill-opacity="0.501961" points="265,89 228,75 256,30" />
<polygon fill="#fdfdfd" fill-opacity="0.501961" points="139,100 102,121 136,49" />
<polygon fill="#ffffff" fill-opacity="0.501961" points="223,41 271,36 221,26" />
<polygon fill="#ffffff" fill-opacity="0.501961" points="91,149 112,149 108,154" />
<polygon fill="#8099ad" fill-opacity="0.501961" points="-11,240 23,228 -16,262" />
<polygon fill="#ffffff" fill-opacity="0.501961" points="5,203 9,179 2,174" />
<polygon fill="#f5f5f4" fill-opacity="0.501961" points="103,122 131,41 103,5" />
<polygon fill="#efc271" fill-opacity="0.501961" points="95,129 75,143 112,130" />
<polygon fill="#b4b3b5" fill-opacity="0.501961" points="159,117 159,125 151,122" />
<polygon fill="#ffffff" fill-opacity="0.501961" points="146,161 131,181 158,161" />
<polygon fill="#a29b8c" fill-opacity="0.501961" points="138,110 146,113 141,93" />
<polygon fill="#ffffff" fill-opacity="0.501961" points="131,173 170,175 169,196" />
<polygon fill="#fcfafa" fill-opacity="0.501961" points="224,227 205,205 271,165" />
<polygon fill="#c0c0c0" fill-opacity="0.501961" points="53,44 77,46 78,39" />
<polygon fill="#fffffe" fill-opacity="0.501961" points="222,47 220,78 201,73" />
<polygon fill="#266ca2" fill-opacity="0.501961" points="74,196 14,160 7,216" />
<polygon fill="#ffffff" fill-opacity="0.501961" points="104,178 120,183 90,182" />
<polygon fill="#ffffff" fill-opacity="0.501961" points="255,26 268,45 198,26" />
<polygon fill="#d0cecd" fill-opacity="0.501961" points="253,170 249,187 248,170" />
<polygon fill="#b07766" fill-opacity="0.501961" points="0,11 -16,79 3,103" />
<polygon fill="#fbfaf9" fill-opacity="0.501961" points="19,125 80,80 34,154" />
<polygon fill="#a8a9a9" fill-opacity="0.501961" points="82,52 84,55 75,57" />
<polygon fill="#ffffff" fill-opacity="0.501961" points="190,178 169,160 199,158" />
<polygon fill="#b0b2b2" fill-opacity="0.501961" points="106,166 95,168 92,164" />
<polygon fill="#e7938b" fill-opacity="0.501961" points="225,50 227,62 220,50" />
<polygon fill="#f8ebdc" fill-opacity="0.501961" points="186,88 179,102 196,103" />
<polygon fill="#c9c9ca" fill-opacity="0.501961" points="195,175 196,166 212,172" />
<polygon fill="#256ba2" fill-opacity="0.501961" points="224,228 238,239 243,208" />
<polygon fill="#fcfcfc" fill-opacity="0.501961" points="208,47 222,72 224,52" />
<polygon fill="#f1ffff" fill-opacity="0.501961" points="3,216 2,208 7,200" />
<polygon fill="#a7a47c" fill-opacity="0.501961" points="73,167 77,155 76,177" />
<polygon fill="#8ba4b3" fill-opacity="0.501961" points="38,209 51,205 61,211" />
<polygon fill="#236aa4" fill-opacity="0.501961" points="92,143 78,187 77,151" />
<polygon fill="#eae5d9" fill-opacity="0.501961" points="224,88 240,111 255,80" />
<polygon fill="#246ba3" fill-opacity="0.501961" points="73,147 21,165 75,183" />
<polygon fill="#236aa1" fill-opacity="0.501961" points="142,205 221,236 180,235" />
<polygon fill="#ffffff" fill-opacity="0.501961" points="114,168 98,172 131,174" />
<polygon fill="#c5c3c3" fill-opacity="0.501961" points="22,40 17,58 16,41" />
<polygon fill="#ffffff" fill-opacity="0.501961" points="171,187 241,186 210,197" />
<polygon fill="#ffffff" fill-opacity="0.501961" points="157,82 141,58 149,58" />
<polygon fill="#cacaca" fill-opacity="0.501961" points="222,37 200,34 224,29" />
<polygon fill="#fdfbfa" fill-opacity="0.501961" points="60,111 58,67 18,91" />
<polygon fill="#db6155" fill-opacity="0.501961" points="172,120 170,130 173,132" />
<polygon fill="#ffffff" fill-opacity="0.501961" points="119,161 134,164 149,158" />
<polygon fill="#fef7f7" fill-opacity="0.501961" points="245,21 271,-4 199,19" />
<polygon fill="#246ba2" fill-opacity="0.501961" points="2,226 70,182 9,192" />
<polygon fill="#feffff" fill-opacity="0.501961" points="174,70 190,82 215,81" />
<polygon fill="#c4c3c4" fill-opacity="0.501961" points="144,69 153,74 133,74" />
<polygon fill="#c2c3c4" fill-opacity="0.501961" points="171,177 196,184 173,186" />
<polygon fill="#bec4c8" fill-opacity="0.501961" points="-15,260 55,209 233,255" />
<polygon fill="#6eb1ce" fill-opacity="0.501961" points="176,79 173,83 180,89" />
<polygon fill="#b6b5b5" fill-opacity="0.501961" points="41,66 44,72 27,65" />
<polygon fill="#ffffff" fill-opacity="0.501961" points="171,128 160,115 159,154" />
<polygon fill="#fffffe" fill-opacity="0.501961" points="188,70 175,64 170,52" />
<polygon fill="#ffffff" fill-opacity="0.501961" points="204,41 199,40 203,27" />
<polygon fill="#ffffff" fill-opacity="0.501961" points="35,51 32,33 29,63" />
<polygon fill="#ffffff" fill-opacity="0.501961" points="162,10 125,14 167,68" />
<polygon fill="#2168a0" fill-opacity="0.501961" points="180,204 156,216 187,215" />
<polygon fill="#819cb0" fill-opacity="0.501961" points="148,220 130,226 178,237" />
<polygon fill="#ffffff" fill-opacity="0.501961" points="146,92 154,60 160,86" />
<polygon fill="#b7b4b3" fill-opacity="0.501961" points="30,40 25,44 25,38" />
<polygon fill="#fefbfb" fill-opacity="0.501961" points="133,171 136,197 153,202" />
<polygon fill="#ffffff" fill-opacity="0.501961" points="248,170 246,176 259,184" />
<polygon fill="#e9dcc2" fill-opacity="0.501961" points="168,82 149,93 145,119" />
<polygon fill="#296ea2" fill-opacity="0.501961" points="77,159 79,143 101,135" />
<polygon fill="#fffeff" fill-opacity="0.501961" points="5,130 9,181 15,153" />
<polygon fill="#bab9ba" fill-opacity="0.501961" points="247,39 245,45 240,42" />
<polygon fill="#ffffff" fill-opacity="0.501961" points="255,150 255,248 271,192" />
<polygon fill="#bebdbc" fill-opacity="0.501961" points="185,180 208,187 214,180" />
<polygon fill="#fefcfb" fill-opacity="0.501961" points="203,181 212,230 198,222" />
<polygon fill="#8c8d8d" fill-opacity="0.501961" points="24,65 23,63 19,69" />
<polygon fill="#ffffff" fill-opacity="0.501961" points="172,45 198,38 185,35" />
<polygon fill="#fafafa" fill-opacity="0.501961" points="172,183 271,117 217,108" />
<polygon fill="#7c99af" fill-opacity="0.501961" points="81,190 88,180 120,209" />
<polygon fill="#ffffff" fill-opacity="0.501961" points="100,60 84,59 90,63" />
<polygon fill="#7abcdd" fill-opacity="0.501961" points="184,79 176,79 189,71" />
<polygon fill="#ffffff" fill-opacity="0.501961" points="70,53 83,46 45,47" />
<polygon fill="#c9574e" fill-opacity="0.501961" points="225,86 221,80 223,77" />
<polygon fill="#3c9bcb" fill-opacity="0.501961" points="167,44 168,37 176,55" />
<polygon fill="#7896a9" fill-opacity="0.501961" points="168,234 189,243 202,238" />
<polygon fill="#67b1d4" fill-opacity="0.501961" points="183,59 188,66 197,67" />
<polygon fill="#54a5c7" fill-opacity="0.501961" points="196,112 198,105 196,107" />
<polygon fill="#fafbfc" fill-opacity="0.501961" points="169,24 183,56 171,46" />
<polygon fill="#ffffff" fill-opacity="0.501961" points="36,150 27,158 4,146" />
<polygon fill="#c1ae76" fill-opacity="0.501961" points="78,115 76,129 74,114" />
<polygon fill="#ffffff" fill-opacity="0.501961" points="159,189 173,193 158,168" />
<polygon fill="#bfc1c1" fill-opacity="0.501961" points="186,18 201,25 182,26" />
<polygon fill="#4a9ec6" fill-opacity="0.501961" points="193,95 186,88 186,82" />
<polygon fill="#e8d1a0" fill-opacity="0.501961" points="57,91 61,86 64,104" />
<polygon fill="#ffffff" fill-opacity="0.501961" points="184,179 187,152 200,180" />
<polygon fill="#ffffff" fill-opacity="0.501961" points="148,166 162,157 190,165" />
<polygon fill="#216aa5" fill-opacity="0.501961" points="95,102 78,141 77,98" />
<polygon fill="#bebdbd" fill-opacity="0.501961" points="231,183 220,188 221,177" />
<polygon fill="#d6d5d6" fill-opacity="0.501961" points="211,161 184,152 202,152" />
<polygon fill="#c3c4c3" fill-opacity="0.501961" points="101,180 120,173 100,173" />
<polygon fill="#dbbc78" fill-opacity="0.501961" points="102,125 77,141 96,136" />
<polygon fill="#2169a1" fill-opacity="0.501961" points="74,120 66,105 73,96" />
<polygon fill="#ffffff" fill-opacity="0.501961" points="45,63 46,77 34,90" />
<polygon fill="#fdfcfc" fill-opacity="0.501961" points="19,45 26,-8 -4,-10" />
<polygon fill="#fffefc" fill-opacity="0.501961" points="3,24 3,75 17,48" />
<polygon fill="#6e8da5" fill-opacity="0.501961" points="243,240 250,231 253,235" />
<polygon fill="#ffffff" fill-opacity="0.501961" points="174,78 172,71 179,81" />
<polygon fill="#ffffff" fill-opacity="0.501961" points="58,60 43,65 29,59" />
<polygon fill="#c1c1bf" fill-opacity="0.501961" points="100,158 117,156 92,152" />
<polygon fill="#b4b7b9" fill-opacity="0.501961" points="173,137 180,143 177,131" />
<polygon fill="#246ca3" fill-opacity="0.501961" points="238,211 231,225 248,206" />
<polygon fill="#cfcfcf" fill-opacity="0.501961" points="185,146 199,134 193,144" />
<polygon fill="#276ba1" fill-opacity="0.501961" points="220,228 206,235 246,240" />
<polygon fill="#ffffff" fill-opacity="0.501961" points="177,166 225,165 201,159" />
<polygon fill="#fefdfd" fill-opacity="0.501961" points="135,75 139,58 74,58" />
<polygon fill="#ffffff" fill-opacity="0.501961" points="145,121 112,131 165,145" />
<polygon fill="#ffffff" fill-opacity="0.501961" points="225,39 211,35 205,40" />
<polygon fill="#c2c3c3" fill-opacity="0.501961" points="75,59 72,52 95,58" />
<polygon fill="#fbfbfb" fill-opacity="0.501961" points="197,224 220,221 220,181" />
<polygon fill="#cecdcc" fill-opacity="0.501961" points="220,181 247,178 230,185" />
<polygon fill="#ffffff" fill-opacity="0.501961" points="170,176 189,174 181,180" />
<polygon fill="#f0ede2" fill-opacity="0.501961" points="165,68 177,87 177,111" />
<polygon fill="#e3786e" fill-opacity="0.501961" points="142,162 152,158 146,163" />
<polygon fill="#fffaf9" fill-opacity="0.501961" points="134,196 158,157 135,169" />
<polygon fill="#fcfbfb" fill-opacity="0.501961" points="25,63 18,155 44,104" />
<polygon fill="#ffcc54" fill-opacity="0.501961" points="77,190 74,192 75,185" />
<polygon fill="#fffffd" fill-opacity="0.501961" points="186,79 178,82 186,74" />
<polygon fill="#246ba2" fill-opacity="0.501961" points="16,154 36,166 1,239" />
<polygon fill="#266ba1" fill-opacity="0.501961" points="98,126 77,140 77,104" />
<polygon fill="#b4b4b4" fill-opacity="0.501961" points="197,41 215,42 197,46" />
<polygon fill="#e9b966" fill-opacity="0.501961" points="76,92 73,91 76,101" />
<polygon fill="#ffffff" fill-opacity="0.501961" points="114,177 118,182 115,167" />
<polygon fill="#b2b2b2" fill-opacity="0.501961" points="237,180 238,186 230,180" />
<polygon fill="#fcfcfc" fill-opacity="0.501961" points="203,173 212,125 195,123" />
<polygon fill="#df786f" fill-opacity="0.501961" points="168,142 166,149 158,154" />
<polygon fill="#c2c2c2" fill-opacity="0.501961" points="177,165 177,174 169,172" />
<polygon fill="#0a82c0" fill-opacity="0.501961" points="166,17 168,8 169,15" />
<polygon fill="#fcfdfe" fill-opacity="0.501961" points="47,111 57,75 61,104" />
<polygon fill="#77bcde" fill-opacity="0.501961" points="171,65 180,71 172,70" />
<polygon fill="#f0e9dc" fill-opacity="0.501961" points="194,93 209,115 218,103" />
<polygon fill="#c4c8cc" fill-opacity="0.501961" points="210,249 254,239 249,268" />
<polygon fill="#2169a1" fill-opacity="0.501961" points="129,195 139,218 155,207" />
<polygon fill="#fcf9f9" fill-opacity="0.501961" points="225,20 170,18 169,0" />
<polygon fill="#bcbcbb" fill-opacity="0.501961" points="144,73 141,62 137,75" />
<polygon fill="#c1c3c5" fill-opacity="0.501961" points="144,159 137,153 128,156" />
<polygon fill="#c3c3c3" fill-opacity="0.501961" points="48,46 75,46 57,41" />
<polygon fill="#ffffff" fill-opacity="0.501961" points="161,168 153,163 167,146" />
<polygon fill="#c2c3c3" fill-opacity="0.501961" points="210,46 231,44 218,40" />
<polygon fill="#76bcd8" fill-opacity="0.501961" points="212,101 207,95 220,101" />
<polygon fill="#7c99ad" fill-opacity="0.501961" points="240,240 211,248 198,239" />
<polygon fill="#b6766e" fill-opacity="0.501961" points="175,121 170,117 177,130" />
<polygon fill="#246aa1" fill-opacity="0.501961" points="41,196 71,192 57,209" />
<polygon fill="#ffffff" fill-opacity="0.501961" points="100,60 66,59 84,65" />
<polygon fill="#fffffe" fill-opacity="0.501961" points="126,164 117,140 124,137" />
<polygon fill="#65afd4" fill-opacity="0.501961" points="197,74 190,72 190,78" />
<polygon fill="#ffffff" fill-opacity="0.501961" points="157,150 140,164 148,119" />
<polygon fill="#1d68a2" fill-opacity="0.501961" points="12,228 -2,236 5,219" />
<polygon fill="#ffffff" fill-opacity="0.501961" points="82,36 83,52 79,44" />
<polygon fill="#fafaf9" fill-opacity="0.501961" points="103,181 92,180 91,161" />
<polygon fill="#d2d3d2" fill-opacity="0.501961" points="98,178 90,181 99,169" />
<polygon fill="#b0b1b1" fill-opacity="0.501961" points="69,55 67,54 64,60" />
<polygon fill="#fdf9f7" fill-opacity="0.501961" points="189,128 200,108 211,127" />
<polygon fill="#d2d1d1" fill-opacity="0.501961" points="249,189 250,167 240,168" />
<polygon fill="#7897af" fill-opacity="0.501961" points="85,183 92,192 75,197" />
<polygon fill="#fafaf9" fill-opacity="0.501961" points="246,175 271,109 255,79" />
<polygon fill="#fffffc" fill-opacity="0.501961" points="100,85 58,71 104,72" />
<polygon fill="#fff7f6" fill-opacity="0.501961" points="116,153 101,151 131,144" />
<polygon fill="#ffffff" fill-opacity="0.501961" points="91,151 93,153 91,160" />
<polygon fill="#ebdbb8" fill-opacity="0.501961" points="137,101 124,116 136,118" />
<polygon fill="#eeece2" fill-opacity="0.501961" points="220,102 236,125 204,98" />
<polygon fill="#fcfeff" fill-opacity="0.501961" points="223,43 217,70 225,67" />
<polygon fill="#ffffff" fill-opacity="0.501961" points="196,181 195,185 200,184" />
<polygon fill="#f7f6f7" fill-opacity="0.501961" points="172,69 195,67 177,60" />
<polygon fill="#ffffff" fill-opacity="0.501961" points="46,33 42,50 41,36" />
<polygon fill="#b8b7b7" fill-opacity="0.501961" points="234,21 240,22 227,26" />
<polygon fill="#ebe3d5" fill-opacity="0.501961" points="190,94 182,113 198,106" />
<polygon fill="#f6c467" fill-opacity="0.501961" points="75,177 76,181 74,185" />
<polygon fill="#fbf8f8" fill-opacity="0.501961" points="150,201 155,187 122,180" />
<polygon fill="#fffdfd" fill-opacity="0.501961" points="170,30 171,21 198,28" />
<polygon fill="#ffffff" fill-opacity="0.501961" points="161,85 168,81 142,67" />
<polygon fill="#c6c6c6" fill-opacity="0.501961" points="37,39 28,47 41,45" />
<polygon fill="#ffffff" fill-opacity="0.501961" points="28,41 30,50 15,50" />
<polygon fill="#b3b3b3" fill-opacity="0.501961" points="159,4 149,1 149,4" />
<polygon fill="#fcfbfb" fill-opacity="0.501961" points="155,-16 -7,-16 49,41" />
<polygon fill="#fffdfa" fill-opacity="0.501961" points="61,65 60,80 67,88" />
<polygon fill="#bfbfbf" fill-opacity="0.501961" points="207,159 201,155 195,155" />
<polygon fill="#fcfbfb" fill-opacity="0.501961" points="221,216 196,222 180,203" />
<polygon fill="#ffffff" fill-opacity="0.501961" points="140,169 143,175 120,170" />
<polygon fill="#d37a6d" fill-opacity="0.501961" points="226,110 223,102 228,108" />
<polygon fill="#b7b8b8" fill-opacity="0.501961" points="187,47 183,41 190,42" />
<polygon fill="#faf9f9" fill-opacity="0.501961" points="226,223 175,199 209,231" />
<polygon fill="#839db0" fill-opacity="0.501961" points="2,239 25,228 34,211" />
<polygon fill="#f9bf52" fill-opacity="0.501961" points="77,195 78,192 72,191" />
<polygon fill="#feffff" fill-opacity="0.501961" points="169,160 178,153 173,130" />
<polygon fill="#feffff" fill-opacity="0.501961" points="165,119 158,115 169,111" />
<polygon fill="#fbfafa" fill-opacity="0.501961" points="10,150 26,71 32,160" />
<polygon fill="#1f68a0" fill-opacity="0.501961" points="88,147 112,148 107,139" />
<polygon fill="#f4e2e0" fill-opacity="0.501961" points="193,17 210,11 225,17" />
<polygon fill="#e28b82" fill-opacity="0.501961" points="153,157 161,155 166,147" />
<polygon fill="#c8c8c9" fill-opacity="0.501961" points="92,169 118,169 101,162" />
<polygon fill="#ffffff" fill-opacity="0.501961" points="123,-1 252,6 193,-16" />
<polygon fill="#ffffff" fill-opacity="0.501961" points="171,142 158,157 159,172" />
<polygon fill="#c89382" fill-opacity="0.501961" points="-4,240 4,217 -16,204" />
<polygon fill="#b1bbc2" fill-opacity="0.501961" points="81,205 70,197 73,195" />
<polygon fill="#fbfafa" fill-opacity="0.501961" points="221,81 185,73 200,83" />
<polygon fill="#fcfcfc" fill-opacity="0.501961" points="232,113 237,173 189,146" />
<polygon fill="#57a8d1" fill-opacity="0.501961" points="188,80 186,83 182,79" />
<polygon fill="#eae3d5" fill-opacity="0.501961" points="202,97 227,110 198,112" />
<polygon fill="#ffffff" fill-opacity="0.501961" points="222,160 247,178 247,191" />
<polygon fill="#1c68a3" fill-opacity="0.501961" points="87,86 79,100 81,87" />
<polygon fill="#c8c9c9" fill-opacity="0.501961" points="246,180 243,165 240,170" />
<polygon fill="#eeebe3" fill-opacity="0.501961" points="105,79 112,59 104,32" />
<polygon fill="#fbfbfc" fill-opacity="0.501961" points="106,-15 139,95 108,120" />
<polygon fill="#ffffff" fill-opacity="0.501961" points="109,159 95,159 105,164" />
<polygon fill="#faf9f9" fill-opacity="0.501961" points="2,81 47,93 5,129" />
<polygon fill="#fbf9f8" fill-opacity="0.501961" points="160,27 166,16 165,30" />
<polygon fill="#69b6dc" fill-opacity="0.501961" points="183,79 174,71 179,79" />
<polygon fill="#fdfdff" fill-opacity="0.501961" points="2,184 10,179 4,206" />
<polygon fill="#f9f8f8" fill-opacity="0.501961" points="78,69 142,92 110,105" />
<polygon fill="#faf9f8" fill-opacity="0.501961" points="2,1 5,38 127,33" />
<polygon fill="#ffffff" fill-opacity="0.501961" points="207,180 191,175 223,175" />
<polygon fill="#206aa6" fill-opacity="0.501961" points="75,89 92,97 81,87" />
<polygon fill="#ffffff" fill-opacity="0.501961" points="124,170 92,169 107,174" />
<polygon fill="#fafafa" fill-opacity="0.501961" points="246,203 219,228 235,185" />
<polygon fill="#216aa2" fill-opacity="0.501961" points="235,215 254,228 251,205" />
<polygon fill="#c8e3ee" fill-opacity="0.501961" points="173,52 167,53 168,48" />
<polygon fill="#849eb1" fill-opacity="0.501961" points="162,224 187,240 146,229" />
<polygon fill="#fdf7f6" fill-opacity="0.501961" points="189,62 180,52 226,46" />
<polygon fill="#fffffd" fill-opacity="0.501961" points="36,78 28,86 34,68" />
<polygon fill="#f8fbfd" fill-opacity="0.501961" points="171,128 160,114 170,120" />
<polygon fill="#a2a2a2" fill-opacity="0.501961" points="190,152 184,149 180,140" />
<polygon fill="#bcbcbd" fill-opacity="0.501961" points="124,153 117,155 120,160" />
<polygon fill="#ffffff" fill-opacity="0.501961" points="183,112 187,145 178,137" />
<polygon fill="#ffffff" fill-opacity="0.501961" points="130,81 113,71 144,75" />
<polygon fill="#bfc5c9" fill-opacity="0.501961" points="-10,256 178,256 87,195" />
<polygon fill="#fafbfa" fill-opacity="0.501961" points="227,56 233,83 271,68" />
<polygon fill="#69aecd" fill-opacity="0.501961" points="197,97 192,96 199,103" />
<polygon fill="#d55343" fill-opacity="0.501961" points="177,113 174,111 177,115" />
<polygon fill="#eacf95" fill-opacity="0.501961" points="107,121 123,127 125,111" />
<polygon fill="#266aa0" fill-opacity="0.501961" points="89,180 90,148 76,189" />
<polygon fill="#d0cfd0" fill-opacity="0.501961" points="198,138 190,132 186,121" />
<polygon fill="#908f8f" fill-opacity="0.501961" points="172,178 171,184 173,185" />
<polygon fill="#ebe4d8" fill-opacity="0.501961" points="253,80 226,95 255,115" />
<polygon fill="#7e9aaf" fill-opacity="0.501961" points="111,208 135,226 124,208" />
<polygon fill="#f4f5f5" fill-opacity="0.501961" points="165,195 254,196 222,211" />
<polygon fill="#ffffff" fill-opacity="0.501961" points="222,25 225,40 270,37" />
<polygon fill="#266ca1" fill-opacity="0.501961" points="101,115 77,101 88,84" />
<polygon fill="#aba57d" fill-opacity="0.501961" points="73,117 78,108 76,103" />
<polygon fill="#ac7869" fill-opacity="0.501961" points="2,213 -16,155 1,92" />
<polygon fill="#c0c6c9" fill-opacity="0.501961" points="175,248 197,265 230,246" />
<polygon fill="#ede6da" fill-opacity="0.501961" points="208,110 193,94 222,103" />
<polygon fill="#276fa5" fill-opacity="0.501961" points="142,202 98,185 112,202" />
<polygon fill="#ffffff" fill-opacity="0.501961" points="28,30 34,27 35,47" />
<polygon fill="#236aa3" fill-opacity="0.501961" points="77,118 78,105 96,102" />
<polygon fill="#98cae4" fill-opacity="0.501961" points="208,73 217,78 208,79" />
<polygon fill="#ffffff" fill-opacity="0.501961" points="91,181 93,184 92,175" />
<polygon fill="#faf7f7" fill-opacity="0.501961" points="214,77 202,70 205,41" />
<polygon fill="#f9f8f8" fill-opacity="0.501961" points="246,6 239,23 232,1" />
<polygon fill="#ffffff" fill-opacity="0.501961" points="71,51 66,64 75,63" />
<polygon fill="#ffffff" fill-opacity="0.501961" points="142,95 129,91 132,97" />
<polygon fill="#c0c6ca" fill-opacity="0.501961" points="162,233 218,257 101,245" />
<polygon fill="#ffffff" fill-opacity="0.501961" points="231,182 235,193 229,194" />
<polygon fill="#d9e7e2" fill-opacity="0.501961" points="231,105 228,102 225,107" />
<polygon fill="#ffffff" fill-opacity="0.501961" points="83,52 100,39 104,52" />
<polygon fill="#ffffff" fill-opacity="0.501961" points="152,129 155,132 154,119" />
<polygon fill="#549cb9" fill-opacity="0.501961" points="176,107 178,101 178,111" />
<polygon fill="#ffffff" fill-opacity="0.501961" points="194,196 190,193 191,182" />
<polygon fill="#ffffff" fill-opacity="0.501961" points="3,65 17,65 30,56" />
<polygon fill="#8b8a8a" fill-opacity="0.501961" points="45,71 47,70 46,67" />
<polygon fill="#439dc9" fill-opacity="0.501961" points="179,97 179,89 181,92" />
<polygon fill="#f1e3e1" fill-opacity="0.501961" points="144,182 124,182 145,189" />
<polygon fill="#ffffff" fill-opacity="0.501961" points="152,4 126,1 137,23" />
<polygon fill="#ffffff" fill-opacity="0.501961" points="130,180 121,183 111,180" />
<polygon fill="#f8f8f7" fill-opacity="0.501961" points="43,60 59,115 44,133" />
<polygon fill="#256ba1" fill-opacity="0.501961" points="72,172 74,112 56,121" />
<polygon fill="#ffffff" fill-opacity="0.501961" points="180,168 190,162 176,185" />
<polygon fill="#bec4c8" fill-opacity="0.501961" points="27,224 -1,268 74,200" />
<polygon fill="#b9babb" fill-opacity="0.501961" points="62,67 75,71 72,66" />
<polygon fill="#b7b8b9" fill-opacity="0.501961" points="70,65 84,66 81,70" />
<polygon fill="#ffffff" fill-opacity="0.501961" points="142,185 166,193 172,174" />
<polygon fill="#ffffff" fill-opacity="0.501961" points="255,0 256,62 271,14" />
<polygon fill="#ffffff" fill-opacity="0.501961" points="149,120 158,152 148,159" />
<polygon fill="#c2c2c2" fill-opacity="0.501961" points="115,168 145,168 128,163" />
<polygon fill="#c8c8c8" fill-opacity="0.501961" points="118,175 131,180 135,173" />
<polygon fill="#7f9bae" fill-opacity="0.501961" points="49,211 59,207 38,206" />
<polygon fill="#fffdfb" fill-opacity="0.501961" points="181,68 170,60 170,54" />
<polygon fill="#ca6258" fill-opacity="0.501961" points="171,125 173,120 177,126" />
<polygon fill="#b8babe" fill-opacity="0.501961" points="156,119 148,117 152,120" />
<polygon fill="#aca578" fill-opacity="0.501961" points="70,116 71,113 70,114" />
<polygon fill="#e3e0dd" fill-opacity="0.501961" points="169,116 174,118 177,109" />
<polygon fill="#feffff" fill-opacity="0.501961" points="185,118 178,136 194,140" />
<polygon fill="#f6e4e2" fill-opacity="0.501961" points="237,12 248,17 221,16" />
<polygon fill="#fcfbfb" fill-opacity="0.501961" points="81,66 79,85 63,98" />
<polygon fill="#ffffff" fill-opacity="0.501961" points="75,77 70,68 68,74" />
<polygon fill="#256ba2" fill-opacity="0.501961" points="175,236 210,233 199,225" />
<polygon fill="#b8b6b5" fill-opacity="0.501961" points="95,159 94,151 99,155" />
<polygon fill="#dd7167" fill-opacity="0.501961" points="163,147 170,135 168,143" />
<polygon fill="#a8a8a8" fill-opacity="0.501961" points="65,59 66,61 69,54" />
<polygon fill="#f4f4f4" fill-opacity="0.501961" points="128,21 126,86 116,55" />
<polygon fill="#bbbbbb" fill-opacity="0.501961" points="29,52 16,56 29,58" />
<polygon fill="#c8c7c7" fill-opacity="0.501961" points="215,174 224,166 208,166" />
<polygon fill="#ffffff" fill-opacity="0.501961" points="163,147 168,134 116,139" />
<polygon fill="#ffffff" fill-opacity="0.501961" points="112,51 140,68 139,57" />
<polygon fill="#266da3" fill-opacity="0.501961" points="106,133 75,148 106,146" />
<polygon fill="#fcf8f7" fill-opacity="0.501961" points="131,144 115,153 108,134" />
<polygon fill="#fffefe" fill-opacity="0.501961" points="142,164 162,156 140,174" />
<polygon fill="#ffffff" fill-opacity="0.501961" points="132,162 133,155 135,163" />
<polygon fill="#ffffff" fill-opacity="0.501961" points="127,161 123,151 124,162" />
<polygon fill="#bbd9dc" fill-opacity="0.501961" points="176,120 173,133 177,131" />
<polygon fill="#fffefc" fill-opacity="0.501961" points="65,22 58,46 58,29" />
<polygon fill="#266ba1" fill-opacity="0.501961" points="102,122 78,139 89,84" />
<polygon fill="#f5e4e2" fill-opacity="0.501961" points="180,24 175,42 181,48" />
<polygon fill="#ffffff" fill-opacity="0.501961" points="64,56 62,60 71,69" />
<polygon fill="#c0c0c0" fill-opacity="0.501961" points="98,70 97,65 81,64" />
<polygon fill="#fcfcfc" fill-opacity="0.501961" points="74,45 65,-15 83,-6" />
<polygon fill="#d3b66f" fill-opacity="0.501961" points="76,111 77,120 75,117" />
<polygon fill="#b5b5b5" fill-opacity="0.501961" points="63,52 54,56 67,54" />
<polygon fill="#daeaf0" fill-opacity="0.501961" points="227,83 223,82 229,75" />
<polygon fill="#f8f7f7" fill-opacity="0.501961" points="40,134 4,131 2,155" />
<polygon fill="#b8b8b8" fill-opacity="0.501961" points="112,163 120,163 122,168" />
<polygon fill="#7997ae" fill-opacity="0.501961" points="154,231 126,212 131,224" />
<polygon fill="#fbfdfe" fill-opacity="0.501961" points="249,15 195,15 249,-1" />
<polygon fill="#ffffff" fill-opacity="0.501961" points="220,155 227,180 235,179" />
<polygon fill="#a1a1a2" fill-opacity="0.501961" points="94,174 97,177 95,176" />
<polygon fill="#256ba2" fill-opacity="0.501961" points="254,202 225,239 243,236" />
<polygon fill="#ae7564" fill-opacity="0.501961" points="2,9 -16,44 -2,91" />
<polygon fill="#a8a9a9" fill-opacity="0.501961" points="197,36 196,29 195,33" />
<polygon fill="#ffffff" fill-opacity="0.501961" points="213,27 210,42 214,38" />
<polygon fill="#c7b172" fill-opacity="0.501961" points="77,131 74,136 74,122" />
<polygon fill="#fcfcfc" fill-opacity="0.501961" points="254,166 226,109 213,164" />
<polygon fill="#b9bab9" fill-opacity="0.501961" points="169,174 168,168 161,175" />
<polygon fill="#ffffff" fill-opacity="0.501961" points="250,182 264,160 253,195" />
<polygon fill="#bd5551" fill-opacity="0.501961" points="222,83 224,77 222,77" />
<polygon fill="#ffffff" fill-opacity="0.501961" points="41,51 45,61 42,64" />
<polygon fill="#ffffff" fill-opacity="0.501961" points="244,34 236,41 217,37" />
<polygon fill="#f2f2f2" fill-opacity="0.501961" points="247,121 209,119 209,131" />
<polygon fill="#fdfdfd" fill-opacity="0.501961" points="236,182 228,221 240,207" />
<polygon fill="#e2c791" fill-opacity="0.501961" points="86,138 112,131 123,111" />
<polygon fill="#d8b76b" fill-opacity="0.501961" points="74,144 81,139 85,140" />
<polygon fill="#fbfcfc" fill-opacity="0.501961" points="27,61 11,116 33,124" />
<polygon fill="#f2eeed" fill-opacity="0.501961" points="113,149 126,148 128,125" />
<polygon fill="#b3b6bb" fill-opacity="0.501961" points="147,94 142,78 138,82" />
<polygon fill="#ffffff" fill-opacity="0.501961" points="60,68 64,62 64,54" />
<polygon fill="#ffffff" fill-opacity="0.501961" points="174,77 175,73 179,78" />
<polygon fill="#256ca3" fill-opacity="0.501961" points="101,194 152,204 134,214" />
<polygon fill="#f5dfde" fill-opacity="0.501961" points="213,53 225,49 201,50" />
<polygon fill="#ffffff" fill-opacity="0.501961" points="174,204 165,196 166,209" />
<polygon fill="#266ca2" fill-opacity="0.501961" points="93,93 91,131 78,118" />
<polygon fill="#206ba4" fill-opacity="0.501961" points="21,218 14,229 10,224" />
<polygon fill="#7bbcdc" fill-opacity="0.501961" points="204,69 197,69 192,65" />
<polygon fill="#fcfbfa" fill-opacity="0.501961" points="209,75 219,71 189,56" />
<polygon fill="#f9f8f8" fill-opacity="0.501961" points="220,75 199,73 221,56" />
<polygon fill="#ffffff" fill-opacity="0.501961" points="162,187 174,174 134,174" />
<polygon fill="#b17a6a" fill-opacity="0.501961" points="2,5 -9,5 1,39" />
<polygon fill="#e9e9e9" fill-opacity="0.501961" points="7,93 33,93 20,89" />
<polygon fill="#fffefc" fill-opacity="0.501961" points="187,73 196,68 193,67" />
<polygon fill="#6dafcc" fill-opacity="0.501961" points="198,94 210,97 203,93" />
<polygon fill="#f9fafd" fill-opacity="0.501961" points="73,86 61,85 66,104" />
<polygon fill="#ece6da" fill-opacity="0.501961" points="210,96 220,84 256,100" />
<polygon fill="#f1e7d8" fill-opacity="0.501961" points="215,84 203,94 188,86" />
<polygon fill="#f2dddb" fill-opacity="0.501961" points="270,50 267,58 239,50" />
<polygon fill="#246ba2" fill-opacity="0.501961" points="74,189 37,154 73,124" />
<polygon fill="#ffffff" fill-opacity="0.501961" points="162,55 153,60 136,32" />
<polygon fill="#ffffff" fill-opacity="0.501961" points="124,161 123,165 133,160" />
<polygon fill="#fffefe" fill-opacity="0.501961" points="144,194 128,178 133,194" />
<polygon fill="#206aa4" fill-opacity="0.501961" points="67,104 70,113 74,110" />
<polygon fill="#eae4d8" fill-opacity="0.501961" points="219,99 209,80 196,91" />
<polygon fill="#ffffff" fill-opacity="0.501961" points="225,36 213,41 199,38" />
<polygon fill="#f5e2dd" fill-opacity="0.501961" points="95,148 94,152 105,148" />
<polygon fill="#c0c0c0" fill-opacity="0.501961" points="199,155 187,150 193,155" />
<polygon fill="#f6f7f7" fill-opacity="0.501961" points="92,68 95,69 89,69" />
<polygon fill="#ffffff" fill-opacity="0.501961" points="135,73 142,83 124,78" />
<polygon fill="#9d9c9b" fill-opacity="0.501961" points="29,64 32,66 27,67" />
<polygon fill="#ffffff" fill-opacity="0.501961" points="140,76 163,82 164,68" />
<polygon fill="#e9e5da" fill-opacity="0.501961" points="184,84 167,114 159,106" />
<polygon fill="#fefefe" fill-opacity="0.501961" points="212,162 189,152 183,158" />
<polygon fill="#fefcfb" fill-opacity="0.501961" points="176,54 179,57 178,53" />
<polygon fill="#ffffff" fill-opacity="0.501961" points="93,165 92,158 101,159" />
<polygon fill="#c4c4c3" fill-opacity="0.501961" points="45,59 46,57 40,55" />
<polygon fill="#fcfcfc" fill-opacity="0.501961" points="92,83 103,120 103,64" />
<polygon fill="#266ca2" fill-opacity="0.501961" points="195,229 133,216 149,203" />
<polygon fill="#ede4d7" fill-opacity="0.501961" points="203,94 187,82 221,83" />
<polygon fill="#e9cd94" fill-opacity="0.501961" points="58,85 60,80 60,90" />
<polygon fill="#eaeaea" fill-opacity="0.501961" points="265,65 271,57 239,63" />
<polygon fill="#266ba2" fill-opacity="0.501961" points="74,123 52,135 73,168" />
<polygon fill="#ffffff" fill-opacity="0.501961" points="206,193 205,185 220,194" />
<polygon fill="#256ba2" fill-opacity="0.501961" points="27,171 54,125 71,156" />
<polygon fill="#256ba2" fill-opacity="0.501961" points="203,233 222,229 232,237" />
<polygon fill="#eae4d8" fill-opacity="0.501961" points="186,88 179,112 194,99" />
<polygon fill="#8b8b8c" fill-opacity="0.501961" points="57,69 60,63 59,68" />
<polygon fill="#f8f5ef" fill-opacity="0.501961" points="86,35 46,24 14,35" />
<polygon fill="#c5695e" fill-opacity="0.501961" points="178,113 176,114 177,120" />
<polygon fill="#ededed" fill-opacity="0.501961" points="108,88 125,93 92,94" />
<polygon fill="#ededed" fill-opacity="0.501961" points="170,163 183,151 180,162" />
<polygon fill="#ffffff" fill-opacity="0.501961" points="95,172 99,169 101,176" />
<polygon fill="#c9c9c9" fill-opacity="0.501961" points="159,59 161,67 150,66" />
<polygon fill="#f8f9f9" fill-opacity="0.501961" points="55,41 27,6 85,5" />
<polygon fill="#e7796c" fill-opacity="0.501961" points="229,76 228,84 232,82" />
<polygon fill="#ffffff" fill-opacity="0.501961" points="110,172 109,164 112,160" />
<polygon fill="#fbfbfc" fill-opacity="0.501961" points="231,84 257,51 235,51" />
<polygon fill="#fdfcfc" fill-opacity="0.501961" points="230,57 237,83 229,76" />
<polygon fill="#ffffff" fill-opacity="0.501961" points="42,47 27,52 11,46" />
<polygon fill="#ffffff" fill-opacity="0.501961" points="146,148 112,146 171,121" />
<polygon fill="#ececec" fill-opacity="0.501961" points="210,133 212,167 206,151" />
<polygon fill="#f9f9f8" fill-opacity="0.501961" points="36,102 30,64 45,97" />
<polygon fill="#fefdfd" fill-opacity="0.501961" points="205,209 223,211 215,184" />
<polygon fill="#e9d6af" fill-opacity="0.501961" points="116,129 127,115 158,113" />
<polygon fill="#ffffff" fill-opacity="0.501961" points="149,73 166,66 146,94" />
<polygon fill="#7e9aaf" fill-opacity="0.501961" points="-16,262 26,224 -7,240" />
<polygon fill="#fefdfc" fill-opacity="0.501961" points="74,92 62,83 57,67" />
<polygon fill="#bababa" fill-opacity="0.501961" points="175,139 175,131 183,147" />
<polygon fill="#fbfbfb" fill-opacity="0.501961" points="110,47 141,101 107,95" />
<polygon fill="#c0bfbf" fill-opacity="0.501961" points="215,41 235,47 244,41" />
<polygon fill="#fefcfc" fill-opacity="0.501961" points="171,31 191,40 171,47" />
<polygon fill="#fafbfb" fill-opacity="0.501961" points="241,209 201,226 176,197" />
<polygon fill="#fffdf9" fill-opacity="0.501961" points="17,59 8,86 6,50" />
<polygon fill="#ffffff" fill-opacity="0.501961" points="101,163 115,156 119,162" />
<polygon fill="#efeeee" fill-opacity="0.501961" points="223,224 198,222 225,216" />
<polygon fill="#fffaf9" fill-opacity="0.501961" points="232,58 233,45 241,55" />
<polygon fill="#fafafa" fill-opacity="0.501961" points="173,138 174,166 160,156" />
<polygon fill="#ffffff" fill-opacity="0.501961" points="77,46 58,51 94,52" />
<polygon fill="#fbfeff" fill-opacity="0.501961" points="192,116 186,113 173,121" />
<polygon fill="#ffffff" fill-opacity="0.501961" points="40,61 49,65 34,63" />
<polygon fill="#ffffff" fill-opacity="0.501961" points="209,27 213,31 199,28" />
</g>
</svg>