<svg xmlns="http://www.w3.org/2000/svg" version="1.1" width="1024" height="1024">
<rect x="0" y="0" width="1024" height="1024" fill="#b0b6b4" />
<g transform="scale(4.000000) translate(0.5 0.5)">
<polygon fill="#000802" fill-opacity="0.501961" points="139,-6 170,246 16,165" />
<polygon fill="#ffffff" fill-opacity="0.501961" points="-16,271 -14,72 104,254" />
<polygon fill="#ffffff" fill-opacity="0.501961" points="271,271 269,161 93,271" />
<polygon fill="#ffffff" fill-opacity="0.501961" points="215,0 -16,56 3,-16" />
<polygon fill="#ffffff" fill-opacity="0.501961" points="163,-5 271,-16 257,120" />
<polygon fill="#ffffff" fill-opacity="0.501961" points="-16,142 103,-16 2,-16" />
<polygon fill="#223b32" fill-opacity="0.501961" points="157,237 79,22 38,191" />
<polygon fill="#ffffff" fill-opacity="0.501961" points="257,253 -16,191 5,271" />
<polygon fill="#ffffff" fill-opacity="0.501961" points="271,259 255,45 208,268" />
<polygon fill="#3b3537" fill-opacity="0.501961" points="74,24 228,70 166,21" />
<polygon fill="#ffffff" fill-opacity="0.501961" points="142,35 216,121 174,196" />
<polygon fill="#3b3537" fill-opacity="0.501961" points="220,192 241,111 161,234" />
<polygon fill="#2c2628" fill-opacity="0.501961" points="20,144 32,76 86,25" />
<polygon fill="#ffffff" fill-opacity="0.501961" points="81,-7 271,66 255,-16" />
<polygon fill="#ffffff" fill-opacity="0.501961" points="29,271 -16,127 19,-16" />
<polygon fill="#454142" fill-opacity="0.501961" points="227,77 164,25 238,134" />
<polygon fill="#fffeff" fill-opacity="0.501961" points="99,35 142,29 60,69" />
<polygon fill="#2c3702" fill-opacity="0.501961" points="147,85 91,50 43,117" />
<polygon fill="#ffffff" fill-opacity="0.501961" points="44,120 31,151 50,192" />
<polygon fill="#3d73a0" fill-opacity="0.501961" points="151,68 64,145 165,158" />
<polygon fill="#0c0a0b" fill-opacity="0.501961" points="28,98 40,185 22,143" />
<polygon fill="#ffffff" fill-opacity="0.501961" points="-16,67 -4,-16 171,-4" />
<polygon fill="#ffffff" fill-opacity="0.501961" points="261,129 164,259 268,250" />
<polygon fill="#181416" fill-opacity="0.501961" points="90,24 47,58 142,19" />
<polygon fill="#ffffff" fill-opacity="0.501961" points="208,-15 269,-10 256,209" />
<polygon fill="#253512" fill-opacity="0.501961" points="161,138 66,205 152,230" />
<polygon fill="#ffffff" fill-opacity="0.501961" points="-16,260 150,253 20,170" />
<polygon fill="#ffffff" fill-opacity="0.501961" points="-16,189 -15,-16 75,-14" />
<polygon fill="#ffffff" fill-opacity="0.501961" points="271,199 53,258 271,271" />
<polygon fill="#fdf7f8" fill-opacity="0.501961" points="63,64 44,103 100,42" />
<polygon fill="#ffffff" fill-opacity="0.501961" points="167,-16 28,13 251,26" />
<polygon fill="#00001d" fill-opacity="0.501961" points="61,194 108,220 45,150" />
<polygon fill="#aeadae" fill-opacity="0.501961" points="141,65 208,60 115,27" />
<polygon fill="#504e4f" fill-opacity="0.501961" points="228,171 209,51 236,107" />
<polygon fill="#faf6f7" fill-opacity="0.501961" points="162,215 204,83 163,75" />
<polygon fill="#ffffff" fill-opacity="0.501961" points="271,-7 257,108 147,-16" />
<polygon fill="#486000" fill-opacity="0.501961" points="102,142 164,164 128,214" />
<polygon fill="#212122" fill-opacity="0.501961" points="130,44 128,18 174,30" />
<polygon fill="#ffffff" fill-opacity="0.501961" points="-16,256 6,59 48,257" />
<polygon fill="#5f5c3b" fill-opacity="0.501961" points="53,99 82,61 96,146" />
<polygon fill="#3c3a3b" fill-opacity="0.501961" points="165,206 207,200 166,228" />
<polygon fill="#1f3764" fill-opacity="0.501961" points="44,156 143,234 54,99" />
<polygon fill="#486f95" fill-opacity="0.501961" points="157,103 163,168 73,115" />
<polygon fill="#f5eef0" fill-opacity="0.501961" points="37,156 72,207 45,189" />
<polygon fill="#ffffff" fill-opacity="0.501961" points="-15,-16 99,22 33,53" />
<polygon fill="#181617" fill-opacity="0.501961" points="191,49 174,27 207,52" />
<polygon fill="#ffffff" fill-opacity="0.501961" points="271,117 249,220 222,3" />
<polygon fill="#203108" fill-opacity="0.501961" points="83,61 118,40 102,117" />
<polygon fill="#252424" fill-opacity="0.501961" points="236,138 229,129 230,163" />
<polygon fill="#5a5758" fill-opacity="0.501961" points="39,68 105,37 63,40" />
<polygon fill="#d2d1d2" fill-opacity="0.501961" points="43,89 37,140 73,55" />
<polygon fill="#ffffff" fill-opacity="0.501961" points="130,222 144,271 -16,235" />
<polygon fill="#ffffff" fill-opacity="0.501961" points="127,39 91,42 128,28" />
<polygon fill="#a5a2a3" fill-opacity="0.501961" points="221,149 174,38 224,96" />
<polygon fill="#ffffff" fill-opacity="0.501961" points="271,6 107,-3 199,40" />
<polygon fill="#ffffff" fill-opacity="0.501961" points="271,245 266,104 173,264" />
<polygon fill="#ffffff" fill-opacity="0.501961" points="-4,95 -1,-16 68,38" />
<polygon fill="#5c5b5c" fill-opacity="0.501961" points="48,56 24,108 33,151" />
<polygon fill="#c88e78" fill-opacity="0.501961" points="122,209 128,191 117,184" />
<polygon fill="#ffffff" fill-opacity="0.501961" points="271,258 102,255 252,191" />
<polygon fill="#a7a4a6" fill-opacity="0.501961" points="149,213 188,204 228,142" />
<polygon fill="#344b61" fill-opacity="0.501961" points="154,90 123,52 161,137" />
<polygon fill="#494647" fill-opacity="0.501961" points="46,183 40,185 55,204" />
<polygon fill="#7c7c7c" fill-opacity="0.501961" points="35,103 89,39 59,51" />
<polygon fill="#ffffff" fill-opacity="0.501961" points="51,206 6,271 -16,87" />
<polygon fill="#e5e2e1" fill-opacity="0.501961" points="190,77 140,42 158,96" />
<polygon fill="#f9f6f6" fill-opacity="0.501961" points="35,139 46,170 43,110" />
<polygon fill="#446b91" fill-opacity="0.501961" points="75,157 96,177 114,128" />
<polygon fill="#34323e" fill-opacity="0.501961" points="163,172 137,231 156,231" />
<polygon fill="#867240" fill-opacity="0.501961" points="63,96 90,71 77,129" />
<polygon fill="#2c4f00" fill-opacity="0.501961" points="163,170 127,145 99,177" />
<polygon fill="#121404" fill-opacity="0.501961" points="76,67 102,57 55,100" />
<polygon fill="#335700" fill-opacity="0.501961" points="80,104 132,73 103,114" />
<polygon fill="#e1e0e2" fill-opacity="0.501961" points="73,70 81,48 115,33" />
<polygon fill="#0b0c0c" fill-opacity="0.501961" points="125,19 148,31 98,26" />
<polygon fill="#ffffff" fill-opacity="0.501961" points="254,136 260,-16 200,27" />
<polygon fill="#454645" fill-opacity="0.501961" points="202,46 183,46 225,77" />
<polygon fill="#ffffff" fill-opacity="0.501961" points="244,16 113,-16 0,22" />
<polygon fill="#ffffff" fill-opacity="0.501961" points="-16,9 9,148 56,6" />
<polygon fill="#0d101d" fill-opacity="0.501961" points="95,214 153,206 143,224" />
<polygon fill="#c7c6c6" fill-opacity="0.501961" points="41,182 114,231 65,216" />
<polygon fill="#3a3a3a" fill-opacity="0.501961" points="223,157 217,187 195,211" />
<polygon fill="#324859" fill-opacity="0.501961" points="102,71 124,38 145,76" />
<polygon fill="#878888" fill-opacity="0.501961" points="198,52 113,50 149,31" />
<polygon fill="#142539" fill-opacity="0.501961" points="54,184 45,137 118,220" />
<polygon fill="#eae9e9" fill-opacity="0.501961" points="171,76 160,206 205,153" />
<polygon fill="#535625" fill-opacity="0.501961" points="162,192 161,155 113,215" />
<polygon fill="#373737" fill-opacity="0.501961" points="131,31 156,22 195,41" />
<polygon fill="#4b76a3" fill-opacity="0.501961" points="101,115 158,162 147,84" />
<polygon fill="#333433" fill-opacity="0.501961" points="68,39 52,69 43,63" />
<polygon fill="#10243a" fill-opacity="0.501961" points="47,121 49,162 66,86" />
<polygon fill="#000d14" fill-opacity="0.501961" points="121,41 135,38 136,45" />
<polygon fill="#e7e6e7" fill-opacity="0.501961" points="41,110 51,94 45,135" />
<polygon fill="#ffffff" fill-opacity="0.501961" points="96,-16 4,56 111,19" />
<polygon fill="#2d2d2d" fill-opacity="0.501961" points="168,217 194,212 160,229" />
<polygon fill="#2b292a" fill-opacity="0.501961" points="34,166 38,181 49,192" />
<polygon fill="#ffffff" fill-opacity="0.501961" points="114,260 -9,271 -16,135" />
<polygon fill="#545353" fill-opacity="0.501961" points="28,94 22,124 37,147" />
<polygon fill="#ffffff" fill-opacity="0.501961" points="12,271 44,219 221,244" />
<polygon fill="#ffffff" fill-opacity="0.501961" points="238,72 271,142 235,152" />
<polygon fill="#f2f7ef" fill-opacity="0.501961" points="142,67 128,46 135,46" />
<polygon fill="#656465" fill-opacity="0.501961" points="73,34 40,77 109,32" />
<polygon fill="#2b540f" fill-opacity="0.501961" points="98,149 73,123 92,126" />
<polygon fill="#5a6f0c" fill-opacity="0.501961" points="115,144 99,164 147,156" />
<polygon fill="#ffffff" fill-opacity="0.501961" points="256,271 174,232 260,150" />
<polygon fill="#ffffff" fill-opacity="0.501961" points="169,103 151,77 161,116" />
<polygon fill="#b7b6b6" fill-opacity="0.501961" points="173,176 156,218 212,167" />
<polygon fill="#4a4b4a" fill-opacity="0.501961" points="236,114 228,83 203,60" />
<polygon fill="#4a4341" fill-opacity="0.501961" points="141,233 128,222 173,224" />
<polygon fill="#303030" fill-opacity="0.501961" points="34,150 32,170 24,140" />
<polygon fill="#ffffff" fill-opacity="0.501961" points="19,219 24,72 -16,153" />
<polygon fill="#363535" fill-opacity="0.501961" points="228,170 217,180 232,149" />
<polygon fill="#7b7b7b" fill-opacity="0.501961" points="233,139 208,189 222,90" />
<polygon fill="#dfdedd" fill-opacity="0.501961" points="46,190 55,184 38,152" />
<polygon fill="#000a15" fill-opacity="0.501961" points="60,191 101,209 79,208" />
<polygon fill="#ffffff" fill-opacity="0.501961" points="221,185 255,106 253,271" />
<polygon fill="#ffffff" fill-opacity="0.501961" points="197,31 114,13 271,-16" />
<polygon fill="#1e384c" fill-opacity="0.501961" points="116,44 136,55 139,72" />
<polygon fill="#7b7a7a" fill-opacity="0.501961" points="151,227 213,189 167,200" />
<polygon fill="#202121" fill-opacity="0.501961" points="117,20 120,30 92,27" />
<polygon fill="#36526c" fill-opacity="0.501961" points="120,195 78,182 54,103" />
<polygon fill="#383838" fill-opacity="0.501961" points="116,31 66,38 89,27" />
<polygon fill="#d4d2d3" fill-opacity="0.501961" points="210,108 203,162 188,67" />
<polygon fill="#ffffff" fill-opacity="0.501961" points="-16,101 109,8 -16,54" />
<polygon fill="#ffffff" fill-opacity="0.501961" points="156,15 271,16 238,68" />
<polygon fill="#fefefd" fill-opacity="0.501961" points="175,131 159,106 164,165" />
<polygon fill="#363432" fill-opacity="0.501961" points="139,42 143,60 133,41" />
<polygon fill="#151515" fill-opacity="0.501961" points="139,20 130,34 156,23" />
<polygon fill="#3a3b3a" fill-opacity="0.501961" points="24,112 29,91 43,79" />
<polygon fill="#213202" fill-opacity="0.501961" points="100,90 125,69 136,80" />
<polygon fill="#1d3f05" fill-opacity="0.501961" points="123,155 150,182 102,170" />
<polygon fill="#414141" fill-opacity="0.501961" points="51,54 33,80 37,94" />
<polygon fill="#505a23" fill-opacity="0.501961" points="90,70 105,112 61,85" />
<polygon fill="#ffffff" fill-opacity="0.501961" points="13,108 -16,162 32,173" />
<polygon fill="#858685" fill-opacity="0.501961" points="36,86 67,58 33,119" />
<polygon fill="#ffffff" fill-opacity="0.501961" points="241,106 214,57 266,-16" />
<polygon fill="#6f7070" fill-opacity="0.501961" points="192,43 222,82 151,30" />
<polygon fill="#a78a61" fill-opacity="0.501961" points="71,100 74,120 82,103" />
<polygon fill="#333333" fill-opacity="0.501961" points="230,122 235,115 235,138" />
<polygon fill="#acabab" fill-opacity="0.501961" points="159,59 175,49 134,39" />
<polygon fill="#3d4345" fill-opacity="0.501961" points="137,65 151,77 154,98" />
<polygon fill="#ffffff" fill-opacity="0.501961" points="98,-16 -16,10 23,91" />
<polygon fill="#595b37" fill-opacity="0.501961" points="161,140 147,195 162,177" />
<polygon fill="#e3e2e1" fill-opacity="0.501961" points="126,36 91,52 109,37" />
<polygon fill="#f3f3f2" fill-opacity="0.501961" points="84,50 57,76 70,75" />
<polygon fill="#ffffff" fill-opacity="0.501961" points="113,250 271,271 191,217" />
<polygon fill="#868585" fill-opacity="0.501961" points="64,54 59,72 94,38" />
<polygon fill="#081421" fill-opacity="0.501961" points="119,205 109,219 87,210" />
<polygon fill="#3e3e3e" fill-opacity="0.501961" points="217,188 190,214 199,194" />
<polygon fill="#191e03" fill-opacity="0.501961" points="82,64 103,48 103,81" />
<polygon fill="#3c6494" fill-opacity="0.501961" points="103,113 80,115 80,130" />
<polygon fill="#433f40" fill-opacity="0.501961" points="159,123 161,151 154,137" />
<polygon fill="#1d2d37" fill-opacity="0.501961" points="63,168 45,147 49,119" />
<polygon fill="#aaa8a9" fill-opacity="0.501961" points="214,177 202,118 219,111" />
<polygon fill="#3e3d3e" fill-opacity="0.501961" points="202,60 212,59 193,40" />
<polygon fill="#616261" fill-opacity="0.501961" points="92,33 89,44 111,32" />
<polygon fill="#ffffff" fill-opacity="0.501961" points="271,28 170,16 231,74" />
<polygon fill="#09131b" fill-opacity="0.501961" points="46,159 56,168 59,189" />
<polygon fill="#d7d6d5" fill-opacity="0.501961" points="129,223 105,230 71,212" />
<polygon fill="#ffffff" fill-opacity="0.501961" points="151,233 51,226 54,271" />
<polygon fill="#6e6e6e" fill-opacity="0.501961" points="35,108 35,150 26,137" />
<polygon fill="#4d749b" fill-opacity="0.501961" points="89,130 104,146 138,139" />
<polygon fill="#ebeaea" fill-opacity="0.501961" points="174,93 152,79 142,49" />
<polygon fill="#363434" fill-opacity="0.501961" points="53,199 43,191 40,180" />
<polygon fill="#ffffff" fill-opacity="0.501961" points="24,169 90,241 -15,196" />
<polygon fill="#dfdede" fill-opacity="0.501961" points="44,184 39,171 65,195" />
<polygon fill="#383939" fill-opacity="0.501961" points="26,149 23,119 32,142" />
<polygon fill="#20310e" fill-opacity="0.501961" points="74,129 67,120 69,100" />
<polygon fill="#6b6b6b" fill-opacity="0.501961" points="142,29 179,41 128,40" />
<polygon fill="#f9f9f9" fill-opacity="0.501961" points="110,34 127,35 128,28" />
<polygon fill="#d8d7d8" fill-opacity="0.501961" points="168,166 202,162 172,198" />
<polygon fill="#3c421d" fill-opacity="0.501961" points="131,183 118,216 154,201" />
<polygon fill="#d3d2d3" fill-opacity="0.501961" points="188,113 183,68 163,54" />
<polygon fill="#2f507b" fill-opacity="0.501961" points="104,64 112,80 118,63" />
<polygon fill="#726f35" fill-opacity="0.501961" points="159,174 157,193 140,185" />
<polygon fill="#3e4128" fill-opacity="0.501961" points="123,55 137,85 101,54" />
<polygon fill="#121706" fill-opacity="0.501961" points="83,62 68,80 78,84" />
<polygon fill="#1d1d1d" fill-opacity="0.501961" points="167,26 173,34 180,33" />
<polygon fill="#21374e" fill-opacity="0.501961" points="62,86 49,117 61,163" />
<polygon fill="#436016" fill-opacity="0.501961" points="107,95 102,126 97,87" />
<polygon fill="#3d586e" fill-opacity="0.501961" points="158,112 120,50 146,71" />
<polygon fill="#ad8b67" fill-opacity="0.501961" points="119,189 125,189 119,210" />
<polygon fill="#808080" fill-opacity="0.501961" points="35,94 46,94 35,129" />
<polygon fill="#294204" fill-opacity="0.501961" points="130,193 100,167 117,158" />
<polygon fill="#9f7c46" fill-opacity="0.501961" points="116,183 106,180 123,191" />
<polygon fill="#4b4c4b" fill-opacity="0.501961" points="235,135 232,156 221,151" />
<polygon fill="#353535" fill-opacity="0.501961" points="30,108 23,122 26,100" />
<polygon fill="#505050" fill-opacity="0.501961" points="196,56 227,83 218,65" />
<polygon fill="#2a2b2a" fill-opacity="0.501961" points="76,34 71,43 57,49" />
<polygon fill="#474747" fill-opacity="0.501961" points="231,158 203,194 222,181" />
<polygon fill="#ffffff" fill-opacity="0.501961" points="75,33 178,-16 -16,-1" />
<polygon fill="#345506" fill-opacity="0.501961" points="127,86 102,111 77,109" />
<polygon fill="#ffffff" fill-opacity="0.501961" points="131,-16 196,24 90,15" />
<polygon fill="#e4e4e3" fill-opacity="0.501961" points="36,148 37,132 46,154" />
<polygon fill="#ffffff" fill-opacity="0.501961" points="271,227 241,150 176,256" />
<polygon fill="#ffffff" fill-opacity="0.501961" points="139,56 135,54 141,61" />
<polygon fill="#e2e2e2" fill-opacity="0.501961" points="202,103 166,75 211,137" />
<polygon fill="#565656" fill-opacity="0.501961" points="138,222 186,213 148,232" />
<polygon fill="#748725" fill-opacity="0.501961" points="106,159 135,147 118,147" />
<polygon fill="#ffffff" fill-opacity="0.501961" points="232,87 202,40 271,51" />
</g>
</svg>