<svg xmlns="http://www.w3.org/2000/svg" version="1.1" width="1024" height="1024">
<rect x="0" y="0" width="1024" height="1024" fill="#908a7d" />
<g transform="scale(4.000000) translate(0.5 0.5)">
<polygon fill="#ffffff" fill-opacity="0.501961" points="137,-16 70,4 122,153" />
<polygon fill="#221a0f" fill-opacity="0.501961" points="185,209 167,64 271,85" />
<polygon fill="#000000" fill-opacity="0.501961" points="-5,269 142,271 0,204" />
<polygon fill="#ffffff" fill-opacity="0.501961" points="151,64 171,-16 254,50" />
<polygon fill="#eadec0" fill-opacity="0.501961" points="37,226 199,167 1,169" />
<polygon fill="#2c0e00" fill-opacity="0.501961" points="271,270 271,170 199,244" />
<polygon fill="#48301f" fill-opacity="0.501961" points="-16,167 118,159 95,92" />
<polygon fill="#fffffb" fill-opacity="0.501961" points="253,208 170,239 166,204" />
<polygon fill="#e1e7e1" fill-opacity="0.501961" points="49,43 -16,122 62,128" />
<polygon fill="#ecffff" fill-opacity="0.501961" points="-13,5 46,52 55,-16" />
<polygon fill="#2a2c2d" fill-opacity="0.501961" points="224,-10 263,-16 225,88" />
<polygon fill="#000000" fill-opacity="0.501961" points="4,187 61,184 18,198" />
<polygon fill="#1a3037" fill-opacity="0.501961" points="80,45 54,-16 55,104" />
<polygon fill="#ffffff" fill-opacity="0.501961" points="58,217 -7,202 93,185" />
<polygon fill="#000b19" fill-opacity="0.501961" points="5,67 12,32 49,56" />
<polygon fill="#372a22" fill-opacity="0.501961" points="265,82 232,171 138,219" />
<polygon fill="#dac69a" fill-opacity="0.501961" points="123,127 217,142 122,168" />
<polygon fill="#ffffff" fill-opacity="0.501961" points="72,11 137,45 137,-16" />
<polygon fill="#d6eef9" fill-opacity="0.501961" points="79,5 81,98 106,93" />
<polygon fill="#f2f1ee" fill-opacity="0.501961" points="141,-13 223,60 224,-4" />
<polygon fill="#d5c194" fill-opacity="0.501961" points="210,150 214,75 189,147" />
<polygon fill="#000005" fill-opacity="0.501961" points="158,223 147,240 101,238" />
<polygon fill="#ffffe3" fill-opacity="0.501961" points="162,202 227,232 164,229" />
<polygon fill="#dcefed" fill-opacity="0.501961" points="118,228 124,201 72,223" />
<polygon fill="#282420" fill-opacity="0.501961" points="183,58 250,147 232,65" />
<polygon fill="#7d3c0e" fill-opacity="0.501961" points="271,257 142,254 203,232" />
<polygon fill="#4d3a20" fill-opacity="0.501961" points="193,171 190,148 117,135" />
<polygon fill="#dfcca0" fill-opacity="0.501961" points="190,168 117,156 185,191" />
<polygon fill="#efefd9" fill-opacity="0.501961" points="138,68 162,79 136,105" />
<polygon fill="#705b44" fill-opacity="0.501961" points="35,115 -16,159 155,121" />
<polygon fill="#2d1305" fill-opacity="0.501961" points="223,202 136,206 165,189" />
<polygon fill="#4a3c2c" fill-opacity="0.501961" points="233,202 271,125 253,271" />
<polygon fill="#fffffd" fill-opacity="0.501961" points="271,238 233,206 257,217" />
<polygon fill="#c1bfb1" fill-opacity="0.501961" points="271,94 238,30 245,98" />
<polygon fill="#3e150c" fill-opacity="0.501961" points="-12,263 1,204 126,264" />
<polygon fill="#304958" fill-opacity="0.501961" points="155,-16 137,18 157,66" />
<polygon fill="#7c8e91" fill-opacity="0.501961" points="82,39 106,41 106,105" />
<polygon fill="#dec6a2" fill-opacity="0.501961" points="271,129 207,162 246,160" />
<polygon fill="#4a4d45" fill-opacity="0.501961" points="210,82 126,127 195,136" />
<polygon fill="#c2bcad" fill-opacity="0.501961" points="66,101 65,161 -16,59" />
<polygon fill="#ffffdb" fill-opacity="0.501961" points="205,176 204,187 239,180" />
<polygon fill="#ecf1df" fill-opacity="0.501961" points="109,67 177,66 113,48" />
<polygon fill="#5a4738" fill-opacity="0.501961" points="68,207 65,227 116,198" />
<polygon fill="#171311" fill-opacity="0.501961" points="229,161 250,177 186,175" />
<polygon fill="#36464d" fill-opacity="0.501961" points="16,-9 5,42 19,48" />
<polygon fill="#ffffff" fill-opacity="0.501961" points="20,-16 53,-11 52,33" />
<polygon fill="#1e1f1b" fill-opacity="0.501961" points="136,126 125,111 135,73" />
<polygon fill="#415459" fill-opacity="0.501961" points="76,93 48,-11 76,-13" />
<polygon fill="#f0f9f3" fill-opacity="0.501961" points="-14,73 -1,47 21,41" />
<polygon fill="#debb94" fill-opacity="0.501961" points="173,251 62,233 146,271" />
<polygon fill="#2b3842" fill-opacity="0.501961" points="54,38 17,36 40,44" />
<polygon fill="#1d2122" fill-opacity="0.501961" points="124,167 103,139 67,150" />
<polygon fill="#ad8857" fill-opacity="0.501961" points="171,229 57,175 124,182" />
<polygon fill="#d3cead" fill-opacity="0.501961" points="96,158 132,197 53,171" />
<polygon fill="#fffffa" fill-opacity="0.501961" points="55,214 103,193 55,186" />
<polygon fill="#371905" fill-opacity="0.501961" points="264,202 227,198 210,181" />
<polygon fill="#fcffff" fill-opacity="0.501961" points="131,44 54,-16 133,-16" />
<polygon fill="#00020c" fill-opacity="0.501961" points="190,246 186,233 225,233" />
<polygon fill="#dae7ec" fill-opacity="0.501961" points="14,25 -16,43 10,-16" />
<polygon fill="#ffffff" fill-opacity="0.501961" points="223,58 216,-16 203,59" />
<polygon fill="#271812" fill-opacity="0.501961" points="48,193 54,180 24,187" />
<polygon fill="#bbb192" fill-opacity="0.501961" points="184,187 110,108 135,203" />
<polygon fill="#5c483b" fill-opacity="0.501961" points="54,129 59,164 -3,125" />
<polygon fill="#1b1717" fill-opacity="0.501961" points="220,218 262,225 258,271" />
<polygon fill="#d18544" fill-opacity="0.501961" points="210,271 252,239 162,255" />
<polygon fill="#18242a" fill-opacity="0.501961" points="195,70 201,88 139,67" />
<polygon fill="#c3b089" fill-opacity="0.501961" points="207,76 217,89 202,129" />
<polygon fill="#bf824d" fill-opacity="0.501961" points="132,243 183,271 168,224" />
<polygon fill="#ccc9c2" fill-opacity="0.501961" points="212,10 159,63 157,-16" />
<polygon fill="#2a201d" fill-opacity="0.501961" points="208,157 223,62 246,144" />
<polygon fill="#89876f" fill-opacity="0.501961" points="135,54 193,71 204,55" />
<polygon fill="#ffffff" fill-opacity="0.501961" points="102,231 97,235 80,226" />
<polygon fill="#626560" fill-opacity="0.501961" points="11,110 17,73 23,130" />
<polygon fill="#f3ffff" fill-opacity="0.501961" points="126,158 142,164 159,150" />
<polygon fill="#d1dbdf" fill-opacity="0.501961" points="-16,115 -16,-1 15,111" />
<polygon fill="#3d3e38" fill-opacity="0.501961" points="98,156 110,132 126,140" />
<polygon fill="#343229" fill-opacity="0.501961" points="127,103 142,69 131,67" />
<polygon fill="#30271e" fill-opacity="0.501961" points="111,242 85,238 68,223" />
<polygon fill="#9b4d24" fill-opacity="0.501961" points="18,229 -14,197 69,235" />
<polygon fill="#94b6c0" fill-opacity="0.501961" points="130,235 151,223 100,213" />
<polygon fill="#e6ceae" fill-opacity="0.501961" points="41,221 68,221 102,250" />
<polygon fill="#4c2e16" fill-opacity="0.501961" points="145,203 103,190 122,203" />
<polygon fill="#fed39a" fill-opacity="0.501961" points="60,168 37,157 43,184" />
<polygon fill="#3d342e" fill-opacity="0.501961" points="-13,125 -16,161 40,169" />
<polygon fill="#bad3db" fill-opacity="0.501961" points="-16,191 13,165 56,179" />
<polygon fill="#dcdedb" fill-opacity="0.501961" points="48,111 27,105 52,39" />
<polygon fill="#fbf5e0" fill-opacity="0.501961" points="196,233 219,225 179,205" />
<polygon fill="#000109" fill-opacity="0.501961" points="253,62 254,33 271,78" />
<polygon fill="#061d2b" fill-opacity="0.501961" points="17,228 -16,258 101,271" />
<polygon fill="#4d6b74" fill-opacity="0.501961" points="107,49 133,46 94,40" />
<polygon fill="#fcfbee" fill-opacity="0.501961" points="253,99 240,84 250,85" />
<polygon fill="#191d21" fill-opacity="0.501961" points="245,77 271,84 239,85" />
<polygon fill="#0c1219" fill-opacity="0.501961" points="202,158 156,155 214,176" />
<polygon fill="#cac6b3" fill-opacity="0.501961" points="59,114 31,98 103,109" />
<polygon fill="#525e39" fill-opacity="0.501961" points="89,102 57,73 73,111" />
<polygon fill="#b9bcb4" fill-opacity="0.501961" points="243,20 263,18 238,38" />
<polygon fill="#aea382" fill-opacity="0.501961" points="183,172 69,160 140,202" />
<polygon fill="#f6fcff" fill-opacity="0.501961" points="78,36 78,-15 156,-16" />
<polygon fill="#233141" fill-opacity="0.501961" points="231,16 271,19 238,-16" />
<polygon fill="#a2774d" fill-opacity="0.501961" points="196,208 184,188 255,205" />
<polygon fill="#d1dcdf" fill-opacity="0.501961" points="102,46 103,99 76,45" />
<polygon fill="#373e43" fill-opacity="0.501961" points="61,39 57,51 91,42" />
<polygon fill="#2f2a28" fill-opacity="0.501961" points="219,60 234,161 249,99" />
<polygon fill="#4e2e12" fill-opacity="0.501961" points="53,172 66,182 75,181" />
<polygon fill="#30302c" fill-opacity="0.501961" points="38,62 17,37 14,69" />
<polygon fill="#190f0f" fill-opacity="0.501961" points="186,203 153,201 193,183" />
<polygon fill="#e0e0d0" fill-opacity="0.501961" points="252,52 241,45 233,80" />
<polygon fill="#e6f0ef" fill-opacity="0.501961" points="39,42 20,40 55,54" />
<polygon fill="#0f0704" fill-opacity="0.501961" points="73,164 57,166 64,158" />
<polygon fill="#000001" fill-opacity="0.501961" points="218,262 250,271 268,235" />
<polygon fill="#fcf6e4" fill-opacity="0.501961" points="8,206 68,186 42,221" />
<polygon fill="#0a0606" fill-opacity="0.501961" points="136,238 149,223 166,223" />
<polygon fill="#82a1a6" fill-opacity="0.501961" points="43,246 11,257 27,257" />
<polygon fill="#fffffd" fill-opacity="0.501961" points="114,196 100,202 88,193" />
<polygon fill="#f9f0d5" fill-opacity="0.501961" points="114,155 114,143 130,150" />
<polygon fill="#3b4342" fill-opacity="0.501961" points="81,212 100,197 61,212" />
<polygon fill="#ceac82" fill-opacity="0.501961" points="231,27 232,67 223,59" />
<polygon fill="#19303d" fill-opacity="0.501961" points="116,232 96,224 102,233" />
<polygon fill="#dae3d6" fill-opacity="0.501961" points="128,41 108,92 125,136" />
<polygon fill="#f5ebd2" fill-opacity="0.501961" points="182,239 189,204 163,205" />
<polygon fill="#ffffff" fill-opacity="0.501961" points="13,126 -5,120 31,122" />
<polygon fill="#e7ddbc" fill-opacity="0.501961" points="183,145 156,133 198,139" />
<polygon fill="#776454" fill-opacity="0.501961" points="248,120 253,83 271,148" />
<polygon fill="#454640" fill-opacity="0.501961" points="199,138 155,132 207,71" />
<polygon fill="#dffbff" fill-opacity="0.501961" points="107,231 82,224 86,232" />
<polygon fill="#fffff3" fill-opacity="0.501961" points="153,73 139,72 137,92" />
<polygon fill="#383535" fill-opacity="0.501961" points="139,153 118,159 105,153" />
<polygon fill="#543f28" fill-opacity="0.501961" points="72,179 90,191 103,189" />
<polygon fill="#e5dcc7" fill-opacity="0.501961" points="68,218 80,206 91,206" />
<polygon fill="#506167" fill-opacity="0.501961" points="137,55 141,-9 156,55" />
<polygon fill="#efe6c4" fill-opacity="0.501961" points="228,207 210,203 212,233" />
<polygon fill="#c5d2d9" fill-opacity="0.501961" points="20,71 19,123 42,62" />
<polygon fill="#a58661" fill-opacity="0.501961" points="24,149 43,111 71,120" />
<polygon fill="#1c110d" fill-opacity="0.501961" points="162,209 146,207 152,192" />
<polygon fill="#44342b" fill-opacity="0.501961" points="107,130 65,136 64,113" />
<polygon fill="#e1cba7" fill-opacity="0.501961" points="234,190 260,186 211,177" />
<polygon fill="#d2e5e9" fill-opacity="0.501961" points="135,44 90,40 99,-8" />
<polygon fill="#777a6e" fill-opacity="0.501961" points="158,73 179,78 164,132" />
<polygon fill="#999d9a" fill-opacity="0.501961" points="194,20 183,0 184,43" />
<polygon fill="#312827" fill-opacity="0.501961" points="253,33 237,39 271,41" />
<polygon fill="#ffffff" fill-opacity="0.501961" points="183,184 169,192 175,183" />
<polygon fill="#4c5653" fill-opacity="0.501961" points="101,43 105,57 105,29" />
<polygon fill="#f4cb98" fill-opacity="0.501961" points="140,211 95,211 124,200" />
<polygon fill="#8c954b" fill-opacity="0.501961" points="55,108 56,84 77,78" />
<polygon fill="#edd1a6" fill-opacity="0.501961" points="216,176 205,202 201,189" />
<polygon fill="#e18b36" fill-opacity="0.501961" points="160,210 167,224 128,205" />
<polygon fill="#6c5942" fill-opacity="0.501961" points="243,218 245,189 210,181" />
<polygon fill="#eae0be" fill-opacity="0.501961" points="148,203 119,192 134,187" />
<polygon fill="#3b5561" fill-opacity="0.501961" points="135,210 122,215 160,223" />
<polygon fill="#a9cedd" fill-opacity="0.501961" points="211,157 235,159 214,164" />
<polygon fill="#e9e0bf" fill-opacity="0.501961" points="165,172 192,170 139,158" />
<polygon fill="#a09d89" fill-opacity="0.501961" points="166,120 135,83 135,123" />
<polygon fill="#f6f3da" fill-opacity="0.501961" points="268,156 233,148 271,145" />
<polygon fill="#51453f" fill-opacity="0.501961" points="37,155 -11,175 21,137" />
<polygon fill="#e9e0c1" fill-opacity="0.501961" points="121,128 178,136 146,140" />
<polygon fill="#9a764e" fill-opacity="0.501961" points="243,185 259,160 226,144" />
<polygon fill="#95a8ac" fill-opacity="0.501961" points="50,-16 60,6 51,40" />
<polygon fill="#967a51" fill-opacity="0.501961" points="174,154 194,146 212,158" />
<polygon fill="#f1edd1" fill-opacity="0.501961" points="17,138 6,134 4,140" />
<polygon fill="#bea988" fill-opacity="0.501961" points="65,135 56,156 74,159" />
<polygon fill="#eff0e5" fill-opacity="0.501961" points="163,2 180,53 164,53" />
<polygon fill="#222428" fill-opacity="0.501961" points="102,159 76,160 73,140" />
<polygon fill="#edc78d" fill-opacity="0.501961" points="192,238 174,238 161,229" />
<polygon fill="#dbdad0" fill-opacity="0.501961" points="31,41 49,59 46,42" />
<polygon fill="#ebfcfd" fill-opacity="0.501961" points="122,221 107,226 118,231" />
<polygon fill="#cee4ef" fill-opacity="0.501961" points="106,46 131,48 117,93" />
<polygon fill="#faf5e2" fill-opacity="0.501961" points="30,103 59,115 63,106" />
<polygon fill="#111e28" fill-opacity="0.501961" points="-3,47 19,35 15,27" />
<polygon fill="#5c432f" fill-opacity="0.501961" points="-1,188 15,200 60,185" />
<polygon fill="#10110f" fill-opacity="0.501961" points="155,197 162,190 147,197" />
<polygon fill="#ffffff" fill-opacity="0.501961" points="48,24 49,-15 31,-1" />
<polygon fill="#ffecbf" fill-opacity="0.501961" points="247,164 240,157 236,165" />
<polygon fill="#21120e" fill-opacity="0.501961" points="271,210 231,195 261,187" />
<polygon fill="#45433d" fill-opacity="0.501961" points="17,127 39,122 11,147" />
<polygon fill="#a9b7b3" fill-opacity="0.501961" points="205,18 206,38 157,23" />
<polygon fill="#ffffff" fill-opacity="0.501961" points="62,216 77,211 71,216" />
<polygon fill="#957b55" fill-opacity="0.501961" points="103,143 103,107 112,112" />
<polygon fill="#70828c" fill-opacity="0.501961" points="-16,180 30,176 -16,194" />
<polygon fill="#ddb582" fill-opacity="0.501961" points="5,206 34,196 -2,198" />
<polygon fill="#324e53" fill-opacity="0.501961" points="204,5 186,-16 210,-11" />
<polygon fill="#282925" fill-opacity="0.501961" points="114,186 130,177 122,186" />
<polygon fill="#26120c" fill-opacity="0.501961" points="203,248 175,240 208,238" />
<polygon fill="#e9c393" fill-opacity="0.501961" points="99,191 56,177 55,189" />
<polygon fill="#464b4c" fill-opacity="0.501961" points="48,39 77,34 77,79" />
<polygon fill="#c5c8c4" fill-opacity="0.501961" points="14,72 -16,75 15,128" />
<polygon fill="#462c1b" fill-opacity="0.501961" points="96,207 76,222 61,220" />
<polygon fill="#fffff3" fill-opacity="0.501961" points="252,217 242,210 246,218" />
<polygon fill="#fdfdf1" fill-opacity="0.501961" points="222,232 207,226 189,232" />
<polygon fill="#887a66" fill-opacity="0.501961" points="48,59 17,61 17,70" />
<polygon fill="#cdb990" fill-opacity="0.501961" points="199,142 209,112 210,151" />
<polygon fill="#162029" fill-opacity="0.501961" points="23,42 5,68 40,54" />
<polygon fill="#a7b4b3" fill-opacity="0.501961" points="107,22 99,29 105,-2" />
<polygon fill="#31221b" fill-opacity="0.501961" points="229,164 186,186 187,173" />
<polygon fill="#4a4e49" fill-opacity="0.501961" points="118,120 101,131 119,127" />
<polygon fill="#be773d" fill-opacity="0.501961" points="223,255 226,245 252,243" />
<polygon fill="#24363e" fill-opacity="0.501961" points="87,45 96,41 100,45" />
<polygon fill="#394142" fill-opacity="0.501961" points="16,93 19,79 14,65" />
<polygon fill="#6d6f66" fill-opacity="0.501961" points="93,110 105,68 105,95" />
<polygon fill="#d0d6d6" fill-opacity="0.501961" points="80,98 80,55 103,92" />
<polygon fill="#fff8e6" fill-opacity="0.501961" points="23,171 -10,181 -11,171" />
<polygon fill="#b1bbbb" fill-opacity="0.501961" points="18,80 43,135 40,69" />
<polygon fill="#3a372d" fill-opacity="0.501961" points="182,167 155,155 179,154" />
<polygon fill="#1f2a31" fill-opacity="0.501961" points="106,228 98,224 90,228" />
<polygon fill="#414c4c" fill-opacity="0.501961" points="238,45 233,52 239,67" />
<polygon fill="#c5c5b8" fill-opacity="0.501961" points="83,229 97,210 75,221" />
<polygon fill="#d4cbb1" fill-opacity="0.501961" points="104,170 80,164 101,158" />
<polygon fill="#f2ebcd" fill-opacity="0.501961" points="103,186 83,172 70,177" />
<polygon fill="#c3b48d" fill-opacity="0.501961" points="207,210 241,208 231,218" />
<polygon fill="#dadfd9" fill-opacity="0.501961" points="213,55 186,2 190,55" />
<polygon fill="#cab89f" fill-opacity="0.501961" points="128,244 104,251 84,237" />
<polygon fill="#000007" fill-opacity="0.501961" points="225,245 231,239 208,244" />
<polygon fill="#d4dfe2" fill-opacity="0.501961" points="3,-5 8,36 -16,17" />
<polygon fill="#bc9d7b" fill-opacity="0.501961" points="93,141 98,133 76,137" />
<polygon fill="#6e8284" fill-opacity="0.501961" points="113,230 151,219 129,235" />
<polygon fill="#292926" fill-opacity="0.501961" points="98,236 69,226 85,237" />
<polygon fill="#58574b" fill-opacity="0.501961" points="220,60 196,59 217,92" />
<polygon fill="#272425" fill-opacity="0.501961" points="233,87 251,98 245,140" />
<polygon fill="#27373b" fill-opacity="0.501961" points="18,130 -16,121 1,131" />
<polygon fill="#020e14" fill-opacity="0.501961" points="131,238 116,239 109,230" />
<polygon fill="#a17754" fill-opacity="0.501961" points="149,241 205,247 133,261" />
<polygon fill="#1e2022" fill-opacity="0.501961" points="127,128 134,128 132,108" />
<polygon fill="#756454" fill-opacity="0.501961" points="249,125 271,137 255,77" />
<polygon fill="#5d3d24" fill-opacity="0.501961" points="112,195 102,206 121,197" />
<polygon fill="#161f29" fill-opacity="0.501961" points="205,85 207,71 155,70" />
<polygon fill="#99b4b6" fill-opacity="0.501961" points="45,244 50,245 39,249" />
<polygon fill="#2f2119" fill-opacity="0.501961" points="154,210 148,203 133,201" />
<polygon fill="#604e3c" fill-opacity="0.501961" points="232,34 232,53 243,26" />
<polygon fill="#917753" fill-opacity="0.501961" points="132,154 148,141 171,148" />
<polygon fill="#927b5e" fill-opacity="0.501961" points="114,134 114,146 143,143" />
<polygon fill="#5f5b58" fill-opacity="0.501961" points="84,96 95,107 61,110" />
<polygon fill="#cd9d64" fill-opacity="0.501961" points="35,162 58,160 45,173" />
<polygon fill="#ebe2c8" fill-opacity="0.501961" points="123,140 139,148 128,151" />
<polygon fill="#bdad88" fill-opacity="0.501961" points="152,67 185,68 156,54" />
<polygon fill="#bda981" fill-opacity="0.501961" points="137,167 164,177 196,169" />
<polygon fill="#8ca0a0" fill-opacity="0.501961" points="142,13 133,-13 136,38" />
<polygon fill="#9a8b74" fill-opacity="0.501961" points="95,154 90,151 103,144" />
<polygon fill="#fffeeb" fill-opacity="0.501961" points="217,180 239,181 230,185" />
<polygon fill="#0b090d" fill-opacity="0.501961" points="-4,246 -10,271 40,240" />
<polygon fill="#ffffff" fill-opacity="0.501961" points="251,132 271,133 270,121" />
<polygon fill="#ebe2cc" fill-opacity="0.501961" points="169,229 162,205 222,215" />
<polygon fill="#edf0e0" fill-opacity="0.501961" points="106,199 97,198 89,207" />
<polygon fill="#d4bf97" fill-opacity="0.501961" points="263,76 234,77 233,65" />
<polygon fill="#252b2a" fill-opacity="0.501961" points="148,69 137,68 133,75" />
<polygon fill="#1e1e1b" fill-opacity="0.501961" points="66,210 80,210 84,205" />
<polygon fill="#9a9173" fill-opacity="0.501961" points="151,194 171,183 118,170" />
<polygon fill="#e3f1ef" fill-opacity="0.501961" points="133,62 134,49 119,47" />
<polygon fill="#f3f3e8" fill-opacity="0.501961" points="61,188 11,205 65,218" />
<polygon fill="#fffff2" fill-opacity="0.501961" points="271,234 247,215 266,221" />
<polygon fill="#e1ddc3" fill-opacity="0.501961" points="128,169 99,162 113,170" />
<polygon fill="#c56d2b" fill-opacity="0.501961" points="196,190 210,202 189,193" />
<polygon fill="#d9b88d" fill-opacity="0.501961" points="248,115 251,108 255,112" />
<polygon fill="#e7e7cf" fill-opacity="0.501961" points="108,106 99,111 93,109" />
<polygon fill="#b6a988" fill-opacity="0.501961" points="146,203 158,195 135,200" />
<polygon fill="#f5f7e9" fill-opacity="0.501961" points="120,186 135,186 129,182" />
<polygon fill="#a8b5b2" fill-opacity="0.501961" points="53,42 54,75 47,67" />
<polygon fill="#443631" fill-opacity="0.501961" points="46,152 56,129 54,162" />
<polygon fill="#fdffff" fill-opacity="0.501961" points="90,234 101,230 100,227" />
<polygon fill="#242221" fill-opacity="0.501961" points="259,241 227,234 238,211" />
<polygon fill="#c0aa89" fill-opacity="0.501961" points="23,210 43,215 43,223" />
<polygon fill="#292422" fill-opacity="0.501961" points="12,167 -3,167 -13,124" />
<polygon fill="#2b3941" fill-opacity="0.501961" points="15,33 6,43 -1,35" />
<polygon fill="#392825" fill-opacity="0.501961" points="23,167 36,146 31,169" />
<polygon fill="#5e3d2a" fill-opacity="0.501961" points="221,202 190,195 177,205" />
<polygon fill="#516066" fill-opacity="0.501961" points="53,44 78,-5 59,-2" />
<polygon fill="#ffffff" fill-opacity="0.501961" points="250,61 248,51 252,53" />
<polygon fill="#a7bdc4" fill-opacity="0.501961" points="223,16 223,-16 205,6" />
<polygon fill="#fafbf0" fill-opacity="0.501961" points="222,10 223,60 206,55" />
<polygon fill="#929a95" fill-opacity="0.501961" points="166,27 160,5 160,49" />
<polygon fill="#58605e" fill-opacity="0.501961" points="245,231 243,221 266,224" />
<polygon fill="#312d29" fill-opacity="0.501961" points="84,204 91,200 100,201" />
<polygon fill="#ffffff" fill-opacity="0.501961" points="132,12 107,32 106,-16" />
<polygon fill="#7c8a4c" fill-opacity="0.501961" points="66,77 53,101 83,88" />
<polygon fill="#572e0f" fill-opacity="0.501961" points="250,161 243,155 263,159" />
<polygon fill="#5a757d" fill-opacity="0.501961" points="132,213 157,220 146,228" />
<polygon fill="#f6ebb7" fill-opacity="0.501961" points="235,240 236,242 242,240" />
<polygon fill="#0b090e" fill-opacity="0.501961" points="13,259 53,246 101,271" />
<polygon fill="#626969" fill-opacity="0.501961" points="147,25 133,57 158,56" />
<polygon fill="#262a2d" fill-opacity="0.501961" points="234,159 208,174 233,178" />
<polygon fill="#020201" fill-opacity="0.501961" points="127,190 129,186 124,188" />
<polygon fill="#e0dbd9" fill-opacity="0.501961" points="40,34 32,18 18,35" />
<polygon fill="#e8e5d3" fill-opacity="0.501961" points="125,175 136,175 146,181" />
<polygon fill="#78685a" fill-opacity="0.501961" points="221,155 230,145 250,142" />
<polygon fill="#fff1cb" fill-opacity="0.501961" points="8,195 -16,202 -5,193" />
<polygon fill="#a1a08f" fill-opacity="0.501961" points="160,94 160,74 134,108" />
<polygon fill="#ebddbc" fill-opacity="0.501961" points="116,57 158,59 137,66" />
<polygon fill="#cc985d" fill-opacity="0.501961" points="176,243 162,244 161,212" />
<polygon fill="#c48e55" fill-opacity="0.501961" points="131,202 121,206 145,216" />
<polygon fill="#38393b" fill-opacity="0.501961" points="-16,212 33,234 -16,250" />
<polygon fill="#262a24" fill-opacity="0.501961" points="163,187 161,193 169,190" />
<polygon fill="#553e2a" fill-opacity="0.501961" points="119,166 121,157 91,158" />
<polygon fill="#8e7a60" fill-opacity="0.501961" points="222,204 257,207 215,190" />
<polygon fill="#9f8464" fill-opacity="0.501961" points="-16,123 15,145 3,146" />
<polygon fill="#d49a5b" fill-opacity="0.501961" points="120,206 135,205 112,195" />
<polygon fill="#a0997e" fill-opacity="0.501961" points="104,183 91,163 117,169" />
<polygon fill="#fffae7" fill-opacity="0.501961" points="35,172 54,177 43,181" />
<polygon fill="#ffffff" fill-opacity="0.501961" points="4,133 -16,134 -16,126" />
<polygon fill="#796f5e" fill-opacity="0.501961" points="23,157 8,150 7,164" />
<polygon fill="#cce1e5" fill-opacity="0.501961" points="102,25 102,42 78,38" />
<polygon fill="#7b8783" fill-opacity="0.501961" points="247,73 239,66 246,62" />
<polygon fill="#efe9d6" fill-opacity="0.501961" points="10,176 14,166 42,173" />
</g>
</svg>