<svg xmlns="http://www.w3.org/2000/svg" version="1.1" width="1024" height="924">
<rect x="0" y="0" width="1024" height="924" fill="#bbbebc" />
<g transform="scale(4.000000) translate(0.5 0.5)">
<polygon fill="#2377d8" fill-opacity="0.501961" points="-9,30 -16,241 166,139" />
<polygon fill="#ffbc21" fill-opacity="0.501961" points="251,246 271,46 109,142" />
<polygon fill="#ffffff" fill-opacity="0.501961" points="-16,5 249,94 269,1" />
<polygon fill="#3b8cea" fill-opacity="0.501961" points="145,246 30,56 145,52" />
<polygon fill="#ff9f00" fill-opacity="0.501961" points="206,77 144,79 149,246" />
<polygon fill="#ffffff" fill-opacity="0.501961" points="1,52 18,-16 271,55" />
<polygon fill="#ffffff" fill-opacity="0.501961" points="190,96 183,165 271,127" />
<polygon fill="#000000" fill-opacity="0.501961" points="5,89 -16,145 2,216" />
<polygon fill="#6ca3e0" fill-opacity="0.501961" points="144,246 145,56 4,198" />
<polygon fill="#ff9300" fill-opacity="0.501961" points="269,77 271,145 198,77" />
<polygon fill="#ffad26" fill-opacity="0.501961" points="258,246 144,189 268,150" />
<polygon fill="#000000" fill-opacity="0.501961" points="2,-4 4,114 -16,65" />
<polygon fill="#ffffff" fill-opacity="0.501961" points="158,232 167,181 220,245" />
<polygon fill="#000000" fill-opacity="0.501961" points="32,-16 -2,1 91,0" />
<polygon fill="#ffffff" fill-opacity="0.501961" points="135,75 271,77 237,1" />
<polygon fill="#000000" fill-opacity="0.501961" points="258,1 139,1 202,-16" />
<polygon fill="#ffffff" fill-opacity="0.501961" points="82,246 8,246 43,191" />
<polygon fill="#ffffff" fill-opacity="0.501961" points="271,66 -16,44 207,1" />
<polygon fill="#000000" fill-opacity="0.501961" points="127,1 132,-16 90,0" />
<polygon fill="#000000" fill-opacity="0.501961" points="-16,181 2,246 2,160" />
<polygon fill="#ffa422" fill-opacity="0.501961" points="246,224 148,100 182,209" />
<polygon fill="#fbf2f6" fill-opacity="0.501961" points="173,125 234,101 217,173" />
<polygon fill="#ffa824" fill-opacity="0.501961" points="232,78 148,79 154,149" />
<polygon fill="#ffffff" fill-opacity="0.501961" points="137,54 18,2 -2,50" />
<polygon fill="#fffdf0" fill-opacity="0.501961" points="143,246 271,230 164,215" />
<polygon fill="#4388d8" fill-opacity="0.501961" points="93,180 47,203 93,246" />
<polygon fill="#ffffff" fill-opacity="0.501961" points="271,2 245,78 8,2" />
<polygon fill="#000000" fill-opacity="0.501961" points="271,2 154,0 213,-16" />
<polygon fill="#fcf7f2" fill-opacity="0.501961" points="35,200 83,165 54,172" />
<polygon fill="#f8f8fb" fill-opacity="0.501961" points="120,186 121,210 89,198" />
<polygon fill="#6999ce" fill-opacity="0.501961" points="29,54 149,54 110,206" />
<polygon fill="#000000" fill-opacity="0.501961" points="12,2 5,-16 71,0" />
<polygon fill="#000000" fill-opacity="0.501961" points="-16,121 2,57 3,183" />
<polygon fill="#ffffff" fill-opacity="0.501961" points="271,77 147,76 142,3" />
<polygon fill="#ffffff" fill-opacity="0.501961" points="172,246 148,225 86,230" />
<polygon fill="#ff9e0f" fill-opacity="0.501961" points="271,147 245,183 248,104" />
<polygon fill="#ffffff" fill-opacity="0.501961" points="217,167 196,159 237,158" />
<polygon fill="#ffffff" fill-opacity="0.501961" points="10,246 65,232 41,193" />
<polygon fill="#ffffff" fill-opacity="0.501961" points="3,2 197,51 7,54" />
<polygon fill="#f8a92c" fill-opacity="0.501961" points="196,122 242,120 217,129" />
<polygon fill="#000000" fill-opacity="0.501961" points="73,2 43,-16 117,-1" />
<polygon fill="#f5f9ff" fill-opacity="0.501961" points="187,126 244,146 247,127" />
<polygon fill="#000000" fill-opacity="0.501961" points="-16,22 -3,69 6,-16" />
<polygon fill="#ffac36" fill-opacity="0.501961" points="166,136 201,225 271,223" />
<polygon fill="#f7fcff" fill-opacity="0.501961" points="214,100 253,117 191,115" />
<polygon fill="#000000" fill-opacity="0.501961" points="117,1 113,-16 174,1" />
<polygon fill="#ffcc92" fill-opacity="0.501961" points="271,187 210,195 220,178" />
<polygon fill="#ffa321" fill-opacity="0.501961" points="161,167 144,220 159,230" />
<polygon fill="#ffa721" fill-opacity="0.501961" points="264,73 199,102 250,104" />
<polygon fill="#4f8cd2" fill-opacity="0.501961" points="72,228 139,225 144,201" />
<polygon fill="#fcf9fc" fill-opacity="0.501961" points="163,234 164,182 202,229" />
<polygon fill="#6a9ed8" fill-opacity="0.501961" points="3,191 3,66 145,145" />
<polygon fill="#ffffff" fill-opacity="0.501961" points="101,220 91,197 100,186" />
<polygon fill="#ffac3a" fill-opacity="0.501961" points="199,80 153,218 149,76" />
<polygon fill="#ffa320" fill-opacity="0.501961" points="215,180 175,158 264,178" />
<polygon fill="#000000" fill-opacity="0.501961" points="3,174 2,244 -16,226" />
<polygon fill="#000000" fill-opacity="0.501961" points="3,111 -16,45 2,50" />
<polygon fill="#ffaa2f" fill-opacity="0.501961" points="217,84 252,128 271,75" />
<polygon fill="#000000" fill-opacity="0.501961" points="-2,1 75,0 20,-16" />
<polygon fill="#fffff7" fill-opacity="0.501961" points="111,211 116,186 124,204" />
<polygon fill="#f1ffff" fill-opacity="0.501961" points="188,89 196,88 198,93" />
<polygon fill="#f7e1cb" fill-opacity="0.501961" points="251,183 226,195 233,200" />
<polygon fill="#5490d4" fill-opacity="0.501961" points="108,174 114,221 98,228" />
<polygon fill="#df993a" fill-opacity="0.501961" points="147,229 159,185 146,147" />
<polygon fill="#b9cce2" fill-opacity="0.501961" points="73,164 74,175 110,156" />
<polygon fill="#ffffff" fill-opacity="0.501961" points="88,1 9,52 5,1" />
<polygon fill="#fc9f15" fill-opacity="0.501961" points="224,204 218,185 238,186" />
<polygon fill="#6195cf" fill-opacity="0.501961" points="145,228 108,168 145,58" />
<polygon fill="#ffffff" fill-opacity="0.501961" points="271,2 7,3 207,78" />
<polygon fill="#ffffff" fill-opacity="0.501961" points="261,1 212,2 271,101" />
<polygon fill="#ffcb87" fill-opacity="0.501961" points="236,161 206,150 250,136" />
<polygon fill="#000000" fill-opacity="0.501961" points="0,50 3,-3 -13,32" />
<polygon fill="#f3f9ff" fill-opacity="0.501961" points="185,148 208,166 186,122" />
<polygon fill="#ffffff" fill-opacity="0.501961" points="150,77 190,73 130,-5" />
<polygon fill="#000000" fill-opacity="0.501961" points="18,1 71,-16 118,1" />
<polygon fill="#ffa320" fill-opacity="0.501961" points="271,124 271,220 237,220" />
<polygon fill="#699bd2" fill-opacity="0.501961" points="143,215 145,53 23,56" />
<polygon fill="#ffffff" fill-opacity="0.501961" points="7,227 -16,246 62,232" />
<polygon fill="#5f94ce" fill-opacity="0.501961" points="57,220 71,171 47,196" />
<polygon fill="#f1f8ff" fill-opacity="0.501961" points="197,108 186,125 227,102" />
<polygon fill="#feeeec" fill-opacity="0.501961" points="205,246 209,227 271,225" />
<polygon fill="#f0ece6" fill-opacity="0.501961" points="214,198 217,181 223,180" />
<polygon fill="#fffff6" fill-opacity="0.501961" points="182,226 137,242 106,229" />
<polygon fill="#000000" fill-opacity="0.501961" points="104,1 75,-16 140,-1" />
<polygon fill="#000000" fill-opacity="0.501961" points="-16,136 2,188 2,69" />
<polygon fill="#ffa526" fill-opacity="0.501961" points="236,191 266,130 235,161" />
<polygon fill="#f2f4fc" fill-opacity="0.501961" points="214,127 247,144 247,128" />
<polygon fill="#fea82f" fill-opacity="0.501961" points="217,78 270,77 175,117" />
<polygon fill="#fffffe" fill-opacity="0.501961" points="116,246 141,230 59,229" />
<polygon fill="#fdaa32" fill-opacity="0.501961" points="236,98 270,181 257,78" />
<polygon fill="#fdae3d" fill-opacity="0.501961" points="193,181 164,129 175,88" />
<polygon fill="#5b97d9" fill-opacity="0.501961" points="3,179 12,227 24,222" />
<polygon fill="#000000" fill-opacity="0.501961" points="257,0 169,1 200,-15" />
<polygon fill="#6196d1" fill-opacity="0.501961" points="62,201 122,179 75,172" />
<polygon fill="#ffdfb5" fill-opacity="0.501961" points="178,205 225,230 190,222" />
<polygon fill="#6296cf" fill-opacity="0.501961" points="3,221 97,137 4,174" />
<polygon fill="#679bd4" fill-opacity="0.501961" points="4,63 143,59 4,159" />
<polygon fill="#ffffff" fill-opacity="0.501961" points="4,54 127,49 3,5" />
<polygon fill="#fde0ce" fill-opacity="0.501961" points="178,193 165,184 168,177" />
<polygon fill="#f1f4fd" fill-opacity="0.501961" points="192,113 227,104 244,116" />
<polygon fill="#f6eae3" fill-opacity="0.501961" points="225,166 242,154 210,161" />
<polygon fill="#fefcfc" fill-opacity="0.501961" points="34,244 60,215 84,246" />
<polygon fill="#1d1c1d" fill-opacity="0.501961" points="71,2 63,-16 40,1" />
<polygon fill="#fffffa" fill-opacity="0.501961" points="116,203 118,217 110,200" />
<polygon fill="#ffa92f" fill-opacity="0.501961" points="153,180 228,168 153,159" />
<polygon fill="#f0f3f5" fill-opacity="0.501961" points="213,129 185,127 212,166" />
<polygon fill="#feab32" fill-opacity="0.501961" points="225,83 239,110 180,79" />
<polygon fill="#feb040" fill-opacity="0.501961" points="219,153 237,155 242,140" />
<polygon fill="#f3f4fb" fill-opacity="0.501961" points="245,180 243,186 250,186" />
<polygon fill="#edf9ff" fill-opacity="0.501961" points="194,101 191,97 188,102" />
<polygon fill="#fffffa" fill-opacity="0.501961" points="96,215 104,197 95,194" />
<polygon fill="#f3f9ff" fill-opacity="0.501961" points="221,182 233,185 234,181" />
<polygon fill="#000000" fill-opacity="0.501961" points="2,174 2,241 -16,189" />
<polygon fill="#ffffff" fill-opacity="0.501961" points="1,49 156,2 10,4" />
<polygon fill="#fbd398" fill-opacity="0.501961" points="180,119 179,104 174,115" />
<polygon fill="#fffaf3" fill-opacity="0.501961" points="33,209 41,242 47,184" />
<polygon fill="#fbad3a" fill-opacity="0.501961" points="256,116 255,100 229,125" />
<polygon fill="#faaa32" fill-opacity="0.501961" points="181,137 155,139 194,101" />
<polygon fill="#80a9d6" fill-opacity="0.501961" points="109,113 32,139 65,150" />
<polygon fill="#f1f4fb" fill-opacity="0.501961" points="187,148 202,106 189,116" />
<polygon fill="#000000" fill-opacity="0.501961" points="3,39 -16,26 1,-16" />
<polygon fill="#c3d5e8" fill-opacity="0.501961" points="23,157 34,150 26,148" />
<polygon fill="#fdaa31" fill-opacity="0.501961" points="163,168 197,216 218,183" />
<polygon fill="#ffa82e" fill-opacity="0.501961" points="236,160 246,193 222,167" />
<polygon fill="#ffb644" fill-opacity="0.501961" points="151,216 164,198 160,225" />
<polygon fill="#ffffff" fill-opacity="0.501961" points="153,77 181,3 271,77" />
<polygon fill="#e1e7ed" fill-opacity="0.501961" points="50,184 61,171 81,167" />
<polygon fill="#ffffff" fill-opacity="0.501961" points="262,3 140,3 148,76" />
<polygon fill="#f7b142" fill-opacity="0.501961" points="203,119 218,125 196,125" />
<polygon fill="#6297d3" fill-opacity="0.501961" points="67,226 125,225 88,212" />
<polygon fill="#000000" fill-opacity="0.501961" points="144,0 225,1 190,-12" />
<polygon fill="#f2f3f6" fill-opacity="0.501961" points="185,131 190,150 247,123" />
<polygon fill="#fea82d" fill-opacity="0.501961" points="217,218 271,163 256,200" />
<polygon fill="#fffaf4" fill-opacity="0.501961" points="115,185 119,211 113,199" />
<polygon fill="#ffffff" fill-opacity="0.501961" points="134,-2 132,53 71,51" />
<polygon fill="#6599d1" fill-opacity="0.501961" points="106,226 46,200 59,180" />
<polygon fill="#6397d2" fill-opacity="0.501961" points="104,194 145,158 94,179" />
<polygon fill="#000000" fill-opacity="0.501961" points="-9,1 52,-16 113,1" />
<polygon fill="#d9e1eb" fill-opacity="0.501961" points="14,147 23,147 22,150" />
<polygon fill="#fbab35" fill-opacity="0.501961" points="149,145 174,123 218,204" />
<polygon fill="#f4f3fa" fill-opacity="0.501961" points="206,165 184,135 191,154" />
<polygon fill="#ffffff" fill-opacity="0.501961" points="43,39 -8,44 16,52" />
<polygon fill="#feab34" fill-opacity="0.501961" points="252,102 244,179 271,194" />
<polygon fill="#feaa31" fill-opacity="0.501961" points="241,186 258,129 238,161" />
<polygon fill="#9cbbdc" fill-opacity="0.501961" points="115,150 104,165 77,168" />
<polygon fill="#ffaa2b" fill-opacity="0.501961" points="198,98 152,98 164,78" />
<polygon fill="#f2f4f6" fill-opacity="0.501961" points="158,246 166,187 186,219" />
<polygon fill="#000000" fill-opacity="0.501961" points="-6,77 -2,38 3,57" />
<polygon fill="#6699d1" fill-opacity="0.501961" points="107,162 62,178 84,212" />
<polygon fill="#fcab37" fill-opacity="0.501961" points="215,226 245,219 220,188" />
<polygon fill="#fff8f3" fill-opacity="0.501961" points="142,227 166,246 91,229" />
<polygon fill="#faa72e" fill-opacity="0.501961" points="188,116 205,100 179,105" />
<polygon fill="#f1ffff" fill-opacity="0.501961" points="194,92 198,90 190,91" />
<polygon fill="#e9edf0" fill-opacity="0.501961" points="47,189 52,176 64,176" />
<polygon fill="#90b4dd" fill-opacity="0.501961" points="13,66 42,92 29,72" />
<polygon fill="#cf9443" fill-opacity="0.501961" points="154,99 146,78 147,127" />
<polygon fill="#6198d5" fill-opacity="0.501961" points="5,224 35,192 21,226" />
<polygon fill="#fcaa33" fill-opacity="0.501961" points="241,101 197,79 196,102" />
<polygon fill="#689bd2" fill-opacity="0.501961" points="145,193 5,54 144,54" />
<polygon fill="#6698d0" fill-opacity="0.501961" points="144,226 143,164 114,224" />
<polygon fill="#fffff7" fill-opacity="0.501961" points="100,102 98,102 101,106" />
<polygon fill="#404040" fill-opacity="0.501961" points="212,2 208,0 202,2" />
<polygon fill="#97b7dc" fill-opacity="0.501961" points="121,99 136,120 120,108" />
<polygon fill="#f1f2f2" fill-opacity="0.501961" points="188,235 165,177 172,246" />
<polygon fill="#f2f0ef" fill-opacity="0.501961" points="198,220 157,229 248,245" />
<polygon fill="#689ad1" fill-opacity="0.501961" points="79,107 91,157 53,175" />
<polygon fill="#000000" fill-opacity="0.501961" points="257,-1 193,-16 195,1" />
<polygon fill="#ffffff" fill-opacity="0.501961" points="91,53 51,2 50,54" />
<polygon fill="#000000" fill-opacity="0.501961" points="146,-3 138,2 130,-6" />
<polygon fill="#f2f5fc" fill-opacity="0.501961" points="247,132 241,122 244,148" />
<polygon fill="#f0ffff" fill-opacity="0.501961" points="238,193 239,189 242,193" />
<polygon fill="#8db1da" fill-opacity="0.501961" points="99,116 74,125 106,123" />
<polygon fill="#f3d4a3" fill-opacity="0.501961" points="241,146 242,134 222,143" />
<polygon fill="#8cafd9" fill-opacity="0.501961" points="59,86 39,76 40,65" />
<polygon fill="#f2f5ff" fill-opacity="0.501961" points="197,94 191,90 196,91" />
<polygon fill="#ffffff" fill-opacity="0.501961" points="23,227 4,227 6,235" />
<polygon fill="#eeeff0" fill-opacity="0.501961" points="35,203 54,176 49,192" />
<polygon fill="#fcaa33" fill-opacity="0.501961" points="207,222 183,192 227,197" />
<polygon fill="#c9d7e6" fill-opacity="0.501961" points="85,139 87,141 91,136" />
<polygon fill="#000000" fill-opacity="0.501961" points="3,116 0,160 -16,82" />
<polygon fill="#f0f0f0" fill-opacity="0.501961" points="219,166 204,158 231,162" />
<polygon fill="#f4dcb6" fill-opacity="0.501961" points="209,140 203,152 229,163" />
<polygon fill="#f0f7ff" fill-opacity="0.501961" points="220,121 235,113 200,117" />
<polygon fill="#eeeef0" fill-opacity="0.501961" points="76,142 71,138 73,143" />
<polygon fill="#ffffff" fill-opacity="0.501961" points="47,42 220,14 133,1" />
<polygon fill="#fbaa32" fill-opacity="0.501961" points="229,173 229,199 220,189" />
<polygon fill="#6699d1" fill-opacity="0.501961" points="82,147 44,186 54,133" />
<polygon fill="#6698d1" fill-opacity="0.501961" points="140,200 124,167 120,199" />
<polygon fill="#85acd8" fill-opacity="0.501961" points="16,84 39,113 16,96" />
<polygon fill="#fbab34" fill-opacity="0.501961" points="182,116 152,224 152,87" />
<polygon fill="#bccfe5" fill-opacity="0.501961" points="62,178 67,169 90,165" />
<polygon fill="#5a92d1" fill-opacity="0.501961" points="111,206 102,201 105,222" />
<polygon fill="#f9f4f2" fill-opacity="0.501961" points="113,186 123,201 116,213" />
<polygon fill="#000000" fill-opacity="0.501961" points="3,126 2,52 -16,67" />
<polygon fill="#faab36" fill-opacity="0.501961" points="260,169 257,130 232,191" />
<polygon fill="#f4f3f3" fill-opacity="0.501961" points="83,246 5,246 41,202" />
<polygon fill="#fa9d12" fill-opacity="0.501961" points="242,144 232,151 238,151" />
<polygon fill="#fbaa33" fill-opacity="0.501961" points="218,168 156,153 216,189" />
<polygon fill="#000000" fill-opacity="0.501961" points="143,1 111,-16 185,-3" />
<polygon fill="#f6ba5b" fill-opacity="0.501961" points="200,128 205,120 196,120" />
<polygon fill="#6197d2" fill-opacity="0.501961" points="34,142 15,163 31,126" />
<polygon fill="#f2efeb" fill-opacity="0.501961" points="233,200 227,200 234,193" />
<polygon fill="#8eb2da" fill-opacity="0.501961" points="117,103 101,102 109,94" />
<polygon fill="#fbab34" fill-opacity="0.501961" points="174,188 229,198 250,225" />
<polygon fill="#000000" fill-opacity="0.501961" points="225,-16 253,1 167,1" />
<polygon fill="#b1c8e3" fill-opacity="0.501961" points="35,136 52,142 38,142" />
<polygon fill="#fbab33" fill-opacity="0.501961" points="271,78 238,108 175,79" />
<polygon fill="#fcf6f4" fill-opacity="0.501961" points="95,193 100,206 94,216" />
<polygon fill="#6497d1" fill-opacity="0.501961" points="57,215 61,180 46,198" />
<polygon fill="#ffffff" fill-opacity="0.501961" points="271,77 108,20 167,77" />
<polygon fill="#ffffff" fill-opacity="0.501961" points="69,53 4,2 7,53" />
<polygon fill="#d29a55" fill-opacity="0.501961" points="146,118 154,145 146,172" />
<polygon fill="#f8f5f2" fill-opacity="0.501961" points="102,210 92,198 98,186" />
<polygon fill="#f3f3f7" fill-opacity="0.501961" points="245,130 232,142 244,120" />
<polygon fill="#669ad3" fill-opacity="0.501961" points="134,223 61,208 72,229" />
<polygon fill="#edffff" fill-opacity="0.501961" points="217,190 218,195 213,192" />
<polygon fill="#f2efec" fill-opacity="0.501961" points="191,119 210,167 184,141" />
<polygon fill="#5e94d0" fill-opacity="0.501961" points="96,182 107,199 113,191" />
<polygon fill="#000000" fill-opacity="0.501961" points="2,236 -16,169 2,141" />
<polygon fill="#fba72a" fill-opacity="0.501961" points="224,198 235,193 241,177" />
<polygon fill="#fcd69f" fill-opacity="0.501961" points="171,102 177,112 183,112" />
<polygon fill="#ffc677" fill-opacity="0.501961" points="205,218 196,217 189,209" />
<polygon fill="#000000" fill-opacity="0.501961" points="91,-11 124,1 157,-6" />
<polygon fill="#679ad2" fill-opacity="0.501961" points="140,141 143,203 120,199" />
<polygon fill="#6599d3" fill-opacity="0.501961" points="4,184 4,90 26,102" />
<polygon fill="#ffffff" fill-opacity="0.501961" points="25,20 1,42 5,54" />
<polygon fill="#fba930" fill-opacity="0.501961" points="182,105 188,89 167,112" />
<polygon fill="#6799d2" fill-opacity="0.501961" points="22,223 62,151 11,163" />
<polygon fill="#f8bf67" fill-opacity="0.501961" points="230,159 223,152 236,155" />
<polygon fill="#f8b651" fill-opacity="0.501961" points="232,125 238,118 220,124" />
<polygon fill="#f2f3f6" fill-opacity="0.501961" points="237,119 216,103 201,106" />
<polygon fill="#f0fdff" fill-opacity="0.501961" points="226,182 218,181 220,179" />
<polygon fill="#ffb85a" fill-opacity="0.501961" points="160,221 153,229 147,225" />
<polygon fill="#ffffff" fill-opacity="0.501961" points="269,82 261,-1 179,50" />
<polygon fill="#fffff7" fill-opacity="0.501961" points="64,131 65,133 63,133" />
<polygon fill="#6799d1" fill-opacity="0.501961" points="47,176 108,152 136,106" />
<polygon fill="#ffb24b" fill-opacity="0.501961" points="244,217 271,223 228,226" />
<polygon fill="#6a9acf" fill-opacity="0.501961" points="146,226 116,217 145,167" />
<polygon fill="#6699d2" fill-opacity="0.501961" points="63,55 71,140 133,56" />
<polygon fill="#f2f4f6" fill-opacity="0.501961" points="189,118 184,138 208,134" />
<polygon fill="#d79b42" fill-opacity="0.501961" points="145,206 146,173 154,204" />
<polygon fill="#c7d7e9" fill-opacity="0.501961" points="51,135 57,131 57,128" />
<polygon fill="#faab34" fill-opacity="0.501961" points="261,67 262,143 239,111" />
<polygon fill="#f8f3f0" fill-opacity="0.501961" points="102,199 103,197 107,201" />
<polygon fill="#fbaf40" fill-opacity="0.501961" points="182,108 167,141 184,140" />
<polygon fill="#6699d2" fill-opacity="0.501961" points="63,126 93,121 24,54" />
<polygon fill="#fec781" fill-opacity="0.501961" points="181,196 173,187 181,207" />
<polygon fill="#97b7dc" fill-opacity="0.501961" points="41,97 54,102 33,84" />
<polygon fill="#ffffff" fill-opacity="0.501961" points="262,53 53,53 132,0" />
<polygon fill="#b8cce3" fill-opacity="0.501961" points="126,87 126,84 131,90" />
<polygon fill="#f2f6ff" fill-opacity="0.501961" points="224,120 239,115 232,108" />
<polygon fill="#f9a934" fill-opacity="0.501961" points="178,81 152,161 151,79" />
<polygon fill="#e8e8e8" fill-opacity="0.501961" points="39,1 45,4 50,1" />
<polygon fill="#f8debe" fill-opacity="0.501961" points="245,148 237,151 233,161" />
<polygon fill="#f8a82c" fill-opacity="0.501961" points="232,152 240,148 237,156" />
<polygon fill="#689ad2" fill-opacity="0.501961" points="85,208 111,158 53,199" />
<polygon fill="#6196d0" fill-opacity="0.501961" points="134,99 111,105 98,121" />
<polygon fill="#6397d1" fill-opacity="0.501961" points="3,57 9,87 52,104" />
<polygon fill="#f4f2f0" fill-opacity="0.501961" points="147,226 156,236 118,227" />
<polygon fill="#000000" fill-opacity="0.501961" points="3,36 -16,57 -3,-16" />
<polygon fill="#faf6f2" fill-opacity="0.501961" points="94,193 99,192 90,201" />
<polygon fill="#6699d1" fill-opacity="0.501961" points="56,184 45,198 60,197" />
<polygon fill="#9fbdde" fill-opacity="0.501961" points="73,129 87,123 89,127" />
<polygon fill="#6598d1" fill-opacity="0.501961" points="80,123 123,145 98,151" />
<polygon fill="#f7f4f2" fill-opacity="0.501961" points="109,200 115,208 124,201" />
<polygon fill="#689ad2" fill-opacity="0.501961" points="132,148 53,189 128,185" />
<polygon fill="#6397d1" fill-opacity="0.501961" points="49,142 49,113 31,127" />
<polygon fill="#6498d0" fill-opacity="0.501961" points="112,175 104,203 112,199" />
<polygon fill="#fcab34" fill-opacity="0.501961" points="241,166 182,196 162,167" />
<polygon fill="#b3cae3" fill-opacity="0.501961" points="77,172 95,160 67,169" />
<polygon fill="#679ad2" fill-opacity="0.501961" points="55,173 30,152 5,224" />
<polygon fill="#f2f1f1" fill-opacity="0.501961" points="181,203 164,235 159,226" />
<polygon fill="#a5c1e0" fill-opacity="0.501961" points="47,142 53,131 50,145" />
<polygon fill="#6196d1" fill-opacity="0.501961" points="78,146 57,132 46,141" />
<polygon fill="#ffbe64" fill-opacity="0.501961" points="223,221 200,217 208,223" />
<polygon fill="#7baadf" fill-opacity="0.501961" points="70,53 50,53 60,56" />
<polygon fill="#faf7f4" fill-opacity="0.501961" points="101,212 97,196 95,215" />
<polygon fill="#fba930" fill-opacity="0.501961" points="187,152 198,162 179,167" />
<polygon fill="#fbab36" fill-opacity="0.501961" points="208,96 267,74 235,107" />
<polygon fill="#e0a045" fill-opacity="0.501961" points="154,137 152,104 147,124" />
<polygon fill="#fbaa33" fill-opacity="0.501961" points="271,221 240,166 254,124" />
<polygon fill="#f2f2f2" fill-opacity="0.501961" points="233,108 205,104 206,120" />
<polygon fill="#ffffff" fill-opacity="0.501961" points="28,35 4,33 2,49" />
<polygon fill="#689ad2" fill-opacity="0.501961" points="75,222 130,225 114,212" />
<polygon fill="#fbaa32" fill-opacity="0.501961" points="220,99 190,107 204,82" />
<polygon fill="#fbab34" fill-opacity="0.501961" points="244,222 264,172 230,205" />
<polygon fill="#f2f0f3" fill-opacity="0.501961" points="232,186 234,179 228,184" />
<polygon fill="#fbab35" fill-opacity="0.501961" points="199,214 207,176 222,226" />
<polygon fill="#92b4db" fill-opacity="0.501961" points="116,129 113,125 125,128" />
<polygon fill="#fffdf3" fill-opacity="0.501961" points="115,186 119,186 121,196" />
<polygon fill="#6598d2" fill-opacity="0.501961" points="117,216 107,200 101,220" />
<polygon fill="#ffffff" fill-opacity="0.501961" points="3,4 140,7 52,52" />
<polygon fill="#fbab35" fill-opacity="0.501961" points="216,187 172,150 220,172" />
<polygon fill="#6799d1" fill-opacity="0.501961" points="63,216 94,228 93,201" />
<polygon fill="#f3f3f3" fill-opacity="0.501961" points="135,227 81,246 107,228" />
<polygon fill="#fffbf6" fill-opacity="0.501961" points="68,229 94,230 103,240" />
<polygon fill="#fbab34" fill-opacity="0.501961" points="216,170 271,145 237,181" />
<polygon fill="#f6c06c" fill-opacity="0.501961" points="226,148 243,145 238,141" />
<polygon fill="#fcb756" fill-opacity="0.501961" points="183,157 187,148 181,139" />
<polygon fill="#6699d2" fill-opacity="0.501961" points="38,140 77,116 38,94" />
<polygon fill="#feae39" fill-opacity="0.501961" points="219,77 167,77 234,95" />
<polygon fill="#f4c885" fill-opacity="0.501961" points="232,144 237,140 239,148" />
<polygon fill="#6397d1" fill-opacity="0.501961" points="104,103 143,75 139,55" />
<polygon fill="#f3f1f0" fill-opacity="0.501961" points="94,119 92,117 90,119" />
<polygon fill="#a0bddf" fill-opacity="0.501961" points="114,86 116,79 119,83" />
<polygon fill="#f2f2f2" fill-opacity="0.501961" points="71,246 46,201 5,244" />
<polygon fill="#7da8d8" fill-opacity="0.501961" points="52,158 34,151 33,144" />
<polygon fill="#f3f2f3" fill-opacity="0.501961" points="244,148 244,137 246,143" />
<polygon fill="#fbab34" fill-opacity="0.501961" points="228,202 230,181 208,213" />
<polygon fill="#6699d2" fill-opacity="0.501961" points="50,56 129,86 145,58" />
<polygon fill="#edf8ff" fill-opacity="0.501961" points="226,228 193,246 263,240" />
<polygon fill="#fbd3a2" fill-opacity="0.501961" points="196,217 203,224 196,221" />
<polygon fill="#b2c9e2" fill-opacity="0.501961" points="130,115 133,116 127,118" />
<polygon fill="#ffaa2c" fill-opacity="0.501961" points="159,216 161,198 152,199" />
<polygon fill="#000000" fill-opacity="0.501961" points="-16,163 1,228 2,116" />
<polygon fill="#f7e9de" fill-opacity="0.501961" points="212,246 151,227 177,246" />
<polygon fill="#a2bede" fill-opacity="0.501961" points="65,143 58,145 59,149" />
<polygon fill="#91b4da" fill-opacity="0.501961" points="32,107 15,89 27,96" />
<polygon fill="#6598d2" fill-opacity="0.501961" points="53,131 50,172 63,137" />
<polygon fill="#fccb88" fill-opacity="0.501961" points="178,129 171,130 174,132" />
<polygon fill="#bbcee4" fill-opacity="0.501961" points="17,147 15,150 13,145" />
<polygon fill="#6096d1" fill-opacity="0.501961" points="32,104 21,80 15,88" />
<polygon fill="#fbab34" fill-opacity="0.501961" points="271,179 222,180 269,119" />
<polygon fill="#000000" fill-opacity="0.501961" points="133,1 75,-16 14,0" />
<polygon fill="#f3ebe2" fill-opacity="0.501961" points="233,200 243,189 230,197" />
<polygon fill="#eceeef" fill-opacity="0.501961" points="111,104 111,101 113,100" />
<polygon fill="#fcaa33" fill-opacity="0.501961" points="236,193 242,222 271,216" />
<polygon fill="#6598d2" fill-opacity="0.501961" points="144,85 120,93 130,116" />
<polygon fill="#ffd19a" fill-opacity="0.501961" points="163,197 164,192 166,198" />
<polygon fill="#f3f2f1" fill-opacity="0.501961" points="102,196 97,201 90,200" />
<polygon fill="#fffff9" fill-opacity="0.501961" points="65,132 69,129 68,131" />
<polygon fill="#fba930" fill-opacity="0.501961" points="221,194 236,195 220,186" />
<polygon fill="#679ad3" fill-opacity="0.501961" points="22,224 3,227 12,157" />
<polygon fill="#6799d2" fill-opacity="0.501961" points="110,121 114,99 141,134" />
<polygon fill="#6a9bd2" fill-opacity="0.501961" points="83,92 59,132 85,122" />
<polygon fill="#679ad2" fill-opacity="0.501961" points="78,195 49,192 56,216" />
<polygon fill="#d3d2d0" fill-opacity="0.501961" points="-16,45 4,48 -16,29" />
<polygon fill="#6799d2" fill-opacity="0.501961" points="5,148 4,84 35,139" />
<polygon fill="#f2f1f0" fill-opacity="0.501961" points="184,140 217,126 184,130" />
<polygon fill="#fcfcfc" fill-opacity="0.501961" points="36,27 53,1 68,1" />
<polygon fill="#f5f4f3" fill-opacity="0.501961" points="105,201 93,200 98,188" />
<polygon fill="#6497d1" fill-opacity="0.501961" points="87,141 83,146 77,128" />
<polygon fill="#ffffff" fill-opacity="0.501961" points="271,2 49,3 271,80" />
<polygon fill="#87acd8" fill-opacity="0.501961" points="120,152 107,153 102,163" />
<polygon fill="#e1a244" fill-opacity="0.501961" points="153,77 147,77 152,96" />
<polygon fill="#ffffff" fill-opacity="0.501961" points="146,76 148,4 224,77" />
<polygon fill="#6699d1" fill-opacity="0.501961" points="90,119 87,159 101,141" />
<polygon fill="#f5ddc0" fill-opacity="0.501961" points="252,237 229,227 271,224" />
<polygon fill="#6498d2" fill-opacity="0.501961" points="79,54 44,69 30,54" />
<polygon fill="#f3d5a5" fill-opacity="0.501961" points="226,151 226,142 219,144" />
<polygon fill="#ffffff" fill-opacity="0.501961" points="12,4 3,19 7,41" />
<polygon fill="#f2ede5" fill-opacity="0.501961" points="211,141 186,143 200,162" />
<polygon fill="#fcab33" fill-opacity="0.501961" points="162,100 192,110 184,81" />
<polygon fill="#ffca89" fill-opacity="0.501961" points="163,193 166,193 165,183" />
<polygon fill="#6498d2" fill-opacity="0.501961" points="53,152 41,140 55,171" />
<polygon fill="#f3f1f1" fill-opacity="0.501961" points="212,102 221,118 218,102" />
<polygon fill="#fba82d" fill-opacity="0.501961" points="255,135 247,123 251,141" />
<polygon fill="#000000" fill-opacity="0.501961" points="-16,110 2,170 1,51" />
<polygon fill="#6498d2" fill-opacity="0.501961" points="16,64 45,94 38,61" />
<polygon fill="#000000" fill-opacity="0.501961" points="42,-1 -9,-16 -16,1" />
<polygon fill="#000000" fill-opacity="0.501961" points="2,-13 3,15 -16,14" />
<polygon fill="#f2f2f2" fill-opacity="0.501961" points="237,117 187,118 224,104" />
<polygon fill="#f3ede5" fill-opacity="0.501961" points="246,125 246,134 239,143" />
<polygon fill="#f2f2f3" fill-opacity="0.501961" points="248,136 219,129 245,122" />
<polygon fill="#d69e4b" fill-opacity="0.501961" points="153,221 146,199 147,228" />
<polygon fill="#000000" fill-opacity="0.501961" points="198,1 136,1 135,-16" />
<polygon fill="#faab33" fill-opacity="0.501961" points="227,151 234,150 229,146" />
<polygon fill="#f0feff" fill-opacity="0.501961" points="234,185 234,182 232,185" />
<polygon fill="#f6dbb9" fill-opacity="0.501961" points="193,93 190,90 187,92" />
<polygon fill="#6699d1" fill-opacity="0.501961" points="38,120 14,154 30,109" />
<polygon fill="#679ad2" fill-opacity="0.501961" points="120,196 129,163 144,209" />
<polygon fill="#fcab32" fill-opacity="0.501961" points="178,81 195,97 156,90" />
<polygon fill="#fcf7f3" fill-opacity="0.501961" points="118,201 119,187 115,190" />
<polygon fill="#f2eade" fill-opacity="0.501961" points="215,139 233,144 226,132" />
<polygon fill="#fbaa32" fill-opacity="0.501961" points="181,109 183,126 197,102" />
<polygon fill="#fbab35" fill-opacity="0.501961" points="245,188 234,207 260,229" />
<polygon fill="#f0ffff" fill-opacity="0.501961" points="244,187 245,183 247,182" />
<polygon fill="#6699d1" fill-opacity="0.501961" points="124,121 131,115 99,107" />
<polygon fill="#f7f4f1" fill-opacity="0.501961" points="34,204 27,219 45,204" />
<polygon fill="#ffcd8d" fill-opacity="0.501961" points="165,178 168,176 174,187" />
<polygon fill="#dce3eb" fill-opacity="0.501961" points="98,122 93,123 97,124" />
<polygon fill="#fcaa31" fill-opacity="0.501961" points="162,99 178,112 168,117" />
<polygon fill="#9bbadd" fill-opacity="0.501961" points="52,79 42,68 43,74" />
<polygon fill="#6699d1" fill-opacity="0.501961" points="102,112 90,148 101,151" />
<polygon fill="#fbab34" fill-opacity="0.501961" points="153,99 166,79 197,97" />
<polygon fill="#679ad2" fill-opacity="0.501961" points="99,227 61,179 72,228" />
<polygon fill="#fbc479" fill-opacity="0.501961" points="245,223 231,221 237,224" />
<polygon fill="#6699d2" fill-opacity="0.501961" points="63,164 65,128 72,143" />
<polygon fill="#6599d2" fill-opacity="0.501961" points="55,83 28,62 31,80" />
<polygon fill="#e3e8ed" fill-opacity="0.501961" points="15,149 16,147 15,145" />
<polygon fill="#f2f2f2" fill-opacity="0.501961" points="61,216 75,238 16,246" />
<polygon fill="#f9aa35" fill-opacity="0.501961" points="153,222 150,174 165,177" />
<polygon fill="#679ad2" fill-opacity="0.501961" points="96,105 16,146 4,117" />
<polygon fill="#6699d1" fill-opacity="0.501961" points="32,108 7,85 5,165" />
<polygon fill="#f7bb5d" fill-opacity="0.501961" points="227,123 200,120 212,126" />
<polygon fill="#6398d2" fill-opacity="0.501961" points="44,162 26,156 37,150" />
<polygon fill="#f2f0ee" fill-opacity="0.501961" points="193,155 223,162 210,166" />
<polygon fill="#fbab34" fill-opacity="0.501961" points="236,92 248,127 263,72" />
<polygon fill="#a3bfdf" fill-opacity="0.501961" points="109,88 110,95 106,93" />
<polygon fill="#f2d8af" fill-opacity="0.501961" points="235,160 236,154 227,158" />
</g>
</svg>